<?xml version="1.0" encoding="iso-8859-1"?>
<!-- Generator: Adobe Illustrator 16.0.0, SVG Export Plug-In . SVG Version: 6.00 Build 0)  -->
<!DOCTYPE svg PUBLIC "-//W3C//DTD SVG 1.1//EN" "http://www.w3.org/Graphics/SVG/1.1/DTD/svg11.dtd">
<svg version="1.1" xmlns="http://www.w3.org/2000/svg" xmlns:xlink="http://www.w3.org/1999/xlink" x="0px" y="0px"
	 width="158.146px" height="245.744px" viewBox="0 0 158.146 245.744" style="enable-background:new 0 0 158.146 245.744;"
	 xml:space="preserve">
<g id="Layer_1_1_">
	<path style="fill-rule:evenodd;clip-rule:evenodd;" d="M64.77,103.795c0.087-5.83-1.872-40.261-1.618-46.083
		c0.312-7.175,1.451-14.236,4.574-20.799c2.804-5.894,7.115-10.404,12.992-13.33c2.384-1.187,4.763-2.405,7.234-3.383
		c6.055-2.394,9.687-6.766,11.224-13.035C99.756,4.8,99.99,2.293,101.312,0c1.774,1.618,1.792,3.835,3.072,5.354
		c1.339-0.658,0.345-2.294,1.304-3.145c1.51-0.185,1.256,1.146,1.607,1.936c0.334,0.753,0.606,1.533,0.871,2.211
		c1.154,0.396,0.783-0.935,2.612-0.768c0.024,0.005,0.126,1.076,0.5,1.954c2.515,5.91,6.827,10.085,12.366,13.224
		c4.045,2.291,8.27,4.272,12.029,7.077c8.225,6.133,11.898,14.567,12.262,24.523c0.248,6.82-0.01,9.015,0.011,15.845
		c0.004,1.279-0.101,1.991-0.06,4.789c0.092,1.898,0.217,2.635,0.092,3.96c0.013,0.936-0.188,1.562-0.188,6.062
		c0.125,4.062,0.188,5.375-0.062,9.25c-0.165,2.553-0.078,2.957-0.125,5.438c-0.271,4.271-0.188,5.438-0.625,11.125
		c-0.268,4.136-1.166,9.387-1.037,13.199c0.126,3.693-0.42,7.33-1.014,10.915c-0.84,5.063-3.541,9.371-7.249,12.83
		c-4.251,3.965-8.686,7.768-14.511,10.865c2.751,0.076,4.896-0.191,7.001,0.271c4.392,0.965,7.96,2.977,10.573,6.829
		c3.184,4.692,4.965,9.856,5.231,15.387c0.474,9.812,0.175,19.632-0.445,29.447c-0.292,4.631,0.231,9.3,0.98,13.893
		c0.722,4.43,3.236,7.566,7.389,9.363c0.913,0.395,1.82,0.833,2.662,1.36c1.451,0.908,1.906,2.233,1.366,3.917
		c-1.076,1.434-2.658,1.817-4.357,1.982c-13.102,1.273-23.33-7.756-23.279-20.717c0.012-3.154,0.169-6.299,0.432-9.459
		c0.637-7.648,0.154-15.286-1.512-22.812c-0.465-2.095-1.078-4.138-2.377-5.969c-0.399,0.31-0.799,0.473-0.801,0.641
		c-0.143,12.311-1.406,24.592-0.939,36.919c0.152,4.013,0.874,7.907,1.852,11.788c1.039,4.129,3.23,7.214,7.199,8.987
		c1.645,0.734,3.424,1.436,3.98,3.526c0.074,2.708-2.117,3.45-3.977,3.562c-5.896,0.354-11.729-0.396-16.6-4.05
		c-3.445-2.583-5.043-6.648-6.221-10.614c-1.27-4.28-2.046-8.717-2.238-13.239c-0.46-10.831-0.105-21.653,0.119-32.479
		c0.045-2.164,0.039-4.332-0.029-6.495c-0.039-1.234-0.502-2.276-1.947-2.556c-1.152,0.047-1.726,0.84-2.074,1.821
		c-0.845,2.377-1.177,4.841-1.153,7.359c0.087,9.328,0.214,18.656,0.236,27.985c0.014,5.817,0.052,11.621-1.048,17.405
		c-1.236,6.506-4.729,10.976-10.971,13.005c-5.033,1.638-10.195,3.339-15.324,0.565c-1.073-1.031-1.127-2.119-0.641-3.33
		c0.786-1.134,2.019-1.704,3.251-2.16c4.364-1.613,6.499-5.095,7.594-9.267c1.787-6.811,2.366-13.81,1.709-20.787
		c-0.799-8.479-0.733-16.955-0.778-25.442c-0.007-1.305,0.427-2.655-0.417-4.175c-2.673,3.571-3.369,7.62-3.527,11.71
		c-0.211,5.489-0.086,10.992-0.061,16.488c0.021,4.331,0.052,8.663,0.179,12.992c0.313,10.679-5.16,14.19-11.922,16.925
		c-3.705,1.498-7.715,1.979-11.766,1.612c-1.711-0.155-3.333-0.41-4.186-2.503c0.101-1.992,1.075-3.611,3.17-4.373
		c6.562-2.386,8.08-7.839,8.509-13.93c0.128-1.823,0.039-3.664,0.012-5.496c-0.08-5.433-0.483-10.855-0.057-16.823
		c-2.88,0.272-5.311,0.495-7.74,0.731c-8.78,0.854-17.218-0.351-25.257-4.101c-4.868-2.271-8.464-5.812-10.88-10.581
		c-1.429-2.821-2.877-5.633-4.253-8.479c-2.889-5.974-6.76-11.013-12.694-14.334c-2.416-1.352-5.07-2.681-5.821-5.88
		c0.607-2.301,2.512-2.35,4.352-2.328c7.463,0.083,13.973,2.681,19.521,7.648c2.504,2.241,4.459,4.953,6.114,7.853
		c5.552,9.729,14.659,11.93,24.788,11.364c4.054-0.227,8.291-0.663,11.917-2.812c1.417-2.992,2.754-5.84,4.113-8.676
		c2.32-4.841,6.211-7.678,11.384-8.851c0.963-0.218,1.942-0.361,3.319-0.613c-2.598-3.75-6.092-6.252-9.109-9.164
		c-7.546-7.285-12.32-16.316-11.951-27.029c0.091-2.657-0.5-8.759-0.5-11.5 M112.231,115.819c3.106,0,5.755,0.024,8.402-0.005
		c4.506-0.051,7.993,1.665,10.461,5.557c0.956,1.508,1.613,3.31,3.517,4.51c1.23-1.024,2.75-1.471,4.11-2.886
		c1.956-2.033,2.006-4.442,2.899-6.683c3.727-9.343,3.176-19.118,2.877-28.877c-0.16,1.301-0.32,2.603-0.446,3.622
		c-3.798,5.774-9.378,7.506-15.499,8.312c-7.031,0.926-13.305,0.068-17.361-6.687c-0.222-0.368-0.88-1.766-1.229-2.807l-0.396-1.176
		c-1.755-5.949-1.922-9.199-4.329-8.345c-1.175,1.229-1.607,2.832-2.255,4.35c-1.106,2.594-2.386,5.113-3.584,7.667
		c-2.02,4.309-5.379,6.383-10.142,6.91c-3.378,0.374-6.648,0.142-9.874-0.494c-4.812-0.947-9.298-2.683-12.261-8.373
		c-0.479,11.672-0.096,22.164,3.691,32.729c2.291,1.049,3.468,4.785,7.451,4.034c1.313-1.392,2.073-3.266,2.717-5.121
		c1.73-4.98,5.443-6.869,10.374-6.933c1.821-0.023,3.677-0.01,5.458,0.312c1.989,0.359,3.973,0.285,5.959,0.411 M106.104,45.15
		c-2.837-0.934-5.333-1.871-7.894-2.573c-4.962-1.36-9.931-3.072-15.153-2.553c-8.872,0.882-12.645,5.3-11.993,12.745
		c0.16,1.824,0.164,3.662,0.208,5.495c0.064,2.66,0.188,5.327-0.354,7.86c-0.863,1.714-2.359,2.968-2.557,4.827
		c-0.232,1.167,1.387,0.713,1.377,1.214c-0.428,1.428-2.156,1.8-1.161,3.544c1.503-1.323,2.837-2.874,5.038-3.147
		c-0.676-0.786-1.788-0.181-2.056-1.323c6.345-1.65,12.796-2.644,19.261-1.965c8.319,0.874,16.626,0.758,24.947,0.723
		c9.426-0.04,18.906-0.847,27.953,2.523c0.951-1.704,0.237-2.89-0.446-3.998c-1.833-2.971-2.181-6.217-2.075-9.607
		c0.094-2.996,0.104-6,0.014-8.996c-0.115-3.803-1.916-6.551-5.281-8.436c-5.188-2.906-10.515-2.659-15.915-0.973
		C115.419,41.947,110.877,43.552,106.104,45.15z M109.422,149.729c1.273-1.25,3.158-1.69,5.215-1.705
		c2.085-0.016,3.926-0.902,5.389-2.307c1.916-1.842,3.749-3.794,5.426-5.854c1.164-1.43,1.707-3.206,1.735-5.111
		c0.072-4.813-1.597-8.741-5.976-11.846c-2.369,0-5.029-0.127-7.672,0.034c-2.941,0.179-5.387-1.598-8.482-1.943
		c-4.559,3.517-10.659,0.894-15.999,3.663c-3.091,4.214-2.399,9.109-1.69,13.932c2.777,2.752,4.656,5.93,7.733,8.088
		C99.363,149.672,104.48,148.211,109.422,149.729z M70.608,76.022c-2.053,4.053-1.152,8.01-0.597,11.931
		c0.427,3.016,2.019,5.185,4.929,6.333c3.893,1.538,7.903,2.466,12.1,2.483c5.57,0.023,9.542-2.396,11.575-7.697
		c1.662-4.333,2.838-8.779,3.245-13.348C94.719,71.922,78.693,72.058,70.608,76.022z M140.748,75.934
		c-6.411-2.774-13.15-3.022-19.939-2.911c-3.806,0.062-7.562,0.396-10.846,2.678c0.04,4.359,0.846,8.41,2.005,12.396
		c1.572,5.41,5.246,8.316,10.833,8.673c6.162,0.395,11.828-1.029,16.611-4.776C141.493,86.661,141.874,82.485,140.748,75.934z
		 M103.434,37.655c0.973,0.903,2.275-0.033,3.146,0.5c0.419,0.538-0.438,1.396,0.743,1.521c1.027-0.806,2.935-0.207,3.58-1.941
		c-1.736-1.108-3.791,0.099-5.32-1.155c0.078-0.632,0.664-1.154,0.058-2.271c-1.628,1.992-4.741-0.909-6.204,2.191
		c1.463,1.46,2.66-0.926,4.073-0.233C103.482,36.753,103.457,37.206,103.434,37.655z M46.727,180.303
		c-1.038,0.469-2.529,0.376-2.088,2.372c1.205,0.327,2.417,0.996,3.352-0.559C48.178,181.271,47.755,180.827,46.727,180.303z
		 M108.893,10.509c-1.051,0.31-2.166,0.351-2.707,1.558c0.108,0.697-0.489,1.666,0.463,2.511
		C107.972,13.579,108.468,12.103,108.893,10.509z M65.004,180.31c-1.271-1.27-2.381-1.762-3.452,0.143
		c0.301,0.926,0.771,1.352,1.479,1.383C63.938,181.875,64.533,181.37,65.004,180.31z M21.138,163.091
		c1.608,1.201,2.779,1.4,4.205-0.276C23.74,161.56,22.579,161.525,21.138,163.091z M17.298,157.77
		c0.732,1.773,1.925,1.646,3.277,0.818c0.168-0.104,0.133-0.539,0.197-0.846C19.713,156.61,18.615,156.693,17.298,157.77z
		 M33.623,174.556c-1.875-1.878-1.875-1.878-3.413-0.108C31.317,175.521,32.45,175.43,33.623,174.556z M36.047,178.834
		c2.314,1.055,2.314,1.055,3.445-0.605C38.382,177.496,37.354,177.56,36.047,178.834z M56.551,181.839
		c-1.513-1.405-2.441-1.23-3.428,0.007C54.747,182.815,54.747,182.815,56.551,181.839z M29.306,168.614
		c-1.556-1.043-2.62-1.375-3.312,0.521C27.155,170.095,28.097,170.304,29.306,168.614z M13.481,154.204
		c-1.381-1.397-2.304-1.292-3.401-0.213C11.027,155.478,11.957,155.432,13.481,154.204z M140.12,73.084
		c-0.565,0.114-0.679,0.328-0.349,0.562c0.971,0.692,1.96,1.359,3.51,2.428C142.768,73.608,141.594,73.124,140.12,73.084z
		 M67.494,63.435c0.936-1.025,0.868-2.033,0.062-3.09C66.616,61.366,66.688,62.374,67.494,63.435z"/>
	<path style="fill-rule:evenodd;clip-rule:evenodd;" d="M0.278,172.204c-0.864-3.967,0.395-7.477,2.238-11.261
		c2.631,3.538,4.44,6.93,3.554,11.19C4.113,174.027,2.257,174.019,0.278,172.204z"/>
	<path style="fill-rule:evenodd;clip-rule:evenodd;fill:#FFFFFF;" d="M103.434,37.658c0.023-0.452,0.049-0.905,0.075-1.391
		c-1.413-0.692-2.61,1.693-4.073,0.233c1.463-3.101,4.576-0.199,6.204-2.191c0.606,1.116,0.021,1.639-0.058,2.271
		c1.529,1.254,3.584,0.047,5.32,1.155c-0.646,1.734-2.553,1.136-3.58,1.941c-1.182-0.125-0.324-0.983-0.743-1.521
		C105.709,37.622,104.406,38.559,103.434,37.658z"/>
	<path style="fill-rule:evenodd;clip-rule:evenodd;fill:#FFFFFF;" d="M46.727,180.303c1.028,0.524,1.451,0.968,1.264,1.813
		c-0.935,1.555-2.147,0.886-3.352,0.559C44.197,180.679,45.689,180.771,46.727,180.303z"/>
	<path style="fill-rule:evenodd;clip-rule:evenodd;fill:#FFFFFF;" d="M108.893,10.509c-0.425,1.594-0.921,3.07-2.244,4.068
		c-0.952-0.845-0.354-1.813-0.463-2.511C106.727,10.859,107.842,10.818,108.893,10.509z"/>
	<path style="fill-rule:evenodd;clip-rule:evenodd;fill:#FFFFFF;" d="M65.004,180.31c-0.471,1.061-1.065,1.565-1.973,1.525
		c-0.708-0.031-1.178-0.457-1.479-1.383C62.623,178.548,63.732,179.04,65.004,180.31z"/>
	<path style="fill-rule:evenodd;clip-rule:evenodd;fill:#FFFFFF;" d="M21.138,163.091c1.441-1.565,2.602-1.531,4.205-0.276
		C23.917,164.491,22.746,164.292,21.138,163.091z"/>
	<path style="fill-rule:evenodd;clip-rule:evenodd;fill:#FFFFFF;" d="M17.298,157.77c1.317-1.076,2.416-1.159,3.474-0.027
		c-0.064,0.307-0.028,0.742-0.197,0.846C19.223,159.415,18.03,159.543,17.298,157.77z"/>
	<path style="fill-rule:evenodd;clip-rule:evenodd;fill:#FFFFFF;" d="M33.623,174.556c-1.172,0.874-2.306,0.966-3.413-0.108
		C31.748,172.678,31.748,172.678,33.623,174.556z"/>
	<path style="fill-rule:evenodd;clip-rule:evenodd;fill:#FFFFFF;" d="M36.047,178.834c1.306-1.274,2.335-1.338,3.445-0.605
		C38.362,179.889,38.362,179.889,36.047,178.834z"/>
	<path style="fill-rule:evenodd;clip-rule:evenodd;fill:#FFFFFF;" d="M56.551,181.839c-1.804,0.977-1.804,0.977-3.428,0.007
		C54.11,180.608,55.038,180.434,56.551,181.839z"/>
	<path style="fill-rule:evenodd;clip-rule:evenodd;fill:#FFFFFF;" d="M29.306,168.614c-1.209,1.689-2.15,1.48-3.312,0.521
		C26.686,167.239,27.75,167.571,29.306,168.614z"/>
	<path style="fill-rule:evenodd;clip-rule:evenodd;fill:#FFFFFF;" d="M13.481,154.204c-1.524,1.228-2.454,1.273-3.401-0.213
		C11.177,152.912,12.1,152.807,13.481,154.204z"/>
	<path style="fill-rule:evenodd;clip-rule:evenodd;fill:#FFFFFF;" d="M140.12,73.084c1.474,0.04,2.647,0.524,3.161,2.99
		c-1.55-1.068-2.539-1.735-3.51-2.428C139.441,73.412,139.555,73.198,140.12,73.084z"/>
	<path style="fill-rule:evenodd;clip-rule:evenodd;fill:#FFFFFF;" d="M67.494,63.435c-0.807-1.061-0.878-2.068,0.062-3.09
		C68.362,61.401,68.43,62.409,67.494,63.435z"/>
	<path style="fill-rule:evenodd;clip-rule:evenodd;fill:#FFFFFF;" d="M69.737,72.166l-0.397,0.77c0,0-0.182,0.166-0.575,0.744
		s-0.598,1.124-0.393,1.577s0.183,0.455,1.366-0.603c2.241-2.004,3.876-2.091,3.876-2.091s0.212-0.181-0.629-0.396
		s-1.455-0.812-1.309-0.615s-0.146-0.197-0.146-0.197L69.737,72.166z"/>
</g>
<g id="Layer_1">
</g>
</svg>
