<?xml version="1.0" encoding="iso-8859-1"?>
<!-- Generator: Adobe Illustrator 16.0.0, SVG Export Plug-In . SVG Version: 6.00 Build 0)  -->
<!DOCTYPE svg PUBLIC "-//W3C//DTD SVG 1.1//EN" "http://www.w3.org/Graphics/SVG/1.1/DTD/svg11.dtd">
<svg version="1.1" xmlns="http://www.w3.org/2000/svg" xmlns:xlink="http://www.w3.org/1999/xlink" x="0px" y="0px"
	 width="46.296px" height="42.102px" viewBox="0 0 46.296 42.102" style="enable-background:new 0 0 46.296 42.102;"
	 xml:space="preserve">
<g id="Layer_1_1_">
	<path style="fill-rule:evenodd;clip-rule:evenodd;" d="M29.903,0c4.66,1.191,8.229,4.021,10.692,7.98
		c6.368,10.236,7.579,21.021,2.728,32.257c-0.257,0.597-0.627,1.145-1.026,1.863c-0.217-2.191-0.292-4.177-0.628-6.116
		c-0.927-5.347-3.354-9.872-8.03-12.818c-5.489-3.458-8.776-8.369-10.36-14.55c-0.018-0.066-0.101-0.116-0.124-0.141
		c-0.603,1.514-1.202,3.048-1.823,4.572c-1.602,3.931-4.153,7.05-7.782,9.312c-3.789,2.363-6.45,5.688-8.011,9.877
		c-1.046,2.807-1.47,5.717-1.41,8.703c0.006,0.279,0.011,0.559,0.009,0.837c0,0.022-0.058,0.044-0.246,0.175
		c-0.269-0.457-0.566-0.896-0.799-1.366c-3.265-6.613-3.748-13.559-2.366-20.694C1.755,14.578,3.886,9.774,7.524,5.689
		C9.918,3.001,12.85,1.172,16.223,0C20.783,0,25.343,0,29.903,0z"/>
</g>
<g id="Layer_1">
</g>
</svg>
