<?xml version="1.0" encoding="iso-8859-1"?>
<!-- Generator: Adobe Illustrator 16.0.0, SVG Export Plug-In . SVG Version: 6.00 Build 0)  -->
<!DOCTYPE svg PUBLIC "-//W3C//DTD SVG 1.1//EN" "http://www.w3.org/Graphics/SVG/1.1/DTD/svg11.dtd">
<svg version="1.1" xmlns="http://www.w3.org/2000/svg" xmlns:xlink="http://www.w3.org/1999/xlink" x="0px" y="0px" width="59.04px"
	 height="32.721px" viewBox="0 0 59.04 32.721" style="enable-background:new 0 0 59.04 32.721;" xml:space="preserve">
<g id="Layer_11">
	<path style="fill-rule:evenodd;clip-rule:evenodd;" d="M0,32.721c0.205-0.221,0.385-0.475,0.62-0.658
		c1.354-1.058,2.706-2.117,4.086-3.14c3.601-2.667,5.712-6.195,6.637-10.595c0.828-3.938,1.992-7.804,3.034-11.694
		c0.143-0.533,0.412-1.038,0.66-1.537c2.011-4.038,5.044-5.628,9.512-4.942c1.022,0.157,2.095,0.307,3.015,0.736
		c1.315,0.613,2.471,0.418,3.785,0.024c1.547-0.464,3.185-0.858,4.784-0.861c3.279-0.005,5.808,1.673,7.246,4.529
		c1.227,2.437,2.101,5.073,2.903,7.692c0.724,2.359,1.194,4.803,1.677,7.229c0.721,3.629,2.676,6.449,5.494,8.738
		c1.854,1.504,3.725,2.986,5.587,4.478c-0.56,0-1.12,0-1.681,0c-0.292-0.098-0.578-0.228-0.879-0.288
		c-5.579-1.114-10.683-3.195-14.906-7.153c-4.248-3.98-7.797-8.546-11.195-13.239c-0.558-0.771-1.204-0.808-1.769-0.087
		c-2.534,3.235-4.992,6.536-7.656,9.662c-3.54,4.152-7.678,7.579-12.963,9.326c-2.073,0.686-4.206,1.191-6.311,1.779
		C1.12,32.721,0.56,32.721,0,32.721z"/>
</g>
<g id="Layer_1">
</g>
</svg>
