<?xml version="1.0" encoding="iso-8859-1"?>
<!-- Generator: Adobe Illustrator 16.0.0, SVG Export Plug-In . SVG Version: 6.00 Build 0)  -->
<!DOCTYPE svg PUBLIC "-//W3C//DTD SVG 1.1//EN" "http://www.w3.org/Graphics/SVG/1.1/DTD/svg11.dtd">
<svg version="1.1" xmlns="http://www.w3.org/2000/svg" xmlns:xlink="http://www.w3.org/1999/xlink" x="0px" y="0px"
	 width="161.473px" height="194.541px" viewBox="0 0 161.473 194.541" style="enable-background:new 0 0 161.473 194.541;"
	 xml:space="preserve">
<g id="Layer_4">
	<linearGradient id="SVGID_1_" gradientUnits="userSpaceOnUse" x1="80.7368" y1="194.54" x2="80.7368" y2="0">
		<stop  offset="0" style="stop-color:#000000"/>
		<stop  offset="1" style="stop-color:#4D4D4D"/>
	</linearGradient>
	<path style="fill:url(#SVGID_1_);" d="M161.465,120.117c-0.078-1.977-0.293-3.992-0.301-5.969
		c-0.02-4.717-0.504-9.471-0.524-14.227c-0.023-5.408,0.261-10.934-0.983-16.24c-0.301-1.285-2.349-7.479-3.682-11.032
		c-0.082-0.494-0.164-0.986-0.242-1.476c-0.338-3.588-0.416-7.191-0.555-10.883c-0.01-0.265-0.268-0.354-0.45-0.273
		c0.084-0.891,0.202-1.782,0.368-2.674c0.047-0.251-0.322-0.452-0.441-0.186c-1.037,2.295-1.562,4.925-1.687,7.621
		c-0.019-0.1-0.036-0.201-0.055-0.301c-0.14-2.243-0.235-4.489-0.284-6.735c-0.01-0.51-0.566-0.645-0.881-0.417
		c-0.043-0.324-0.092-0.65-0.129-0.973c-0.066-0.576-0.942-0.609-0.926,0c0.029,1.039,0.096,2.074,0.182,3.108
		c-0.913-3.118-1.585-6.332-1.688-9.825c-0.011-0.379-0.306-0.564-0.595-0.558c-0.165-0.792-1.418-0.786-1.383,0.093
		c0.129,3.228,0.42,6.574,0.988,9.817c-0.195-0.604-0.377-1.215-0.531-1.847c-0.879-3.611-0.896-7.261-1.603-10.879
		c-0.104-0.53-1.022-0.411-0.95,0.13c0.173,1.295,0.279,2.686,0.375,4.122c-0.317-1.43-0.595-2.851-0.825-4.248
		c-0.087-0.524-0.992-0.403-0.929,0.126c0.451,3.777,1.245,7.415,2.333,10.987c0.261,1.955,0.669,3.861,1.329,5.629
		c-2.604-6.088-4.041-12.658-5.855-19.029c-0.127-0.444-0.795-0.257-0.689,0.189c0.58,2.478,0.815,4.975,1.312,7.439
		c-0.959-2.498-1.821-5.028-2.446-7.637c-0.117-0.491-0.846-0.281-0.749,0.206c0.03,0.152,0.065,0.302,0.097,0.452
		c-0.492-1.833-0.943-3.678-1.33-5.551c-0.131-0.632-1.052-0.354-0.953,0.264c0.313,1.957,0.666,3.895,1.074,5.814
		c-0.521-1.77-0.977-3.557-1.32-5.372c-0.035-0.188-0.154-0.281-0.289-0.312c-0.01-0.242-0.025-0.483-0.031-0.727
		c-0.018-0.745-1.14-0.745-1.156,0c-0.031,1.322-0.004,2.596,0.062,3.847c-0.402-1.806-0.721-3.639-0.981-5.481
		c-0.005-0.074-0.015-0.146-0.021-0.218c-0.003-0.042-0.02-0.073-0.029-0.112c-0.017-0.117-0.039-0.232-0.055-0.352
		c-0.08-0.603-1.031-0.628-0.967,0c0.004,0.045,0.01,0.093,0.014,0.138c-0.027,0.039-0.049,0.083-0.066,0.13
		c-0.043-0.562-0.083-1.116-0.118-1.657c-0.042-0.643-1.033-0.653-1.009,0c0.189,5.183,0.668,10.566,2.03,15.621
		c-1.507-4.634-2.636-9.389-3.536-14.379c-0.129-0.715-1.178-0.399-1.075,0.296c0.123,0.836,0.245,1.726,0.369,2.639
		c-0.53-1.796-1.001-3.618-1.379-5.483c-0.144-0.71-1.193-0.401-1.075,0.296c0.383,2.249,0.863,4.49,1.439,6.705
		c-0.729-1.862-1.391-3.764-1.963-5.719c0.055-2.39,0.385-4.704,1.104-6.849c0.104-0.313-0.355-0.487-0.52-0.219
		c-0.879,1.441-1.439,3.055-1.763,4.747c-0.042-0.104-0.081-0.213-0.124-0.318c-0.208-0.503-1.035-0.293-0.832,0.229
		c0.262,0.673,0.486,1.361,0.693,2.057c-0.05,0.587-0.068,1.18-0.072,1.773c-0.351-1.039-0.715-2.073-1.092-3.103
		c-0.207-1.893-0.488-3.776-1.003-5.656c-0.185-0.678-1.037-0.581-1.271-0.084c-0.061-0.177-0.118-0.354-0.181-0.531
		c-0.162-0.453-0.879-0.268-0.729,0.202c0.708,2.231,1.235,4.51,1.749,6.792c0.05,0.657,0.092,1.312,0.131,1.972
		c-1.443-4.456-3.013-8.854-4.958-12.956c-0.028-0.059-0.071-0.092-0.118-0.116c-0.012-0.04-0.02-0.08-0.03-0.121
		c-0.113-0.433-0.536-0.503-0.843-0.345c-0.172-0.719-0.355-1.432-0.559-2.136c-0.125-0.431-0.77-0.251-0.67,0.184
		c0.145,0.628,0.26,1.272,0.381,1.915c-0.217-0.501-0.422-1.004-0.646-1.503c-0.106-0.236-0.335-0.234-0.499-0.119
		c-0.09-0.897-0.166-1.796-0.207-2.702c-0.02-0.404-0.626-0.408-0.631,0c-0.01,0.818-0.008,1.646,0.002,2.475
		c-0.18-1.027-0.366-2.054-0.57-3.077c-0.134-0.674-1.113-0.376-1.014,0.279c0.154,1.002,0.268,2.076,0.369,3.183
		c-0.235-0.552-0.461-1.106-0.703-1.653c-0.049-0.112-0.142-0.161-0.243-0.174c-0.257-1.233-0.524-2.465-0.837-3.688
		c-0.131-0.518-0.893-0.297-0.791,0.217c0.269,1.341,0.496,2.686,0.704,4.035c-0.393-1.021-0.812-2.034-1.265-3.036
		c-0.049-0.34-0.096-0.688-0.148-1.019c-0.062-0.397-0.535-0.462-0.827-0.285c-0.005-0.09-0.013-0.177-0.017-0.267
		c-0.018-0.473-0.744-0.477-0.736,0c0.07,3.898,0.424,7.835,1.126,11.697c-0.026-0.062-0.054-0.125-0.079-0.187
		c-1.067-4.786-1.609-9.662-2.607-14.461c-0.17-0.814-1.387-0.464-1.237,0.342c0.036,0.198,0.065,0.396,0.101,0.594
		c-0.12,0.077-0.209,0.203-0.208,0.393c0.007,1.143,0.034,2.277,0.089,3.407c-0.507-1.329-1.014-2.663-1.523-3.998
		c-0.006-0.112-0.016-0.224-0.021-0.336c-0.01-0.238-0.134-0.395-0.294-0.485c-0.008-0.018-0.014-0.037-0.021-0.057
		c-0.117-0.306-0.564-0.232-0.584,0.037c-0.17,0.088-0.301,0.249-0.299,0.505c0.014,1.812,0.117,3.665,0.29,5.525
		c-0.519-1.284-1.04-2.564-1.562-3.847c-0.334-1.716-0.586-3.437-0.73-5.153c-0.044-0.519-0.834-0.534-0.82,0
		c0.014,0.547,0.044,1.088,0.072,1.63c-0.271-0.635-0.531-1.274-0.812-1.905c-0.202-0.453-0.856-0.274-0.997,0.109
		c-0.302-1.216-0.607-2.434-0.933-3.648c-0.138-0.515-0.896-0.296-0.791,0.218c0.095,0.47,0.183,0.938,0.272,1.408
		c-0.232-0.135-0.551-0.08-0.77,0.092c-0.083-0.426-0.153-0.854-0.242-1.279c-0.137-0.65-1.065-0.359-0.974,0.268
		c0.238,1.621,0.419,3.234,0.587,4.845c-0.358-0.932-0.738-1.854-1.178-2.749c-0.002-0.003-0.004-0.005-0.006-0.009
		c-0.014-0.508-0.039-1.023-0.044-1.525c-0.007-0.64-0.966-0.637-0.988,0c-0.018,0.497-0.019,0.995-0.024,1.492
		c-0.044,0.053-0.076,0.108-0.097,0.172C92.3,7.75,91.506,7.973,91.418,8.56c-0.125-0.569-0.261-1.139-0.375-1.706
		c-0.152-0.762-1.286-0.433-1.155,0.318c0.862,4.948,2.015,9.747,3.532,14.469c0.016,0.117,0.023,0.236,0.039,0.354
		c-0.07-0.17-0.145-0.338-0.215-0.508c-1.541-3.746-2.623-7.61-3.851-11.434c0.005-1.705,0.047-3.411,0.134-5.125
		c0.03-0.587-0.853-0.571-0.904,0c-0.066,0.745-0.132,1.493-0.195,2.243c-0.227-0.642-0.461-1.281-0.709-1.915
		C87.482,4.65,86.511,4.89,86.726,5.53c0.13,0.383,0.245,0.769,0.354,1.156c-0.338-0.015-0.717,0.27-0.637,0.709
		c0.588,3.256,1.004,6.451,1.588,9.619c0.028,0.887,0.079,1.772,0.16,2.656c-0.024-0.09-0.045-0.179-0.07-0.269
		c-0.087-0.318-0.398-0.375-0.629-0.265c-1.396-4.627-2.252-9.428-2.418-14.44C85.06,4.261,84.5,4.198,84.328,4.502
		c-0.021-0.475-0.043-0.951-0.055-1.428c-0.018-0.678-1.034-0.678-1.051,0c-0.076,3.018-0.105,5.875,0.023,8.693
		c-0.094,2.475-0.061,4.946,0.158,7.413c-0.461-3.111-0.869-6.233-1.152-9.388c-0.012-0.128-0.059-0.23-0.123-0.313
		c0.009-0.559,0.021-1.117,0.022-1.675c0.091-1.696,0.125-3.42,0.11-5.193c-0.002-0.208-0.092-0.355-0.22-0.451
		c-0.021-0.545-0.04-1.092-0.064-1.634c-0.032-0.702-1.065-0.704-1.093,0c-0.048,1.22-0.093,2.441-0.144,3.664
		c-0.001,0.002-0.003,0.002-0.004,0.003c-0.001-0.001-0.002-0.001-0.004-0.003c-0.051-1.223-0.096-2.444-0.144-3.664
		c-0.028-0.704-1.061-0.702-1.093,0c-0.025,0.542-0.044,1.089-0.064,1.634c-0.127,0.096-0.218,0.243-0.22,0.451
		c-0.015,1.773,0.019,3.497,0.111,5.193c0,0.558,0.013,1.116,0.022,1.675c-0.065,0.083-0.112,0.186-0.124,0.313
		c-0.283,3.154-0.69,6.276-1.152,9.388c0.218-2.467,0.251-4.938,0.157-7.413c0.13-2.818,0.101-5.676,0.024-8.693
		c-0.017-0.678-1.034-0.678-1.051,0c-0.012,0.477-0.034,0.953-0.055,1.428c-0.171-0.305-0.731-0.241-0.746,0.194
		c-0.167,5.013-1.021,9.813-2.419,14.44c-0.23-0.11-0.542-0.054-0.629,0.265c-0.024,0.09-0.045,0.179-0.07,0.269
		c0.081-0.884,0.132-1.77,0.161-2.656c0.583-3.168,1-6.363,1.587-9.619c0.079-0.439-0.3-0.724-0.637-0.709
		c0.11-0.388,0.225-0.773,0.354-1.156c0.215-0.64-0.757-0.88-0.994-0.273c-0.247,0.634-0.481,1.273-0.708,1.915
		c-0.063-0.75-0.129-1.498-0.196-2.243c-0.051-0.571-0.934-0.587-0.904,0c0.087,1.714,0.129,3.42,0.134,5.125
		c-1.228,3.823-2.31,7.688-3.851,11.434c-0.07,0.17-0.145,0.338-0.215,0.508c0.016-0.117,0.024-0.236,0.039-0.354
		c1.518-4.722,2.67-9.521,3.533-14.469c0.131-0.751-1.002-1.08-1.155-0.318c-0.114,0.567-0.25,1.137-0.374,1.706
		c-0.089-0.587-0.883-0.81-1.212-0.345c-0.021-0.063-0.053-0.119-0.097-0.172c-0.005-0.497-0.007-0.995-0.024-1.492
		c-0.022-0.637-0.981-0.64-0.988,0c-0.005,0.502-0.03,1.018-0.043,1.525c-0.002,0.004-0.005,0.006-0.007,0.009
		c-0.438,0.896-0.819,1.817-1.178,2.749c0.168-1.61,0.349-3.224,0.587-4.845c0.092-0.627-0.837-0.918-0.973-0.268
		c-0.089,0.426-0.16,0.854-0.242,1.279c-0.219-0.172-0.538-0.227-0.77-0.092c0.09-0.47,0.178-0.938,0.273-1.408
		c0.104-0.514-0.653-0.732-0.791-0.218c-0.325,1.215-0.631,2.433-0.933,3.648c-0.14-0.384-0.795-0.562-0.997-0.109
		c-0.281,0.631-0.541,1.271-0.812,1.905c0.028-0.542,0.058-1.083,0.072-1.63c0.014-0.534-0.776-0.519-0.82,0
		c-0.144,1.717-0.397,3.438-0.73,5.153c-0.521,1.282-1.043,2.562-1.562,3.847c0.173-1.86,0.276-3.714,0.29-5.525
		c0.002-0.256-0.128-0.417-0.299-0.505c-0.02-0.27-0.466-0.343-0.583-0.037c-0.007,0.02-0.014,0.039-0.021,0.057
		c-0.16,0.091-0.284,0.247-0.294,0.485c-0.005,0.112-0.014,0.224-0.02,0.336c-0.511,1.335-1.018,2.669-1.524,3.998
		c0.054-1.13,0.082-2.265,0.088-3.407c0.001-0.189-0.087-0.315-0.208-0.393c0.035-0.198,0.064-0.396,0.101-0.594
		c0.149-0.806-1.067-1.156-1.237-0.342c-0.999,4.799-1.541,9.675-2.607,14.461c-0.026,0.062-0.053,0.125-0.079,0.187
		c0.702-3.862,1.055-7.799,1.125-11.697c0.009-0.477-0.717-0.473-0.736,0c-0.003,0.09-0.012,0.177-0.017,0.267
		c-0.292-0.177-0.766-0.112-0.828,0.285c-0.052,0.331-0.099,0.679-0.148,1.019c-0.452,1.002-0.872,2.015-1.264,3.036
		c0.208-1.35,0.436-2.694,0.704-4.035c0.103-0.514-0.659-0.734-0.791-0.217c-0.312,1.223-0.58,2.454-0.836,3.688
		c-0.102,0.013-0.195,0.062-0.244,0.174c-0.242,0.547-0.467,1.102-0.702,1.653c0.101-1.106,0.215-2.181,0.368-3.183
		c0.101-0.655-0.879-0.953-1.013-0.279c-0.204,1.023-0.391,2.05-0.57,3.077c0.01-0.829,0.012-1.656,0.002-2.475
		c-0.005-0.408-0.612-0.404-0.631,0c-0.042,0.906-0.117,1.805-0.207,2.702c-0.165-0.115-0.393-0.117-0.5,0.119
		c-0.224,0.499-0.429,1.002-0.646,1.503c0.122-0.643,0.237-1.287,0.381-1.915c0.1-0.435-0.544-0.614-0.669-0.184
		c-0.204,0.704-0.387,1.417-0.559,2.136c-0.306-0.158-0.729-0.088-0.843,0.345c-0.01,0.041-0.019,0.081-0.03,0.121
		c-0.047,0.024-0.091,0.058-0.119,0.116c-1.945,4.103-3.514,8.5-4.958,12.956c0.039-0.659,0.081-1.314,0.13-1.972
		c0.513-2.282,1.041-4.561,1.749-6.792c0.149-0.47-0.568-0.655-0.73-0.202c-0.062,0.178-0.119,0.354-0.18,0.531
		c-0.234-0.497-1.087-0.594-1.271,0.084c-0.514,1.88-0.795,3.764-1.003,5.656c-0.376,1.029-0.74,2.063-1.091,3.103
		c-0.004-0.594-0.022-1.187-0.073-1.773c0.208-0.695,0.432-1.384,0.693-2.057c0.204-0.522-0.624-0.732-0.831-0.229
		c-0.043,0.105-0.082,0.214-0.125,0.318c-0.324-1.692-0.883-3.306-1.763-4.747c-0.163-0.269-0.623-0.095-0.519,0.219
		c0.719,2.145,1.049,4.459,1.104,6.849c-0.573,1.955-1.234,3.856-1.964,5.719c0.577-2.215,1.058-4.456,1.44-6.705
		c0.118-0.697-0.931-1.006-1.075-0.296c-0.378,1.865-0.849,3.688-1.379,5.483c0.125-0.913,0.246-1.803,0.369-2.639
		c0.103-0.695-0.946-1.011-1.075-0.296c-0.901,4.99-2.029,9.745-3.537,14.379c1.363-5.055,1.841-10.438,2.031-15.621
		c0.024-0.653-0.967-0.643-1.009,0c-0.035,0.541-0.075,1.095-0.118,1.657c-0.017-0.047-0.039-0.091-0.066-0.13
		c0.004-0.045,0.009-0.093,0.014-0.138c0.064-0.628-0.888-0.603-0.967,0c-0.016,0.119-0.038,0.234-0.054,0.352
		c-0.01,0.039-0.027,0.07-0.03,0.112c-0.005,0.072-0.015,0.144-0.021,0.218c-0.261,1.843-0.578,3.676-0.981,5.481
		c0.066-1.251,0.093-2.524,0.063-3.847c-0.017-0.745-1.14-0.745-1.157,0c-0.005,0.243-0.022,0.484-0.031,0.727
		c-0.136,0.03-0.254,0.123-0.29,0.312c-0.343,1.815-0.8,3.603-1.32,5.372c0.408-1.92,0.76-3.857,1.074-5.814
		c0.098-0.617-0.823-0.896-0.953-0.264c-0.387,1.873-0.839,3.718-1.331,5.551c0.031-0.15,0.067-0.3,0.098-0.452
		c0.097-0.487-0.632-0.697-0.75-0.206c-0.625,2.608-1.487,5.139-2.445,7.637c0.496-2.465,0.731-4.962,1.312-7.439
		c0.105-0.446-0.562-0.634-0.689-0.189c-1.815,6.371-3.252,12.941-5.855,19.029c0.66-1.768,1.068-3.674,1.329-5.629
		c1.088-3.572,1.882-7.21,2.333-10.987c0.063-0.529-0.843-0.65-0.929-0.126c-0.23,1.397-0.507,2.818-0.826,4.248
		c0.096-1.437,0.203-2.827,0.375-4.122c0.072-0.541-0.846-0.66-0.95-0.13c-0.706,3.618-0.724,7.268-1.603,10.879
		c-0.154,0.632-0.336,1.243-0.53,1.847c0.567-3.243,0.858-6.59,0.988-9.817c0.035-0.879-1.218-0.885-1.382-0.093
		c-0.289-0.007-0.584,0.179-0.595,0.558c-0.104,3.493-0.775,6.707-1.688,9.825c0.085-1.034,0.151-2.069,0.181-3.108
		c0.017-0.609-0.858-0.576-0.925,0c-0.037,0.322-0.086,0.648-0.128,0.973c-0.314-0.228-0.871-0.093-0.882,0.417
		C8.794,59.99,8.7,62.236,8.56,64.479c-0.018,0.1-0.036,0.201-0.055,0.301c-0.125-2.696-0.649-5.326-1.686-7.621
		c-0.12-0.267-0.489-0.065-0.442,0.186c0.166,0.892,0.284,1.783,0.368,2.674c-0.183-0.081-0.44,0.009-0.451,0.273
		c-0.138,3.691-0.217,7.295-0.555,10.883c-0.078,0.489-0.159,0.981-0.242,1.476c-1.333,3.554-3.379,9.747-3.681,11.032
		c-1.245,5.306-0.96,10.832-0.983,16.24c-0.021,4.756-0.505,9.51-0.525,14.227c-0.008,1.977-0.222,3.992-0.3,5.969
		c-0.091,2.297,0.593,4.361,0.83,6.588c0.385,3.637,1.532,7.23,3.918,10.031c1.029,1.209,2.399,1.719,3.878,2.133
		c3.017,0.842,5.252,2.916,7.061,5.365c2.464,3.338,4.454,7.52,4.604,11.719c0.207,5.77,2.052,11.156,2.758,16.918
		c0.028,0.234,0.415,0.342,0.454,0.062c0.292-2.09,0.558-4.15,0.723-6.258c0.237-3.035-1.111-6.129-1.206-9.162
		c-0.081-2.562-0.255-5.148-0.935-7.605c0.075-3.584-0.621-7.123-0.936-10.627c-0.194-2.162-0.677-4.17-1.32-6.244
		c-0.903-2.908-1.005-5.369-1.353-8.348c-0.562-4.828,0.133-11.781,2.302-16.145c1.333-2.678,4.169-4.523,5.636-7.254
		c1.25-2.326,1.757-4.219,1.991-6.844c0.194-2.163-0.21-4.706-0.673-6.818c-0.613-2.797-3.342-6.89-1.247-9.171
		c2.554-2.78,5.466-5.146,8.801-6.917c4.178-2.221,7.216-0.72,11.441,0.271c11.556,2.708,21.732,8.236,34,7.579
		c12.268,0.657,22.444-4.871,34-7.579c4.225-0.99,7.263-2.491,11.441-0.271c3.334,1.771,6.246,4.137,8.801,6.917
		c2.095,2.281-0.635,6.374-1.247,9.171c-0.464,2.112-0.867,4.655-0.673,6.818c0.234,2.625,0.74,4.518,1.99,6.844
		c1.468,2.73,4.304,4.576,5.637,7.254c2.169,4.363,2.864,11.316,2.302,16.145c-0.348,2.979-0.449,5.439-1.353,8.348
		c-0.643,2.074-1.127,4.082-1.32,6.244c-0.314,3.504-1.01,7.043-0.936,10.627c-0.68,2.457-0.854,5.043-0.934,7.605
		c-0.096,3.033-1.443,6.127-1.207,9.162c0.165,2.107,0.432,4.168,0.723,6.258c0.04,0.279,0.426,0.172,0.455-0.062
		c0.705-5.762,2.551-11.148,2.758-16.918c0.15-4.199,2.14-8.381,4.604-11.719c1.809-2.449,4.045-4.523,7.062-5.365
		c1.479-0.414,2.849-0.924,3.878-2.133c2.387-2.801,3.533-6.395,3.918-10.031C160.871,124.479,161.555,122.414,161.465,120.117z
		 M22.373,54.055c-0.09,0.179-0.19,0.354-0.283,0.533c0.59-1.469,1.101-2.987,1.548-4.512C23.274,51.42,22.855,52.749,22.373,54.055
		z M33.927,49.971c0.032-0.117,0.06-0.234,0.091-0.352c0.692-1.644,1.268-3.343,1.819-4.829
		C35.358,46.58,34.728,48.302,33.927,49.971z M41.627,32.043c-0.099,0.261-0.2,0.52-0.299,0.781
		c0.309-1.207,0.617-2.415,0.947-3.613C42.061,30.156,41.846,31.1,41.627,32.043z M45.05,29.928
		c-0.304,0.768-0.614,1.531-0.923,2.295c0.243-2.021,0.47-4.062,0.747-6.079c0.508-1.359,1.042-2.709,1.6-4.048
		C46.149,24.734,45.658,27.34,45.05,29.928z M48.445,23.852c0.162-0.445,0.337-0.883,0.503-1.326
		c-0.208,1.068-0.416,2.138-0.636,3.204C48.357,25.098,48.4,24.472,48.445,23.852z M49.616,30.95
		c-0.531,1.699-1.086,3.396-1.636,5.092c-0.114,0.201-0.23,0.404-0.347,0.607c0.311-1.342,0.563-2.675,0.804-3.91
		c0.904-3.137,1.624-6.337,2.509-9.48C50.604,25.811,50.202,28.426,49.616,30.95z M55.884,25.017
		c-0.145,0.322-0.277,0.648-0.425,0.971c-0.179,0.388-0.364,0.776-0.553,1.165c0.594-2.308,0.975-4.643,1.211-7.003
		c0.529-1.575,1.052-3.148,1.575-4.716C57.369,18.667,56.745,21.873,55.884,25.017z M61.373,15.783
		c0.646-1.975,1.31-3.942,2.044-5.889c-0.276,1.126-0.549,2.251-0.824,3.376c-0.531,1.596-1.045,3.197-1.578,4.792
		C61.148,17.305,61.267,16.544,61.373,15.783z M62.427,23.653c-0.92,2.537-1.947,5.029-3.109,7.465
		c0.412-1.26,0.811-2.512,1.224-3.725c1.104-3.239,1.883-6.493,2.551-9.768c0.729-2.707,1.41-5.428,2.311-8.091
		c-0.61,3.557-1.104,7.129-1.85,10.668C63.203,21.365,62.837,22.519,62.427,23.653z M67.397,13.683
		c-0.61,2.327-1.274,4.636-2.006,6.93c0.664-2.738,1.279-5.484,2.087-8.161C67.449,12.864,67.433,13.27,67.397,13.683z
		 M70.705,21.11c-0.688,2.204-1.611,4.319-2.557,6.424c0.127-0.374,0.25-0.726,0.364-1.023c1.096-2.84,2.136-5.705,3.086-8.6
		C71.324,18.982,71.035,20.048,70.705,21.11z M90.768,21.11c-0.33-1.062-0.619-2.128-0.893-3.199c0.95,2.895,1.99,5.76,3.086,8.6
		c0.115,0.298,0.237,0.649,0.364,1.023C92.379,25.429,91.455,23.314,90.768,21.11z M100.1,15.783
		c0.105,0.762,0.225,1.522,0.358,2.279c-0.533-1.595-1.047-3.196-1.578-4.792c-0.274-1.125-0.548-2.25-0.824-3.376
		C98.789,11.84,99.454,13.808,100.1,15.783z M94.075,13.683c-0.035-0.413-0.052-0.819-0.081-1.231
		c0.809,2.677,1.424,5.423,2.088,8.161C95.35,18.319,94.686,16.01,94.075,13.683z M99.046,23.653
		c-0.411-1.134-0.775-2.288-1.127-3.45c-0.745-3.539-1.239-7.111-1.85-10.668c0.901,2.663,1.582,5.384,2.311,8.091
		c0.667,3.274,1.446,6.528,2.551,9.768c0.413,1.213,0.812,2.465,1.224,3.725C100.994,28.682,99.966,26.19,99.046,23.653z
		 M106.014,25.988c-0.148-0.322-0.28-0.648-0.425-0.971c-0.86-3.145-1.485-6.351-1.808-9.583c0.522,1.567,1.046,3.141,1.574,4.716
		c0.236,2.36,0.617,4.695,1.211,7.003C106.377,26.764,106.193,26.375,106.014,25.988z M113.027,23.852
		c0.045,0.62,0.088,1.246,0.134,1.878c-0.22-1.066-0.429-2.136-0.636-3.204C112.69,22.969,112.865,23.407,113.027,23.852z
		 M113.492,36.042c-0.549-1.696-1.104-3.393-1.635-5.092c-0.587-2.523-0.988-5.139-1.331-7.691c0.886,3.144,1.604,6.344,2.509,9.48
		c0.24,1.235,0.493,2.568,0.805,3.91C113.723,36.446,113.607,36.243,113.492,36.042z M116.422,29.928
		c-0.607-2.588-1.098-5.194-1.424-7.832c0.558,1.339,1.092,2.688,1.601,4.048c0.276,2.017,0.504,4.058,0.747,6.079
		C117.037,31.459,116.727,30.696,116.422,29.928z M119.846,32.043c-0.219-0.943-0.434-1.888-0.647-2.832
		c0.329,1.198,0.638,2.406,0.946,3.613C120.046,32.563,119.945,32.304,119.846,32.043z M125.636,44.791
		c0.552,1.486,1.128,3.186,1.819,4.829c0.031,0.117,0.059,0.234,0.091,0.352C126.744,48.302,126.114,46.58,125.636,44.791z
		 M139.1,54.055c-0.482-1.307-0.9-2.635-1.264-3.979c0.447,1.524,0.958,3.043,1.547,4.512C139.291,54.41,139.19,54.234,139.1,54.055
		z M61.559,183.217c0.167-0.129,0.329-0.248,0.499-0.383C61.373,183.383,61.319,183.416,61.559,183.217z M77.672,164.953
		c0,0-0.156,0.207-0.45,0.594c-0.144,0.195-0.325,0.412-0.532,0.658c-0.208,0.248-0.44,0.555-0.702,0.844
		c-1.043,1.215-2.472,2.723-4.094,4.17c-0.812,0.725-1.667,1.451-2.568,2.119c-0.893,0.688-1.829,1.314-2.861,1.777
		c-1.042,0.453-2.188,0.746-3.407,1.049c-0.583,0.178-1.218,0.326-1.785,0.566c-0.601,0.203-1.159,0.479-1.693,0.785
		c-1.093,0.596-2.081,1.322-3.093,2.043c-0.951,0.771-1.917,1.555-2.762,2.422c-0.879,0.846-1.647,1.764-2.37,2.676
		c-0.339,0.467-0.704,0.918-1.01,1.383c-0.299,0.477-0.589,0.936-0.866,1.377c-0.497,0.918-1.026,1.773-1.385,2.576
		c-0.348,0.805-0.726,1.512-0.95,2.119c-0.488,1.225-0.767,1.926-0.767,1.926l-0.015,0.037c-0.151,0.379-0.582,0.564-0.962,0.414
		c-0.246-0.098-0.41-0.312-0.455-0.557c0,0-0.138-0.764-0.329-2.148c-0.125-0.695-0.13-1.537-0.188-2.523
		c-0.038-0.494-0.019-1.018-0.005-1.576c0.02-0.557,0.01-1.156,0.081-1.768c0.076-0.621,0.155-1.266,0.237-1.934
		c0.097-0.668,0.258-1.352,0.398-2.072c0.314-1.428,0.793-2.914,1.401-4.436c0.624-1.512,1.411-3.031,2.345-4.51
		c0.954-1.455,2.042-2.877,3.243-4.188c1.183-1.34,2.404-2.654,3.659-3.949c1.272-1.246,2.626-2.406,4.111-3.152
		c1.471-0.783,3.039-1.18,4.539-1.406c1.501-0.223,2.949-0.25,4.289-0.133c2.677,0.207,4.917,1.016,6.446,1.809
		c0.771,0.414,1.36,0.785,1.766,1.09c0.199,0.152,0.358,0.26,0.463,0.352c0.101,0.09,0.152,0.135,0.152,0.135
		c0.407,0.363,0.462,0.973,0.14,1.4L77.672,164.953z M83.775,164.922c-0.321-0.428-0.266-1.037,0.141-1.4
		c0,0,0.053-0.045,0.152-0.135c0.105-0.092,0.265-0.199,0.463-0.352c0.406-0.305,0.995-0.676,1.766-1.09
		c1.529-0.793,3.77-1.602,6.447-1.809c1.339-0.117,2.787-0.09,4.289,0.133c1.499,0.227,3.066,0.623,4.537,1.406
		c1.485,0.746,2.84,1.906,4.111,3.152c1.255,1.295,2.477,2.609,3.659,3.949c1.201,1.311,2.289,2.732,3.243,4.188
		c0.934,1.479,1.722,2.998,2.345,4.51c0.608,1.521,1.087,3.008,1.401,4.436c0.141,0.721,0.302,1.404,0.398,2.072
		c0.082,0.668,0.16,1.312,0.236,1.934c0.07,0.611,0.062,1.211,0.081,1.768c0.015,0.559,0.034,1.082-0.005,1.576
		c-0.058,0.986-0.062,1.828-0.188,2.523c-0.191,1.385-0.329,2.148-0.329,2.148c-0.044,0.244-0.209,0.459-0.454,0.557
		c-0.381,0.15-0.812-0.035-0.963-0.414l-0.015-0.037c0,0-0.278-0.701-0.767-1.926c-0.224-0.607-0.602-1.314-0.949-2.119
		c-0.359-0.803-0.888-1.658-1.385-2.576c-0.277-0.441-0.566-0.9-0.867-1.377c-0.305-0.465-0.67-0.916-1.01-1.383
		c-0.723-0.912-1.49-1.83-2.369-2.676c-0.846-0.867-1.811-1.65-2.762-2.422c-1.012-0.721-2-1.447-3.093-2.043
		c-0.534-0.307-1.093-0.582-1.693-0.785c-0.566-0.24-1.202-0.389-1.784-0.566c-1.219-0.303-2.366-0.596-3.408-1.049
		c-1.031-0.463-1.967-1.09-2.86-1.777c-0.901-0.668-1.756-1.395-2.567-2.119c-1.622-1.447-3.051-2.955-4.094-4.17
		c-0.262-0.289-0.494-0.596-0.702-0.844c-0.208-0.246-0.389-0.463-0.532-0.658c-0.293-0.387-0.449-0.594-0.449-0.594L83.775,164.922
		z"/>
</g>
<g id="Layer_1">
</g>
</svg>
