<?xml version="1.0" encoding="iso-8859-1"?>
<!-- Generator: Adobe Illustrator 16.0.0, SVG Export Plug-In . SVG Version: 6.00 Build 0)  -->
<!DOCTYPE svg PUBLIC "-//W3C//DTD SVG 1.1//EN" "http://www.w3.org/Graphics/SVG/1.1/DTD/svg11.dtd">
<svg version="1.1" xmlns="http://www.w3.org/2000/svg" xmlns:xlink="http://www.w3.org/1999/xlink" x="0px" y="0px"
	 width="157.525px" height="189.802px" viewBox="0 0 157.525 189.802" style="enable-background:new 0 0 157.525 189.802;"
	 xml:space="preserve">
<g id="Layer_5">
	<linearGradient id="SVGID_1_" gradientUnits="userSpaceOnUse" x1="78.7632" y1="189.8018" x2="78.7632" y2="4.882812e-04">
		<stop  offset="0" style="stop-color:#000000"/>
		<stop  offset="1" style="stop-color:#4D4D4D"/>
	</linearGradient>
	<path style="fill:url(#SVGID_1_);" d="M137.722,41.933c0,0,6.934,24.536,5.588,48.914c-0.729,2.34-2.747,4.539-3.254,6.971
		c-0.446,2.14-1.73,4.494-1.788,6.67c-0.101,3.75-0.986,7.555-0.758,11.349c-0.003,0.341-0.008,0.682-0.023,1.018
		c-0.176,0.821-0.321,1.648-0.489,2.471c-0.108,0.254-0.232,0.504-0.393,0.75c-0.199,0.301-0.183,0.678-0.037,0.995
		c-0.04,0.136-0.071,0.274-0.115,0.411c-0.161,0.496-0.329,0.992-0.49,1.489c0,0.002,0,0.002,0,0.002
		c-0.661,1.489-1.354,2.961-2.009,4.45c-0.047,0.064-0.096,0.131-0.122,0.179c-0.489,0.841-0.972,1.688-1.467,2.524
		c-1.308,2.21-2.847,4.033-4.724,5.78c-0.019,0.018-0.04,0.037-0.06,0.055c-0.129,0.078-0.255,0.155-0.373,0.23
		c-1.753,1.111-3.411,2.453-5.021,3.762c-0.107,0.088-0.225,0.186-0.35,0.291c-1.264,0.284-2.51,0.598-3.706,0.876
		c-0.141,0.033-0.293,0.058-0.438,0.088c-0.511,0.026-1.024,0.045-1.543,0.045c-3.197-0.007-5.92,0.07-9.087-0.446
		c-0.286-0.047-0.567-0.049-0.835-0.009c-2.269-0.419-4.508-0.854-6.763-1.384c-0.434-0.102-0.84-0.068-1.207,0.069
		c-0.016-0.005-0.033-0.014-0.05-0.019c-0.903-0.309-1.954-0.622-2.971-0.792c-0.563-0.205-1.129-0.408-1.7-0.591
		c-0.048-0.022-0.099-0.047-0.145-0.068c-1.835-0.869-3.812-1.549-5.831-1.959c-2.95-1.09-5.767-2.015-8.801-1.256
		c-3.034-0.759-5.851,0.166-8.801,1.256c-2.02,0.41-3.996,1.09-5.83,1.959c-0.047,0.021-0.098,0.046-0.146,0.068
		c-0.571,0.183-1.137,0.386-1.7,0.591c-1.017,0.17-2.067,0.483-2.971,0.792c-0.017,0.005-0.033,0.014-0.05,0.019
		c-0.366-0.138-0.773-0.171-1.207-0.069c-2.255,0.53-4.494,0.965-6.763,1.384c-0.268-0.04-0.549-0.038-0.835,0.009
		c-3.167,0.517-5.89,0.439-9.087,0.446c-0.519,0-1.032-0.019-1.542-0.045c-0.145-0.03-0.298-0.055-0.438-0.088
		c-1.196-0.278-2.442-0.592-3.706-0.876c-0.125-0.105-0.242-0.203-0.349-0.291c-1.61-1.309-3.268-2.65-5.021-3.762
		c-0.118-0.075-0.244-0.152-0.373-0.23c-0.02-0.018-0.041-0.037-0.06-0.055c-1.877-1.747-3.416-3.57-4.724-5.78
		c-0.495-0.837-0.978-1.684-1.467-2.524c-0.026-0.048-0.075-0.114-0.122-0.179c-0.655-1.489-1.348-2.961-2.009-4.45c0,0,0,0,0-0.002
		c-0.161-0.497-0.329-0.993-0.49-1.489c-0.044-0.137-0.075-0.275-0.115-0.411c0.146-0.317,0.162-0.694-0.037-0.995
		c-0.16-0.246-0.284-0.496-0.393-0.75c-0.168-0.822-0.313-1.649-0.489-2.471c-0.027-0.604-0.021-1.218-0.031-1.833
		c-0.02-1.121,0.083-2.363-0.322-3.42c-0.066-0.173-0.137-0.299-0.205-0.413c-0.001-0.126-0.011-0.258-0.047-0.397
		c-0.074-0.289-0.174-0.571-0.285-0.852c0.138-0.291,0.17-0.64,0.026-1.032c-0.15-0.41-0.323-0.797-0.505-1.178
		c0.04-0.19,0.042-0.4-0.017-0.634c-0.201-0.797-0.599-1.426-1.056-2.005c-0.652-0.996-1.411-1.942-2.086-2.924
		c-4.977-27.432,4.292-60.233,4.292-60.233c-31.479,0-17.359,58.655-11.804,61.149c1.005,0.452,1.985,1.085,2.926,1.804
		c0.436,0.9,1.002,1.781,1.512,2.604c0.437,2.197,1.44,4.43,2.263,6.597c0.005,0.388,0.005,0.774,0.012,1.162
		c-0.203,0.427-0.394,0.85-0.554,1.249c-0.442,1.104-0.598,2.249-0.309,3.308c-0.24,0.677-0.424,1.356-0.515,2.123
		c-0.222,1.84-0.773,3.717,1.024,4.484c-0.02,1.168,0.095,2.359,0.129,3.478c0.055,1.778-0.202,2.946,1.178,3.967
		c0.16,0.607,0.33,1.212,0.496,1.801c0.975,3.473,0.459,7.236,1.738,10.584c0.154,0.404,0.585,0.473,0.856,0.234
		c0.028,1.217,0.104,2.429,0.461,3.6c0.159,0.525,0.717,0.722,1.191,0.484l0.461-0.229c0.32-0.159,0.336-0.641,0.079-0.865
		c0.061-0.238,0.098-0.485,0.146-0.729c0.862,2.057,1.479,4.179,1.706,6.418c0.101,0.993,0.006,1.938,0.929,2.417
		c0.032,0.018,0.062,0.011,0.093,0.02c0.088,0.646,0.288,1.281,0.733,1.915c0.487,0.694,1.564,0.112,1.196-0.642
		c0.196,0.359,0.391,0.714,0.581,1.062c0.118,1.115,0.162,2.238,0.482,3.274c0.154,0.501,0.265,0.651,0.766,0.811
		c0.167,0.053,0.342-0.009,0.471-0.12c0.647,1.743,1.699,3.982,3.315,3.698c0.036-0.007,0.056-0.031,0.083-0.049
		c0.603,1.265,1.287,2.437,1.913,3.396c0.164,0.261,0.333,0.519,0.517,0.762c0.011,0.014,0.021,0.031,0.031,0.046
		c0.006,0.007,0.014,0.012,0.02,0.021c0.625,0.818,1.317,1.577,1.871,2.488c0.207,0.342,0.561,0.293,0.753,0.073
		c0.533,1.127,1.074,2.243,1.728,3.276c0.129,0.443,0.353,0.823,0.782,1.12c0.533,0.678,1.141,1.3,1.867,1.834
		c0.364,0.269,0.801-0.172,0.711-0.547c-0.069-0.283-0.15-0.565-0.23-0.848c1.296,1.723,2.782,3.241,4.66,3.534
		c0.169,0.026,0.342-0.178,0.184-0.315c-0.325-0.289-0.547-0.717-0.737-1.18c0.97,0.849,2.008,1.605,3.135,2.211
		c0.422,0.304,0.852,0.589,1.285,0.855c0.138,0.183,0.267,0.368,0.418,0.545c0.168,0.198,0.409,0.17,0.578,0.038
		c0.105,0.059,0.213,0.121,0.318,0.179c0.448,0.799,1.058,1.454,1.996,1.405c0.548-0.027,0.767-0.741,0.28-1.037
		c-0.452-0.276-0.85-1.165-1.233-2.288c0.134,0.11,0.266,0.218,0.396,0.32c0.102,0.242,0.207,0.484,0.327,0.719
		c0.153,0.296,0.524,0.284,0.75,0.115c3.021,2.299,6.947,5.013,10.76,4.857c0.313-0.015,0.366-0.438,0.073-0.538
		c-1.628-0.549-3.336-1.514-4.949-2.625c0.077,0.018,0.155,0.041,0.233,0.058c0.012,0.002,0.022-0.001,0.034,0
		c1.087,0.672,2.374,0.889,4.079,0.293c0.233-0.08,0.227-0.382,0-0.466c-0.463-0.17-0.871-0.379-1.255-0.604
		c-0.027-0.03-0.054-0.062-0.082-0.091c0.438,0.173,0.889,0.316,1.346,0.444c1.472,1.39,3.146,2.565,4.677,2.499
		c0.171-0.008,0.307-0.121,0.378-0.263c0.214-0.118,0.329-0.414,0.117-0.663c-0.228-0.27-0.439-0.552-0.657-0.826
		c0.456,0.104,0.903,0.195,1.328,0.272c0.293,0.398,0.601,0.782,0.955,1.129c0.047,0.1,0.091,0.201,0.144,0.298
		c0.084,0.157,0.235,0.196,0.372,0.161c0.26,0.214,0.532,0.419,0.835,0.604c0.187,0.113,0.336-0.132,0.218-0.28
		c-0.113-0.143-0.209-0.296-0.309-0.447c0.053-0.095,0.074-0.212,0.044-0.345c-0.102-0.447-0.112-0.946-0.095-1.46
		c0.033-0.029,0.059-0.066,0.089-0.1c0.051,0.201,0.098,0.406,0.165,0.601c0.069,0.205,0.291,0.289,0.479,0.262
		c0.012,0.142,0.021,0.28,0.036,0.428c0.079,0.839,1.224,0.839,1.304,0c0.003-0.037,0.011-0.074,0.017-0.11
		c0.041,0.075,0.075,0.155,0.119,0.229c0.052,0.085,0.164,0.14,0.264,0.106c0.202-0.068,0.222-0.114,0.317-0.317
		c0.028-0.06,0.028-0.113,0.013-0.163c0.227,0.298,0.452,0.596,0.689,0.884c0.048,0.34,0.098,0.678,0.162,1.014
		c0.174,0.926,1.695,0.931,1.867,0c0.026-0.145,0.044-0.289,0.063-0.433c0.611,0.591,1.684,0.522,2.319-0.047
		c0.021,0.159,0.04,0.317,0.07,0.479c0.172,0.931,1.693,0.926,1.867,0c0.064-0.336,0.114-0.674,0.162-1.014
		c0.237-0.288,0.463-0.586,0.689-0.884c-0.016,0.05-0.016,0.104,0.013,0.163c0.097,0.203,0.115,0.249,0.317,0.317
		c0.1,0.033,0.212-0.021,0.265-0.106c0.043-0.074,0.077-0.154,0.119-0.229c0.005,0.036,0.013,0.073,0.017,0.11
		c0.079,0.839,1.224,0.839,1.303,0c0.015-0.147,0.024-0.286,0.036-0.428c0.188,0.027,0.409-0.057,0.479-0.262
		c0.067-0.194,0.114-0.399,0.166-0.601c0.029,0.033,0.055,0.07,0.088,0.1c0.018,0.514,0.007,1.013-0.095,1.46
		c-0.03,0.133-0.009,0.25,0.044,0.345c-0.1,0.151-0.195,0.305-0.309,0.447c-0.118,0.148,0.031,0.394,0.218,0.28
		c0.303-0.186,0.575-0.391,0.836-0.604c0.136,0.035,0.287-0.004,0.371-0.161c0.053-0.097,0.097-0.198,0.144-0.298
		c0.354-0.347,0.662-0.73,0.955-1.129c0.425-0.077,0.872-0.168,1.329-0.272c-0.219,0.274-0.431,0.557-0.658,0.826
		c-0.212,0.249-0.097,0.545,0.117,0.663c0.071,0.142,0.207,0.255,0.378,0.263c1.53,0.066,3.205-1.109,4.677-2.499
		c0.457-0.128,0.907-0.271,1.346-0.444c-0.028,0.029-0.055,0.061-0.081,0.091c-0.385,0.226-0.793,0.435-1.256,0.604
		c-0.226,0.084-0.233,0.386,0,0.466c1.705,0.596,2.992,0.379,4.079-0.293c0.012-0.001,0.022,0.002,0.035,0
		c0.077-0.017,0.155-0.04,0.232-0.058c-1.613,1.111-3.321,2.076-4.949,2.625c-0.293,0.1-0.24,0.523,0.073,0.538
		c3.812,0.155,7.739-2.559,10.76-4.857c0.226,0.169,0.598,0.181,0.75-0.115c0.12-0.234,0.226-0.477,0.327-0.719
		c0.13-0.103,0.262-0.21,0.396-0.32c-0.385,1.123-0.782,2.012-1.233,2.288c-0.487,0.296-0.269,1.01,0.28,1.037
		c0.938,0.049,1.547-0.606,1.995-1.405c0.105-0.058,0.213-0.12,0.319-0.179c0.168,0.132,0.409,0.16,0.578-0.038
		c0.15-0.177,0.279-0.362,0.417-0.545c0.434-0.267,0.863-0.552,1.285-0.855c1.127-0.605,2.165-1.362,3.135-2.211
		c-0.19,0.463-0.412,0.891-0.737,1.18c-0.158,0.138,0.015,0.342,0.184,0.315c1.878-0.293,3.364-1.812,4.66-3.534
		c-0.08,0.282-0.161,0.564-0.229,0.848c-0.091,0.375,0.346,0.815,0.71,0.547c0.727-0.534,1.334-1.156,1.868-1.834
		c0.429-0.297,0.652-0.677,0.781-1.12c0.653-1.033,1.194-2.149,1.728-3.276c0.192,0.22,0.546,0.269,0.753-0.073
		c0.554-0.911,1.246-1.67,1.871-2.488c0.006-0.009,0.015-0.014,0.02-0.021c0.011-0.015,0.021-0.032,0.031-0.046
		c0.185-0.243,0.353-0.501,0.518-0.762c0.625-0.959,1.31-2.131,1.913-3.396c0.026,0.018,0.046,0.042,0.082,0.049
		c1.616,0.284,2.668-1.955,3.315-3.698c0.129,0.111,0.305,0.173,0.471,0.12c0.501-0.159,0.611-0.31,0.766-0.811
		c0.32-1.036,0.364-2.159,0.482-3.274c0.19-0.349,0.385-0.703,0.581-1.062c-0.368,0.754,0.709,1.336,1.196,0.642
		c0.445-0.634,0.646-1.269,0.733-1.915c0.032-0.009,0.061-0.002,0.093-0.02c0.923-0.479,0.828-1.424,0.929-2.417
		c0.227-2.239,0.844-4.361,1.706-6.418c0.049,0.243,0.086,0.49,0.146,0.729c-0.257,0.225-0.241,0.706,0.079,0.865l0.461,0.229
		c0.475,0.237,1.032,0.041,1.191-0.484c0.357-1.171,0.433-2.383,0.461-3.6c0.271,0.238,0.702,0.17,0.856-0.234
		c1.279-3.348,0.764-7.111,1.738-10.584c0.166-0.589,0.336-1.193,0.496-1.801c1.38-1.021,1.123-2.188,1.178-3.967
		c0.034-1.118,0.148-2.31,0.129-3.478c1.798-0.768,1.246-2.645,1.025-4.484c-0.092-0.767-0.275-1.446-0.516-2.123
		c0.289-1.059,0.134-2.204-0.309-3.308c-0.126-0.315-0.267-0.642-0.419-0.975c0.445-3.094,0.741-6.032,1.687-8.963
		c1.484-1.405,3.155-2.698,4.891-3.479C155.082,100.588,169.201,41.933,137.722,41.933z M82.689,185.405
		c-0.114,0.163-0.229,0.324-0.339,0.489c0.109-0.561,0.251-1.112,0.463-1.647c0.013,0.059,0.025,0.114,0.038,0.172
		C82.768,184.756,82.71,185.085,82.689,185.405z M92.953,151.912c-1.062,0.316-1.965,0.571-2.776,1.228
		c-1.393-0.229-2.906-0.217-4.224-0.247c-0.536-0.01-1.07-0.064-1.588-0.066c-1.184-0.07-2.399-0.012-3.288,0.575
		c-0.657-0.065-1.443,0.36-1.887,0.727c-0.157,0.13-0.302,0.304-0.428,0.501c-0.126-0.197-0.271-0.371-0.428-0.501
		c-0.443-0.366-1.229-0.792-1.887-0.727c-0.889-0.587-2.104-0.646-3.288-0.575c-0.518,0.002-1.052,0.057-1.588,0.066
		c-1.317,0.03-2.831,0.018-4.224,0.247c-0.812-0.656-1.714-0.911-2.776-1.228c-0.619-0.185-1.333-0.377-2.072-0.522
		c0.316-0.293,0.639-0.578,0.979-0.856c0.219,0.301,0.748,0.417,0.929-0.002c0.028-0.064,0.095-0.135,0.176-0.207
		c0.178,0.126,0.431,0.132,0.63,0.03c0.021-0.009,0.039-0.023,0.059-0.033c0.21,0.005,0.433-0.116,0.505-0.335
		c0.025-0.075,0.066-0.144,0.1-0.216c0.087-0.044,0.164-0.106,0.195-0.208c0.021-0.068,1.425-0.743,1.378-0.715
		c0.282-0.165,0.576-0.309,0.867-0.459c0.026,0.02,0.042,0.044,0.069,0.062c0.153,0.096,0.337-0.062,0.294-0.227
		c-0.003-0.009,0.001-0.018-0.001-0.028c0.271-0.135,0.546-0.266,0.818-0.399c-0.65,0.961-0.897,1.891,0.309,2.109
		c0.156,0.028,0.322-0.067,0.318-0.243c-0.003-0.216,3.408-2.067,5.219-2.983c-0.183,0.592-0.23,1.196-0.021,1.732
		c0.158,0.397,0.675,0.517,0.924,0.121c0.27-0.431,0.667-0.772,1.04-1.128c0.317-0.07,0.604-0.258,0.805-0.562
		c0.159-0.247,0.405-0.493,0.671-0.736c0.266,0.243,0.512,0.489,0.671,0.736c0.2,0.305,0.487,0.492,0.805,0.562
		c0.373,0.355,0.771,0.697,1.04,1.128c0.249,0.396,0.766,0.276,0.924-0.121c0.21-0.536,0.162-1.141-0.021-1.732
		c1.811,0.916,5.223,2.768,5.219,2.983c-0.004,0.176,0.162,0.271,0.318,0.243c1.206-0.219,0.959-1.148,0.309-2.109
		c0.272,0.134,0.547,0.265,0.818,0.399c-0.002,0.011,0.002,0.02-0.001,0.028c-0.043,0.165,0.142,0.322,0.294,0.227
		c0.027-0.018,0.043-0.042,0.069-0.062c0.291,0.15,0.585,0.294,0.868,0.459c-0.048-0.028,1.355,0.646,1.377,0.715
		c0.031,0.102,0.108,0.164,0.196,0.208c0.032,0.072,0.073,0.141,0.099,0.216c0.072,0.219,0.295,0.34,0.505,0.335
		c0.02,0.01,0.037,0.024,0.059,0.033c0.199,0.102,0.452,0.096,0.631-0.03c0.08,0.072,0.146,0.143,0.175,0.207
		c0.181,0.419,0.71,0.303,0.929,0.002c0.341,0.278,0.663,0.563,0.979,0.856C94.286,151.535,93.572,151.728,92.953,151.912z
		 M42.424,21.216c0,0-10.188-21.216,36.339-21.216s36.339,21.216,36.339,21.216s-2.495-6.24-13.228,2.995
		c-10.733,9.234-23.111,7.987-23.111,7.987s-12.378,1.247-23.111-7.987C44.92,14.976,42.424,21.216,42.424,21.216z"/>
</g>
<g id="Layer_1">
</g>
</svg>
