<?xml version="1.0" encoding="iso-8859-1"?>
<!-- Generator: Adobe Illustrator 16.0.0, SVG Export Plug-In . SVG Version: 6.00 Build 0)  -->
<!DOCTYPE svg PUBLIC "-//W3C//DTD SVG 1.1//EN" "http://www.w3.org/Graphics/SVG/1.1/DTD/svg11.dtd">
<svg version="1.1" xmlns="http://www.w3.org/2000/svg" xmlns:xlink="http://www.w3.org/1999/xlink" x="0px" y="0px"
	 width="160.552px" height="201.821px" viewBox="0 0 160.552 201.821" style="enable-background:new 0 0 160.552 201.821;"
	 xml:space="preserve">
<g id="Layer_9">
	<linearGradient id="SVGID_1_" gradientUnits="userSpaceOnUse" x1="80.2759" y1="201.8223" x2="80.2759" y2="4.882812e-04">
		<stop  offset="0" style="stop-color:#000000"/>
		<stop  offset="1" style="stop-color:#4D4D4D"/>
	</linearGradient>
	<path style="fill:url(#SVGID_1_);" d="M160.191,53.995c-0.103-1.948-1.066-4.699-1.749-6.5
		c-2.585-6.817-5.693-13.262-10.561-18.822c-2.046-2.337-5.352-4.596-8.074-6.012c-0.872-0.454-1.842-0.93-2.856-1.379
		c1.612,0.28,3.21,0.688,4.865,1.269c2.725,0.956,8.503,4.143,8.52,4.435c-0.157-2.691-2.562-5.975-2.991-6.423
		c-3.548-3.704-7.285-6.883-11.783-9.48c-3.504-2.024-8.002-2.377-12.071-1.965c1.461-4.964,11.914-5.641,11.711-5.667
		c-5.614-5.423-17.785-3.345-24.422-1.227c-3.522,1.124-7.636,2.657-10.897,4.972c-1.296-0.598-2.59-1.198-3.979-1.604
		c-3.438-1.006-6.238-1.488-9.793-1.784c-7.201-0.6-15.148,0.69-22.148,2.278c-3.829,0.87-8.229,1.742-11.775,3.484
		c-4.203,2.063-8.086,4.603-12.373,6.533c-4.091,1.841-7.975,4.048-12.098,5.838c-3.976,1.726-12.215,6.895-11.365,6.643
		c2.032-0.602,4.138-1.025,6.233-1.56c-1.144,0.966-2.147,2.012-2.928,3.11c-2.3,3.248-4.834,6.439-7.917,8.956
		c-1.962,1.601-3.965,3.084-6.08,4.471c-1.388,0.91-6.264,4.684-5.175,4.359c3.109-0.929,8.016-2.403,10.617-4.223
		c-0.983,1.546-1.948,3.092-2.994,4.481c-4.056,5.383-7.536,14.317-7.434,21.058C0.698,70.801-0.025,72.328,0,74.021
		c0.025,1.754,0.054,3.485,0.225,5.232c0.371,3.802,1.318,7.262,1.981,11.054c0.909,5.201,4.261,9.996,7.954,13.714
		c0.085,0.104,0.163,0.215,0.256,0.31c0.068,0.07,0.147,0.123,0.229,0.167c0.099,0.096,0.196,0.194,0.295,0.289
		c0.75,0.717-0.048-7.463-0.112-8.729c-0.189-3.635,0.37-7.147,1.876-10.464C15.403,79.656,20,75.213,25.32,71.577
		c5.064-3.462,9.212-7.594,13.534-11.925c0.369-0.369,0.733-0.738,1.099-1.108c-1.452,2.282-2.753,4.683-4.049,7.019
		c-2.317,4.178-9.521,10.93-9.437,11.083c0.161,0.293,2.544-0.827,3.179-1.128c0.623-0.294,1.205-0.622,1.774-0.965
		c0.194-0.058,0.378-0.112,0.542-0.161c1.008-0.3,2.181-1.532,3.266-2.019c2.648-1.189,5.358-4.174,7.723-5.917
		c3.46-2.552,7.99-3.875,11.581-6.374c2.013-1.4,3.985-2.793,5.929-4.212c-0.121,0.206-0.241,0.413-0.361,0.619
		c-0.905,1.561-2.204,2.298-3.351,3.621c-1.199,1.383-5.68,7.189-5.386,7.272c2.545,0.718,7.147-1.241,9.556-2.007
		c4.776-1.52,9.168-3.927,13.32-6.69c-1.348,1.366-3.43,2.96-3.988,4.461c-0.28,0.373-0.592,0.719-0.938,1.034
		c-0.042,0.038-0.065,0.068-0.103,0.104c-0.133,0.034-1.357,2.342-0.076,2.462c4.78,0.453,10.375-2.223,15.092-4.377
		c-0.295,0.311-0.589,0.625-0.883,0.925c-1.67,1.708-3.333,3.421-5.009,5.125c-1.567,1.595-5.067,6.479-3.96,6.133
		c0.214-0.067,0.41-0.159,0.619-0.234c7.875-0.87,14.779-5.486,20.572-10.617c2.419-2.144,4.832-4.292,7.238-6.45
		c-0.021,0.039-0.042,0.077-0.062,0.115c-2.668,4.82-6.117,8.585-9.726,12.674c-0.208,0.009-0.411,0.103-0.498,0.292
		c-0.013,0.03-0.026,0.059-0.04,0.088c-0.138,0.3-0.112,0.738,0.235,0.898c2.188,1.014,4.554-0.785,6.451-1.832
		c4.075-2.249,7.641-5.196,11.025-8.366c2.626-2.459,5.072-5.217,7.34-8.054c-0.381,0.79-0.757,1.549-1.142,2.243
		c-1.523,2.742-7.03,9.038-6.822,10.439c0.01-0.007,0.02-0.015,0.028-0.022c0.166,0.57,11.386-5.198,14.295-7.812
		c3.014-2.708,6.711-5.73,9.698-9.155c-2.334,3.883-3.996,8.309-4.756,12.602c-0.604,3.407-1.064,6.825-1.71,10.227
		c-0.358,1.891-1.108,4.068-0.274,5.889c0.1,0.221,4.473-3.052,5.254-4.022c0.428-0.528,0.843-1.067,1.255-1.609
		c-0.597,4.234-1.452,8.387-2.157,12.718c-0.651,4-1.734,7.839-3.54,11.481c-0.979,1.977-3.505,6.883-3.029,6.794
		c3.68-0.679,7.809-3.905,10.548-7.237c-0.407,1.639-0.884,3.271-1.406,4.927c-1.285,4.079-2.479,8.177-3.968,12.188
		c-0.844,2.275-1.676,4.608-2.928,6.69c-0.686,1.137-0.691,3.367-0.227,2.912c2.343-2.288,3.74-3.787,5.117-6.955
		c1.78-4.095,3.227-8.295,4.684-12.514c0.134-0.388,0.26-0.776,0.389-1.165c-0.003,2.997-0.129,7.185,1.127,9.604
		c0.007,0.131,0.378,0.878,0.672,0.858c0.348,0.142,0.817-0.638,0.823-0.691c1.753-2.625,4.129-4.931,6-7.48
		c1.901-2.589,2.937-5.218,4.04-8.209c0.664-1.804,1.248-3.623,1.696-5.45c0.166,0.696,1.27,4.122,1.467,3.531
		c0.441-1.323,1.978-3.727,2.452-5.054c0.86-2.407,1.387-4.878,1.978-7.36c0.873-3.668,1.766-7.266,2.581-10.958
		c0.763-3.454,0.861-7.171,0.879-10.694C160.56,57.637,160.304,56.134,160.191,53.995z M145.704,133.949
		c-0.093-0.768-0.275-1.447-0.515-2.123c0.289-1.06,0.133-2.204-0.31-3.309c-0.493-1.231-1.215-2.649-1.991-3.914
		c0.002-0.023,0.009-0.046,0.009-0.068c0.013-0.312-0.077-0.552-0.254-0.806c-0.098-0.141-0.216-0.192-0.352-0.229
		c-0.021-0.35-0.085-0.707-0.241-1.092c-0.39-0.953-1.724-1.081-2.066,0l-0.032,0.1c-0.135,0.425-0.383,0.55-0.6,1.112
		c-0.405,1.056-0.303,2.299-0.321,3.419c-0.012,0.615-0.005,1.229-0.032,1.833c-0.177,0.821-0.322,1.648-0.489,2.471
		c-0.108,0.254-0.232,0.505-0.394,0.75c-0.198,0.301-0.182,0.678-0.036,0.995c-0.039,0.137-0.071,0.275-0.116,0.412
		c-0.16,0.495-0.328,0.991-0.488,1.489c0,0.001-0.001,0.001-0.002,0.002c-0.659,1.488-1.353,2.96-2.008,4.449
		c-0.047,0.064-0.096,0.132-0.123,0.179c-0.488,0.842-0.971,1.688-1.467,2.525c-1.307,2.209-2.845,4.032-4.722,5.779
		c-0.019,0.018-0.042,0.037-0.061,0.055c-0.129,0.078-0.255,0.155-0.374,0.23c-1.753,1.112-3.41,2.453-5.02,3.763
		c-0.108,0.088-0.225,0.185-0.349,0.291c-1.265,0.283-2.511,0.597-3.707,0.876c-0.14,0.032-0.292,0.057-0.438,0.087
		c-0.512,0.026-1.025,0.046-1.543,0.045c-3.198-0.006-5.919,0.071-9.087-0.446c-0.286-0.047-0.567-0.049-0.834-0.009
		c-2.271-0.419-4.509-0.853-6.763-1.383c-0.435-0.103-0.841-0.068-1.207,0.068c-0.017-0.005-0.034-0.013-0.05-0.018
		c-0.905-0.31-1.955-0.623-2.971-0.793c-0.564-0.205-1.129-0.408-1.701-0.591c-0.048-0.022-0.099-0.046-0.146-0.068
		c-1.833-0.869-3.81-1.549-5.831-1.958c-2.949-1.09-5.766-2.016-8.8-1.256c-3.034-0.76-5.851,0.166-8.8,1.256
		c-2.021,0.409-3.998,1.089-5.83,1.958c-0.048,0.022-0.099,0.046-0.146,0.068c-0.573,0.183-1.138,0.386-1.701,0.591
		c-1.017,0.17-2.066,0.483-2.972,0.793c-0.016,0.005-0.032,0.013-0.049,0.018c-0.366-0.137-0.773-0.171-1.208-0.068
		c-2.254,0.53-4.492,0.964-6.763,1.383c-0.267-0.04-0.548-0.038-0.834,0.009c-3.168,0.518-5.889,0.44-9.087,0.446
		c-0.518,0.001-1.031-0.019-1.542-0.045c-0.146-0.03-0.299-0.055-0.438-0.087c-1.196-0.279-2.442-0.593-3.707-0.876
		c-0.124-0.106-0.24-0.203-0.349-0.291c-1.609-1.31-3.266-2.65-5.02-3.763c-0.119-0.075-0.245-0.152-0.374-0.23
		c-0.019-0.018-0.042-0.037-0.061-0.055c-1.877-1.747-3.415-3.57-4.722-5.779c-0.496-0.837-0.979-1.684-1.467-2.525
		c-0.027-0.047-0.076-0.114-0.123-0.179c-0.655-1.489-1.349-2.961-2.008-4.449c-0.001-0.001-0.002-0.001-0.002-0.002
		c-0.16-0.498-0.328-0.994-0.488-1.489c-0.045-0.137-0.077-0.275-0.116-0.412c0.146-0.317,0.162-0.694-0.036-0.995
		c-0.161-0.245-0.285-0.496-0.394-0.75c-0.167-0.822-0.312-1.649-0.489-2.471c-0.027-0.604-0.021-1.218-0.032-1.833
		c-0.019-1.12,0.085-2.363-0.321-3.419c-0.216-0.562-0.465-0.688-0.6-1.112l-0.032-0.1c-0.343-1.081-1.677-0.953-2.066,0
		c-0.156,0.385-0.22,0.742-0.24,1.092c-0.136,0.036-0.255,0.088-0.353,0.229c-0.177,0.254-0.267,0.493-0.254,0.806
		c0,0.022,0.007,0.045,0.009,0.068c-0.776,1.265-1.498,2.683-1.991,3.914c-0.442,1.104-0.599,2.249-0.31,3.309
		c-0.239,0.676-0.422,1.355-0.515,2.123c-0.221,1.839-0.773,3.716,1.026,4.483c-0.021,1.169,0.093,2.36,0.128,3.478
		c0.055,1.779-0.201,2.947,1.179,3.967c0.159,0.608,0.33,1.212,0.494,1.802c0.976,3.472,0.461,7.235,1.738,10.584
		c0.154,0.403,0.587,0.473,0.857,0.233c0.028,1.217,0.103,2.43,0.46,3.6c0.161,0.525,0.718,0.722,1.193,0.484l0.459-0.229
		c0.322-0.16,0.338-0.641,0.079-0.866c0.062-0.237,0.1-0.485,0.148-0.728c0.861,2.056,1.478,4.179,1.705,6.417
		c0.102,0.994,0.005,1.938,0.929,2.418c0.032,0.017,0.062,0.01,0.093,0.02c0.088,0.646,0.288,1.281,0.732,1.914
		c0.488,0.694,1.564,0.113,1.196-0.642c0.196,0.359,0.393,0.715,0.582,1.063c0.118,1.115,0.163,2.238,0.481,3.273
		c0.156,0.502,0.265,0.651,0.766,0.811c0.168,0.054,0.342-0.008,0.472-0.12c0.647,1.744,1.699,3.983,3.314,3.698
		c0.037-0.006,0.057-0.031,0.084-0.048c0.603,1.265,1.288,2.437,1.914,3.395c0.163,0.261,0.332,0.52,0.517,0.762
		c0.009,0.015,0.021,0.031,0.029,0.046c0.007,0.008,0.015,0.013,0.021,0.021c0.626,0.818,1.317,1.578,1.87,2.489
		c0.207,0.341,0.561,0.292,0.755,0.073c0.531,1.127,1.073,2.243,1.727,3.276c0.129,0.442,0.354,0.823,0.783,1.12
		c0.532,0.677,1.14,1.299,1.866,1.834c0.363,0.268,0.802-0.172,0.711-0.547c-0.069-0.284-0.151-0.566-0.229-0.849
		c1.294,1.723,2.782,3.242,4.66,3.535c0.168,0.025,0.341-0.178,0.184-0.316c-0.326-0.288-0.548-0.716-0.739-1.18
		c0.971,0.85,2.01,1.605,3.136,2.212c0.421,0.304,0.852,0.589,1.285,0.855c0.138,0.182,0.267,0.368,0.417,0.545
		c0.168,0.197,0.41,0.169,0.579,0.037c0.105,0.059,0.213,0.121,0.317,0.179c0.45,0.799,1.059,1.454,1.996,1.406
		c0.548-0.028,0.767-0.741,0.282-1.038c-0.453-0.276-0.851-1.164-1.234-2.287c0.134,0.109,0.265,0.217,0.396,0.32
		c0.102,0.242,0.206,0.483,0.327,0.719c0.154,0.296,0.524,0.283,0.751,0.114c3.019,2.299,6.946,5.014,10.76,4.857
		c0.313-0.014,0.364-0.438,0.071-0.537c-1.627-0.55-3.334-1.515-4.948-2.625c0.078,0.018,0.155,0.04,0.232,0.057
		c0.012,0.003,0.022,0,0.034,0.001c1.088,0.671,2.375,0.888,4.081,0.293c0.233-0.081,0.226-0.383,0-0.466
		c-0.463-0.171-0.872-0.38-1.256-0.605c-0.026-0.03-0.055-0.062-0.081-0.091c0.438,0.174,0.889,0.316,1.344,0.444
		c1.474,1.39,3.146,2.566,4.678,2.5c0.172-0.009,0.307-0.122,0.379-0.264c0.213-0.117,0.328-0.414,0.117-0.663
		c-0.229-0.269-0.439-0.551-0.658-0.826c0.455,0.105,0.903,0.196,1.329,0.272c0.291,0.398,0.6,0.782,0.953,1.13
		c0.049,0.099,0.092,0.2,0.144,0.298c0.085,0.157,0.235,0.195,0.372,0.161c0.261,0.214,0.534,0.419,0.837,0.604
		c0.186,0.113,0.335-0.131,0.216-0.28c-0.112-0.143-0.208-0.296-0.309-0.447c0.055-0.095,0.075-0.212,0.046-0.344
		c-0.102-0.448-0.114-0.947-0.095-1.46c0.031-0.03,0.058-0.066,0.088-0.1c0.051,0.201,0.098,0.405,0.164,0.601
		c0.07,0.204,0.291,0.289,0.479,0.261c0.013,0.142,0.022,0.28,0.037,0.428c0.08,0.84,1.223,0.84,1.304,0
		c0.003-0.037,0.012-0.073,0.016-0.11c0.042,0.075,0.077,0.155,0.12,0.229c0.052,0.085,0.164,0.14,0.264,0.106
		c0.201-0.067,0.221-0.114,0.316-0.317c0.028-0.059,0.028-0.113,0.015-0.162c0.226,0.298,0.451,0.596,0.688,0.884
		c0.047,0.34,0.098,0.678,0.161,1.013c0.175,0.927,1.696,0.931,1.867,0c0.027-0.145,0.045-0.289,0.063-0.433
		c0.612,0.591,1.684,0.523,2.322-0.046c0.02,0.158,0.04,0.316,0.07,0.479c0.171,0.931,1.692,0.927,1.867,0
		c0.063-0.335,0.114-0.673,0.161-1.013c0.237-0.288,0.463-0.586,0.688-0.884c-0.014,0.049-0.014,0.104,0.015,0.162
		c0.096,0.203,0.115,0.25,0.317,0.317c0.099,0.033,0.212-0.021,0.263-0.106c0.044-0.074,0.078-0.154,0.12-0.229
		c0.004,0.037,0.013,0.073,0.017,0.11c0.08,0.84,1.223,0.84,1.303,0c0.015-0.147,0.024-0.286,0.037-0.428
		c0.188,0.028,0.408-0.057,0.479-0.261c0.066-0.195,0.113-0.399,0.165-0.601c0.029,0.033,0.056,0.069,0.087,0.1
		c0.02,0.513,0.007,1.012-0.095,1.46c-0.029,0.132-0.009,0.249,0.046,0.344c-0.101,0.151-0.196,0.305-0.309,0.447
		c-0.119,0.149,0.03,0.394,0.216,0.28c0.303-0.185,0.576-0.39,0.837-0.604c0.137,0.034,0.287-0.004,0.372-0.161
		c0.052-0.098,0.095-0.199,0.144-0.298c0.354-0.348,0.662-0.731,0.953-1.13c0.426-0.076,0.874-0.167,1.33-0.272
		c-0.22,0.275-0.43,0.558-0.659,0.826c-0.211,0.249-0.096,0.546,0.117,0.663c0.072,0.142,0.207,0.255,0.379,0.264
		c1.531,0.066,3.204-1.11,4.678-2.5c0.455-0.128,0.906-0.271,1.344-0.444c-0.026,0.029-0.055,0.061-0.08,0.091
		c-0.384,0.226-0.794,0.435-1.257,0.605c-0.226,0.083-0.233,0.385,0,0.466c1.707,0.595,2.993,0.378,4.081-0.293
		c0.012-0.001,0.022,0.002,0.034-0.001c0.077-0.017,0.154-0.039,0.232-0.057c-1.614,1.11-3.321,2.075-4.948,2.625
		c-0.293,0.099-0.242,0.523,0.071,0.537c3.813,0.156,7.741-2.559,10.76-4.857c0.227,0.169,0.598,0.182,0.751-0.114
		c0.121-0.235,0.226-0.477,0.327-0.719c0.131-0.104,0.262-0.211,0.396-0.32c-0.384,1.123-0.781,2.011-1.233,2.287
		c-0.485,0.297-0.267,1.01,0.281,1.038c0.938,0.048,1.546-0.607,1.996-1.406c0.105-0.058,0.212-0.12,0.318-0.179
		c0.168,0.132,0.41,0.16,0.579-0.037c0.149-0.177,0.278-0.363,0.416-0.545c0.434-0.267,0.864-0.552,1.285-0.855
		c1.126-0.606,2.165-1.362,3.136-2.212c-0.191,0.464-0.413,0.892-0.739,1.18c-0.157,0.139,0.016,0.342,0.184,0.316
		c1.879-0.293,3.366-1.812,4.66-3.535c-0.078,0.282-0.16,0.564-0.229,0.849c-0.092,0.375,0.347,0.814,0.71,0.547
		c0.727-0.535,1.334-1.157,1.867-1.834c0.429-0.297,0.653-0.678,0.783-1.12c0.652-1.033,1.194-2.149,1.726-3.276
		c0.194,0.219,0.548,0.268,0.755-0.073c0.553-0.911,1.244-1.671,1.87-2.489c0.006-0.008,0.015-0.013,0.021-0.021
		c0.009-0.015,0.021-0.031,0.029-0.046c0.185-0.242,0.354-0.501,0.518-0.762c0.625-0.958,1.311-2.13,1.913-3.395
		c0.027,0.017,0.047,0.042,0.084,0.048c1.615,0.285,2.667-1.954,3.314-3.698c0.13,0.112,0.304,0.174,0.472,0.12
		c0.501-0.159,0.609-0.309,0.766-0.811c0.318-1.035,0.363-2.158,0.481-3.273c0.189-0.349,0.386-0.704,0.582-1.063
		c-0.368,0.755,0.708,1.336,1.196,0.642c0.444-0.633,0.646-1.268,0.732-1.914c0.032-0.01,0.061-0.003,0.093-0.02
		c0.924-0.479,0.827-1.424,0.929-2.418c0.228-2.238,0.844-4.361,1.705-6.417c0.049,0.242,0.087,0.49,0.148,0.728
		c-0.259,0.226-0.243,0.706,0.079,0.866l0.459,0.229c0.476,0.237,1.032,0.041,1.193-0.484c0.357-1.17,0.432-2.383,0.46-3.6
		c0.271,0.239,0.703,0.17,0.857-0.233c1.277-3.349,0.763-7.112,1.738-10.584c0.164-0.59,0.335-1.193,0.494-1.802
		c1.38-1.02,1.124-2.188,1.179-3.967c0.035-1.117,0.149-2.309,0.128-3.478C146.478,137.665,145.925,135.788,145.704,133.949z
		 M64.993,162.554c0.218,0.301,0.746,0.417,0.928-0.002c0.029-0.065,0.096-0.136,0.176-0.208c0.179,0.127,0.432,0.132,0.631,0.031
		c0.021-0.01,0.039-0.024,0.058-0.034c0.209,0.005,0.432-0.115,0.505-0.335c0.024-0.075,0.066-0.144,0.1-0.216
		c0.088-0.044,0.163-0.106,0.195-0.208c0.021-0.068,1.426-0.742,1.377-0.714c0.283-0.165,0.578-0.309,0.869-0.459
		c0.024,0.019,0.042,0.043,0.068,0.061c0.152,0.096,0.337-0.062,0.294-0.227c-0.002-0.009,0.002-0.018,0-0.027
		c0.271-0.136,0.545-0.267,0.818-0.399c-0.652,0.96-0.897,1.89,0.308,2.108c0.156,0.028,0.322-0.067,0.319-0.243
		c-0.004-0.216,3.408-2.066,5.218-2.983c-0.183,0.593-0.23,1.197-0.02,1.732c0.157,0.398,0.674,0.517,0.922,0.121
		c0.271-0.431,0.667-0.771,1.041-1.128c0.316-0.069,0.605-0.258,0.804-0.562c0.161-0.246,0.406-0.492,0.672-0.736
		c0.266,0.244,0.511,0.49,0.672,0.736c0.199,0.305,0.488,0.493,0.805,0.562c0.373,0.356,0.77,0.697,1.04,1.128
		c0.248,0.396,0.765,0.277,0.922-0.121c0.211-0.535,0.163-1.14-0.02-1.732c1.811,0.917,5.223,2.768,5.218,2.983
		c-0.003,0.176,0.163,0.271,0.319,0.243c1.205-0.219,0.96-1.148,0.308-2.108c0.273,0.133,0.547,0.264,0.818,0.399
		c-0.002,0.01,0.002,0.019,0,0.027c-0.043,0.165,0.142,0.322,0.294,0.227c0.026-0.018,0.044-0.042,0.068-0.061
		c0.291,0.15,0.586,0.294,0.869,0.459c-0.049-0.028,1.356,0.646,1.377,0.714c0.032,0.102,0.107,0.164,0.195,0.208
		c0.033,0.072,0.075,0.141,0.1,0.216c0.073,0.22,0.296,0.34,0.505,0.335c0.019,0.01,0.036,0.024,0.058,0.034
		c0.199,0.101,0.452,0.096,0.631-0.031c0.08,0.072,0.146,0.143,0.176,0.208c0.182,0.419,0.711,0.303,0.928,0.002
		c0.342,0.277,0.664,0.563,0.979,0.856c-0.737,0.146-1.452,0.338-2.071,0.522c-1.062,0.316-1.964,0.57-2.776,1.227
		c-1.394-0.229-2.906-0.217-4.224-0.246c-0.535-0.011-1.069-0.065-1.588-0.066c-1.185-0.071-2.4-0.013-3.289,0.574
		c-0.657-0.065-1.442,0.361-1.886,0.727c-0.157,0.13-0.303,0.304-0.428,0.502c-0.125-0.198-0.271-0.372-0.428-0.502
		c-0.443-0.365-1.229-0.792-1.886-0.727c-0.889-0.587-2.104-0.646-3.289-0.574c-0.519,0.001-1.053,0.056-1.588,0.066
		c-1.317,0.029-2.83,0.018-4.224,0.246c-0.812-0.656-1.714-0.91-2.776-1.227c-0.619-0.185-1.334-0.377-2.071-0.522
		C64.329,163.117,64.651,162.831,64.993,162.554z M84.201,197.425c-0.113,0.163-0.229,0.324-0.339,0.489
		c0.109-0.56,0.251-1.111,0.463-1.647c0.013,0.059,0.026,0.115,0.039,0.172C84.28,196.775,84.224,197.105,84.201,197.425z"/>
</g>
<g id="Layer_1">
</g>
</svg>
