<?xml version="1.0" encoding="iso-8859-1"?>
<!-- Generator: Adobe Illustrator 16.0.0, SVG Export Plug-In . SVG Version: 6.00 Build 0)  -->
<!DOCTYPE svg PUBLIC "-//W3C//DTD SVG 1.1//EN" "http://www.w3.org/Graphics/SVG/1.1/DTD/svg11.dtd">
<svg version="1.1" xmlns="http://www.w3.org/2000/svg" xmlns:xlink="http://www.w3.org/1999/xlink" x="0px" y="0px"
	 width="156.21px" height="213.576px" viewBox="0 0 156.21 213.576" style="enable-background:new 0 0 156.21 213.576;"
	 xml:space="preserve">
<g id="Layer_10">
	<linearGradient id="SVGID_1_" gradientUnits="userSpaceOnUse" x1="78.105" y1="213.5762" x2="78.105" y2="4.882812e-04">
		<stop  offset="0" style="stop-color:#000000"/>
		<stop  offset="1" style="stop-color:#4D4D4D"/>
	</linearGradient>
	<path style="fill:url(#SVGID_1_);" d="M155.086,127.806c-0.204,1.811-0.441,3.603-0.988,5.345
		c-0.593,1.887-0.617,4.027-1.283,5.844c-0.963,2.633-1.48,6.898-3.46,8.951c-0.606,0.63-1.416,0.75-2.135,0.541
		c1.012-3.667,1.7-7.467,2.137-11.42c0.69-6.262,1.024-12.635,0.424-18.872c0.188-1.397,0.373-2.794,0.475-4.171
		c-0.802-4.787-1.646-9.374-3.27-14.041c-0.731-2.101-1.403-4.221-2.004-6.364c-0.199-0.601-0.353-1.213-0.481-1.832
		c-0.765,1.192-0.877-4.84-2.438-4.84c-0.532,0-1.854,6.922-2.255,6.706c-0.284-0.876-0.585-1.748-0.896-2.617
		c-1.53-7.399-12.672-27.413-12.776-27.736c-0.08,0.273-1.155,2.153-3.747,3.579c-0.003,0.001-0.007-0.002-0.011-0.003
		c-0.188-0.443-0.374-0.886-0.565-1.329c-1.839-4.264-4.786-7.214-7.547-10.519c-0.351-0.73-0.673-1.473-0.951-2.234
		c-0.053-0.49-0.192-0.961-0.448-1.377c-0.109-0.383-0.216-0.768-0.302-1.164c-0.482-2.245-0.795-4.585-1.452-6.781
		c0.032,0.109-0.602,2.707-0.602,3.248c-0.041,0.417-0.113,0.828-0.22,1.233c-0.149,0.697-0.793,1.34-1.482,1.542
		c-0.485-0.054-0.971-0.013-1.438,0.095c-0.879-0.136-1.611-0.62-2.48-1.243c-0.995-0.713-1.755-2.341-2.674-3.377
		c-0.61,1.192-1.167,2.413-1.051,3.785c0.067,0.79,0.226,1.657,0.04,2.442c-0.261,1.1-0.671,2.555-1.938,2.904
		c-2.835,0.78-7.102-3.603-8.135-5.765c-1.777-3.717-0.86,3.466-0.931,4.74c-0.042,0.759-0.722,1.666-1.467,1.871
		c-1.165,0.32-2.414-0.527-3.409-0.959c-0.401-0.175-2.511-1.627-3.895-2.452c0.258,0.886,0.62,1.771,0.776,2.63
		c0.206,1.13,0.171,2.341,0.302,3.487c0.127,1.113-1.049,2.127-2.095,2.095c-3.073-0.094-4.706-2.592-7.08-4.27
		c-1.07-0.757-2.655-2.6-4.133-3.565c-0.252,1.226-0.752,2.215-2.769,2.215c-4.469,0-8.263-4.708-12.561-5.595
		c-4.189-0.864-10.702-0.307-14.493,2.005c-1.728,1.054-3.337,2.604-5.136,3.711c-0.043,0.256-0.064,0.521-0.051,0.797
		c0.21,4.455,0.319,8.82,0.312,13.285c-0.006,3.415,0.249,7.256-2.458,9.846c-2.665,2.549-5.794,4.531-7.884,7.648
		c-2.056,3.067-4.468,6.112-5.367,9.758c-0.5,2.027-2.113,3.418-2.928,5.261c-0.706,1.597-0.959,3.289-1.578,4.856
		c-1.583,4.013-2.257,7.884-2.451,12.203c-0.05,1.116-0.046,2.278-0.039,3.455c0.258,1.209,0.505,2.422,0.727,3.642
		c0.096,0.522,0.201,1.042,0.313,1.56c0.308,8.439,2.258,16.547,5.446,24.273c-0.345,0.324-0.944,0.381-1.318,0.012
		c-1.477-1.455-2.438-3.229-3.161-5.179c-0.867-2.335-2.412-4.3-3.483-6.557c-1.815-3.825-3.076-8.28-3.918-12.423
		c-0.481-2.363-1.189-4.826-1.842-7.152c-0.655-2.339-0.764-4.586-1.254-6.926c-0.936-4.47-1.059-8.612-0.827-13.173
		c0.482-9.485,0.397-19.242,1.594-28.665c0.501-3.949-0.229-7.89-0.711-11.845c-0.281-2.307-1.725-3.869-2.284-5.788
		c-0.392-0.375-0.74-0.813-0.994-1.419c-0.442-1.054,0.888-2.381,1.941-1.941c1.014,0.424,2.311,0.279,3.23,0.897
		c0.864,0.581,1.641,1.232,2.408,1.909c-0.187-4.427,0.647-9.144,1.757-13.075c-0.181-0.963,0.212-1.799,0.807-2.755
		c0.029-0.047,0.066-0.086,0.107-0.122c0.097-0.277,0.192-0.57,0.29-0.832c0.375-1.011,1.712-0.801,1.824,0.247
		c0.114,1.064,0.201,2.124,0.276,3.184c0.332,0.313,0.691,0.627,1.053,1.005c0.155,0.162,0.299,0.333,0.442,0.503
		c0.722-0.855,1.394-1.724,1.934-2.633c2.085-3.507,3.745-7.046,5.515-10.649c-0.031-0.269-0.042-0.541-0.014-0.817
		c0.062-0.607,0.396-0.856,0.863-0.893c0.036-0.072,0.071-0.143,0.107-0.215c0.295-0.586,1.049-0.332,1.249,0.163
		c0.051,0.126,0.086,0.253,0.132,0.379c0.532,0.218,1.072,0.512,1.535,0.788c0.357-0.38,0.71-0.768,1.04-1.18
		c1.948-2.43,4.375-4.219,6.598-6.368c3.414-3.302,7.306-6.025,10.598-9.484c0.168-0.176,0.523-0.153,0.633,0.082
		c0.242,0.516,0.359,1.031,0.396,1.542c0.374,0.544,0.988,1.036,1.662,1.448c1.466-2.479,3.539-4.283,6.335-5.81
		c2.575-1.406,6.379-4.104,9.307-4.23c0.443-0.019,1.03,0.271,1.215,0.697c0.729,1.686,1.886,2.683,3.031,4.09
		c1.278,1.572,0.524,1.109,1.198-0.652c0.733-1.919,3.98-4.531,5.702-5.68c0.548-0.364,1.34-0.111,1.655,0.434
		c0.863,1.492,0.39,3.348,1.188,4.897c0.019,0.037,0.031,0.064,0.048,0.098c0.024-0.218,0.128-0.465,0.387-0.689
		c0.308-0.284,0.629-0.551,0.966-0.8c3.873-2.341,8.851-3.432,13.021-5.18c0.79-0.331,1.408,0.475,1.496,1.14
		c0.135,1.007,0.061,3.832,0.643,5.288c2.579-1.758,5.087-3.515,8.247-4.275c0.916-0.22,1.562,0.417,1.675,1.275
		c0.259,2.001,0.187,3.336-0.291,5.29c-0.318,1.307-0.357,2.671-0.31,4.043c1.083-0.498,2.198-0.951,3.185-1.578
		c1.93-1.225,3.671-2.465,5.805-3.308c1.072-0.424,2.15,0.635,2.171,1.653c0.049,2.409-0.598,4.685-0.929,7.04
		c4.505-1.046,8.796-2.373,13.117-4.231c1.074-0.462,2.122,0.483,1.592,1.592c-0.908,1.898-2.883,3.468-4.148,5.185
		c-0.816,1.107-1.613,2.365-2.18,3.623c0.523-1.16,5.14-2.381,6.699-2.839c1.775-0.521,3.544-1.422,5.381-0.893
		c0.582,0.167,1.195,0.796,1.108,1.455c-0.397,3-1.004,5.086-0.126,8.122c0.958,3.308,2.957,5.908,4.979,8.629
		c0.903,1.219,0.968,2.222,2.239,3.374c0.94,0.853,1.755,2.05,2.681,2.943c2.456,2.366,4.775,2.336,7.842,3.092
		c0.671,0.165,1.36,0.792,1.491,1.49c0.667,3.576-0.5,7.829-0.468,11.508c0.038,4.48,0.848,8.849,1.112,13.305
		c0.21,3.548,1.382,7.006,1.361,10.582c-0.031,5.239-0.018,10.564,0.658,15.761C156.762,108.611,156.121,118.558,155.086,127.806z
		 M98.197,181.102c-0.094,0.434-0.218,0.832-0.375,1.188c-0.398,1.153-0.876,2.288-1.396,3.417c-0.12,0.345-0.286,0.684-0.479,1.015
		c-0.548,1.141-1.124,2.28-1.687,3.434c-0.053,0.262-0.077,0.521-0.066,0.773c0.021,0.483-0.318,0.781-0.71,0.854
		c-0.704,1.521-1.352,3.078-1.845,4.702c-0.137,0.45-0.718,0.41-0.871,0c-0.942-2.524-0.923-7.701-1.25-8.319
		c-0.179,1.824-0.551,3.545-0.748,4.139c-0.178,0.528-0.417,1.094-0.673,1.678c-0.187,0.965-0.4,1.907-0.511,2.738
		c-0.229,1.748-0.473,3.562-0.932,5.262c-0.024,0.09-0.07,0.166-0.121,0.238c-0.062,0.844-0.25,1.662-0.768,2.438
		c-0.137,0.205-1.701-0.769-2.062-1.374c-0.077,0.194-0.147,0.397-0.229,0.587c-0.12,1.668-0.614,3.269-1.519,4.922
		c-0.226,0.413-0.48,0.74-0.757,1.012c-0.239,0.353-0.492,0.686-0.774,0.977c-0.229,0.238-0.61,0.245-0.892,0.096
		c-0.028,0.013-0.057,0.025-0.085,0.038c-0.266,0.21-0.539,0.409-0.831,0.593c-0.255,0.158-0.566,0.295-0.868,0.443
		c-0.415,0.903-2.018,1.627-2.018,1.627s-0.958-1.416-1.207-1.921c-0.086-0.065-0.165-0.146-0.227-0.258
		c-0.52-0.938-0.532-0.88-0.713-1.895c-0.726-0.831-1.156-2.144-1.401-3.085c-0.275-1.057-0.294-2.022-0.238-2.998
		c-0.241,0.369-1.641,2.094-1.675,2.055c-0.006,0.001-0.009,0.004-0.016,0.004c-0.053,0.008-1.235-1.626-1.346-1.932
		c-0.081-0.1-0.146-0.217-0.183-0.363c-0.909-0.822-1.289-2.793-1.485-3.666c-0.121-0.542-0.328-1.331-0.359-2.07
		c-0.122-0.746-0.162-1.498-0.183-2.077c-0.012-0.37,0-0.733,0.007-1.098c-0.069-0.668-0.146-1.333-0.188-1.959
		c-0.054-0.823,0.002-1.614,0.099-2.396c-0.341-0.631-0.515-1.397-0.582-2.141c-0.182,0.378-0.366,0.758-0.601,1.096
		c-0.203,0.293-0.678,0.694-0.761,1.037c-0.256,1.067-1.667,0.635-1.786-0.126c-0.043-0.048-0.09-0.089-0.125-0.151
		c-1.19-0.68-2.001-2.082-2.615-3.326c-0.561-0.838-0.933-1.879-1.249-2.898c-0.67-0.557-0.985-1.476-1.075-2.541
		c-0.461-0.957-0.387-2.211-0.209-3.336c-0.65-1.622-0.293-3.909,0.58-5.264c0.088-0.135,0.19-0.264,0.286-0.395
		c0.413-0.971,1.09-1.882,1.691-2.463c1.044-1.013,2.136-1.866,3.392-2.604c0.604-0.354,1.138-0.775,1.729-1.084
		c1.014-0.68,2.009-1.103,3.303-1.256c1.011-0.121,1.787-0.486,2.66-0.417c1.174-0.229,2.376-0.332,3.61-0.267
		c0.608-0.154,1.233-0.304,1.847-0.231c0.569,0.067,1.016,0.222,1.476,0.394c7.025-2.047,17.1-0.573,19.729,6.699
		C99.315,174.507,99.12,177.895,98.197,181.102z"/>
</g>
<g id="Layer_1">
</g>
</svg>
