<?xml version="1.0" encoding="iso-8859-1"?>
<!-- Generator: Adobe Illustrator 16.0.0, SVG Export Plug-In . SVG Version: 6.00 Build 0)  -->
<!DOCTYPE svg PUBLIC "-//W3C//DTD SVG 1.1//EN" "http://www.w3.org/Graphics/SVG/1.1/DTD/svg11.dtd">
<svg version="1.1" xmlns="http://www.w3.org/2000/svg" xmlns:xlink="http://www.w3.org/1999/xlink" x="0px" y="0px"
	 width="59.347px" height="10.859px" viewBox="0 0 59.347 10.859" style="enable-background:new 0 0 59.347 10.859;"
	 xml:space="preserve">
<g id="Layer_2">
	<path style="fill-rule:evenodd;clip-rule:evenodd;" d="M2.874,3.697c0.938,1.395,1.844,1.825,2.804,1.414
		c0.93-0.397,1.08-1.233,1.005-2.106c-0.098-1.14-1.066-2.101-2.195-2.197C3.095,0.688,1.974,1.229,1.216,2.398
		C0.432,3.608,0.4,4.905,1.108,6.147c0.945,1.658,2.437,2.453,4.334,2.567c3.173,0.191,6.2-0.463,9.152-1.54
		c3.26-1.19,6.614-1.904,10.086-1.753c1.327,0.058,2.631,0.535,3.955,0.771c0.602,0.107,1.301,0.292,1.828,0.097
		c3.664-1.354,7.313-0.946,10.96-0.034c3.326,0.832,6.616,1.814,9.958,2.571c1.704,0.386,3.434,0.062,4.983-0.828
		c1.921-1.104,2.665-3.352,1.799-5.39c-0.169-0.397-0.41-0.784-0.696-1.106c-0.911-1.029-2.408-1.229-3.606-0.524
		c-1.086,0.638-1.602,1.853-1.26,2.966c0.353,1.149,1.344,1.648,2.993,1.507c-1.292,0.878-3.02,0.354-3.545-1.072
		c-0.816-2.218,1.007-4.571,3.416-4.365c1.761,0.151,3.005,1.095,3.588,2.75c0.626,1.777,0.244,3.411-1.125,4.727
		c-1.719,1.653-3.932,2.294-6.19,2.645c-6.572,1.019-13.141,1.128-19.598-0.741c-1.901-0.55-3.657-0.385-5.521,0.105
		c-6.935,1.825-13.926,1.729-20.874,0.142C4.212,9.288,2.706,8.416,1.421,7.466C0.029,6.437-0.292,4.816,0.246,3.128
		c0.535-1.683,1.73-2.654,3.446-2.954c1.979-0.346,3.89,1.397,3.743,3.37c-0.087,1.172-0.988,2.12-2.128,2.243
		C4.19,5.906,3.241,5.172,2.874,3.697z"/>
</g>
<g id="Layer_1">
</g>
</svg>
