<?xml version="1.0" encoding="iso-8859-1"?>
<!-- Generator: Adobe Illustrator 16.0.0, SVG Export Plug-In . SVG Version: 6.00 Build 0)  -->
<!DOCTYPE svg PUBLIC "-//W3C//DTD SVG 1.1//EN" "http://www.w3.org/Graphics/SVG/1.1/DTD/svg11.dtd">
<svg version="1.1" xmlns="http://www.w3.org/2000/svg" xmlns:xlink="http://www.w3.org/1999/xlink" x="0px" y="0px"
	 width="150.798px" height="222.704px" viewBox="0 0 150.798 222.704" style="enable-background:new 0 0 150.798 222.704;"
	 xml:space="preserve">
<g id="Objects">
	<linearGradient id="SVGID_1_" gradientUnits="userSpaceOnUse" x1="75.3989" y1="222.7031" x2="75.3989" y2="0">
		<stop  offset="0" style="stop-color:#000000"/>
		<stop  offset="1" style="stop-color:#4D4D4D"/>
	</linearGradient>
	<path style="fill:url(#SVGID_1_);" d="M150.741,51.695c-0.104-0.594-0.426-1.112-0.772-1.622c-0.156-0.37-0.329-0.729-0.499-1.069
		c-0.571-1.144-0.464-3.006-1.083-4.291c-0.73-1.516-1.57-2.889-2.22-4.46c-0.478-1.157-0.995-2.299-1.552-3.431
		c0.105,0.022,0.207,0.049,0.318,0.062c0.49,0.054,0.672-0.708,0.248-0.921c-0.146-0.073-0.284-0.166-0.418-0.269
		c0.701-0.11,1.362-0.318,1.944-0.663c0.204-0.121,0.191-0.403,0-0.527c-0.493-0.321-1.048-0.563-1.629-0.766
		c-0.476-2.223-1.28-4.715-2.387-6.636c-0.685-1.19-1.808-2.285-3.111-3.274c0.06-0.303-0.069-0.652-0.428-0.751
		c-0.092-0.026-0.183-0.062-0.274-0.09c-0.624-1.179-1.604-2.307-2.241-3.26c-1.573-2.356-4.56-3.882-6.916-5.298
		c-0.325-0.195-0.665-0.382-1.016-0.562c1.423-0.166,2.844-0.338,4.259-0.551c0.923-0.139,0.491-1.56-0.271-1.459
		c-2.97-0.406-5.848-0.289-8.775,0.002c2.153-0.525,4.355-0.926,6.496-1.406c0.271-0.061,0.292-0.524,0-0.568
		c-0.383-0.058-0.768-0.095-1.152-0.121c1.088-0.411,2.17-0.832,3.237-1.295c0.529-0.23,0.209-0.971-0.271-0.999
		c-3.215-0.186-6.841,0.999-9.889,2.07c0.847-0.851,1.674-1.719,2.33-2.721c0.183-0.278-0.172-0.609-0.444-0.446
		c-1.595,0.95-3.02,2.049-4.427,3.256c-0.151,0.13-0.305,0.264-0.458,0.399c-0.728-4.131-4.57-6.784-7.525-9.723
		c-0.525-0.522-1.275,0.254-0.803,0.802c0.475,0.551,0.924,1.126,1.363,1.712c-0.009,0.383,0.073,0.757,0.222,1.122
		c-2.345-2.628-6.104-3.051-9.252-3.928c-0.199-0.056-0.269,0.232-0.084,0.304c2.103,0.821,4.156,1.81,5.848,3.187
		c-3.384-1.525-7.282-2.427-10.035-3.413c-0.38-0.136-0.645,0.486-0.276,0.653c2.701,1.229,5.418,2.408,8.102,3.683
		c1.661,0.789,3.028,2.002,4.408,3.166c-0.662-0.253-1.326-0.506-1.989-0.753c-3.206-3.395-9.303-5.033-14.275-6.047
		c-0.633-0.176-1.267-0.349-1.891-0.523c-0.163-0.045-0.293-0.002-0.389,0.079c-0.655-0.123-1.283-0.238-1.85-0.346
		c-0.212-0.041-0.3,0.261-0.09,0.324c0.61,0.184,1.22,0.393,1.827,0.598c0.05,0.094,0.133,0.174,0.261,0.217
		c1.887,0.627,3.746,1.281,5.569,2.025c0.687,0.296,1.361,0.603,2.035,0.913C94.188,2.6,87.191,2.006,80.866,2.016
		c-0.737,0.001-1.477,0.001-2.216,0.001c-0.45-0.043-0.889-0.081-1.299-0.109c-4.187-0.296-8.557-0.181-12.724,0.589
		c-2.246,0.214-4.483,0.515-6.702,0.973c-3.006,0.62-5.901,1.403-8.771,2.404c-2.823,0.35-5.542,0.947-8.521,1.697
		c-3.952,0.995-7.858,2.957-11.421,4.983c-0.735,0.207-1.462,0.471-2.18,0.785c-2.833,0.896-5.585,1.948-8.187,3.464
		c-0.45,0.262-0.465,0.698-0.258,1.014c-0.821,0.536-1.564,1.14-2.094,1.842c-1.147,0.526-2.254,1.055-3.284,1.429
		c-1.511,0.549-6.713,2.313-6.457,4.488c0.035,0.292,0.417,0.455,0.588,0.159c0.392-0.678,1.388-0.545,2.02-0.826
		c0.167-0.074,0.334-0.132,0.5-0.203c0.163,0.373,0.772,0.356,0.928-0.081c0.207-0.584,1.05-0.56,1.742-0.575
		c-0.185,0.136-0.37,0.271-0.558,0.396c-2.381,1.583-5.35,2.833-7.354,4.896c-0.721,0.742,0.345,1.753,1.115,1.115
		c0.495-0.41,1.029-0.779,1.579-1.132c-1.593,1.369-3.08,3.126-4.042,4.846c-0.406,0.726,0.663,1.342,1.107,0.647
		c0.443-0.693,0.962-1.345,1.532-1.959c0.053,0.034,0.11,0.063,0.18,0.083c0.227,0.063,0.424,0.089,0.608,0.093
		c-0.001,0.001-0.003,0.002-0.005,0.003c-1.794,1.443-3.656,2.886-4.517,5.085c-0.09,0.23-0.006,0.432,0.149,0.566
		c-0.232,0.289-0.456,0.585-0.658,0.899c-0.441,0.685,0.608,1.256,1.071,0.626c0.202-0.274,0.427-0.537,0.662-0.795
		c-0.282,0.499-0.513,1.033-0.707,1.48c-0.762,1.383-1.386,2.826-2.242,4.174c-0.18,0.284,0.035,0.601,0.301,0.682
		c-0.116,0.485-0.199,0.98-0.229,1.495c-0.007,0.034-0.02,0.065-0.026,0.1c-0.138,0.147-0.277,0.293-0.41,0.438
		c-0.233,0.253,0.044,0.602,0.309,0.524c-0.006,0.246-0.003,0.503,0.013,0.78c0.033,0.569,0.85,0.569,0.883,0
		c0.016-0.269,0.054-0.525,0.102-0.777c0.319-0.561,0.883-0.972,1.251-1.538c0.302-0.465,0.555-0.992,0.76-1.533
		c0.394-0.427,0.77-0.862,1.146-1.298c-0.16,0.404-0.33,0.801-0.538,1.156c-0.38,0.647-0.473,1.38-0.875,2.013
		c-0.101,0.16,0.139,0.35,0.264,0.204c0.259-0.303,0.467-0.733,0.695-1.102c-0.169,0.393-0.329,0.788-0.511,1.179
		c-0.761,1.634-1.521,3.385-1.552,5.21c-0.003,0.192,0.28,0.227,0.331,0.044C2.837,50.965,4.086,49.479,5.106,48
		c-0.162,0.558-0.33,1.115-0.515,1.67c-0.74,2.222-1.636,4.348-2.233,6.617c-0.095,0.361,0.328,0.613,0.594,0.449
		c-0.764,2.519-1.036,5.2-2.303,7.491c-0.292,0.529,0.438,1.143,0.858,0.662c1.147-1.308,1.886-2.867,2.344-4.541
		c0.131-0.48,0.275-0.93,0.418-1.383c-0.379,4.519-2.977,8.437-2.76,13.106c0.001,0,0.003,0,0.004,0
		c-0.003,0.333,0.438,0.546,0.683,0.344c-0.533,1.428-0.979,2.846-0.721,4.377c0.077,0.454,0.836,0.454,0.912,0
		c0.164-0.966,0.703-1.675,1.207-2.433c-0.127,0.322-0.247,0.644-0.353,0.964c-0.749,2.251-1.675,5.445-1.583,7.83
		c0.011,0.29,0.351,0.35,0.509,0.138c0.629-0.841,1.132-1.717,1.575-2.615c-1.034,2.837-2.218,5.618-3,8.516
		c-0.203,0.752,0.824,1.156,1.229,0.519c1.014-1.595,1.927-3.168,2.756-4.793c-0.019,0.07-0.036,0.142-0.055,0.212
		c-0.92,3.39-0.806,6.933-3.044,9.854c-0.469,0.612,0.521,1.315,1.041,0.802c0.486-0.479,0.902-0.979,1.273-1.492
		c-0.115,2.384-0.1,4.771-0.007,6.971c0.007,0.175,0.26,0.217,0.31,0.042c0.559-1.974,1.041-3.763,1.42-5.599
		c-0.049,0.725-0.111,1.428-0.213,2.084c-0.352,2.25-1.084,5.32-0.419,7.567c0.044,0.149,0.233,0.131,0.284,0
		c0.159-0.409,0.292-0.829,0.434-1.244c0.082,1.162,0.149,2.321,0.049,3.486c-0.206,0.557-0.437,1.098-0.568,1.715
		c-0.05,0.238,0.276,0.396,0.404,0.17c0.689-1.221,1.468-1.79,1.912-3.16c0.033,0.098,0.066,0.195,0.096,0.29
		c-0.023,2.112,0.093,4.282,0.645,6.31c0.002,0.008,0.011,0.01,0.014,0.018c0.007,0.014,0.015,0.021,0.026,0.033
		c0.016,0.016,0.03,0.027,0.05,0.033c0.014,0.004,0.026,0.004,0.041,0.004c0.015,0,0.027,0,0.041-0.004
		c0.02-0.006,0.034-0.018,0.05-0.033c0.006-0.008,0.017-0.01,0.023-0.016c0.09,0.82,0.207,1.637,0.404,2.441
		c0.073,0.301,0.505,0.283,0.588,0c0.502-1.713,0.612-3.406,0.482-5.101c0.026,0.076,0.057,0.169,0.09,0.27
		c0.047,1.235,0.054,2.48,0.278,3.666c-0.012,0.117,0.027,0.217,0.103,0.293c-0.248,1.518-0.359,3.049-0.137,4.521
		c0.119,0.787,1.422,0.766,1.561,0c0.214-1.178,0.362-2.412,0.422-3.654c0.26-0.75,0.259-1.648,0.179-2.455
		c-0.087-0.883-0.265-1.876-0.535-2.87c0.026-0.782-0.011-1.56-0.151-2.315c-0.312-1.684-1.104-3.161-1.744-4.701
		c0.038-0.076,0.067-0.161,0.103-0.239c0.169-0.039,0.316-0.151,0.343-0.338c0.04-0.28,0.056-0.564,0.077-0.846
		c0.376-1.472,0.358-3.111,0.04-4.444c-0.007-0.031-0.015-0.062-0.022-0.093c0.081-0.027,0.155-0.067,0.229-0.11
		c-0.189-0.792-0.318-1.62-0.403-2.459c-0.008,0.498-0.026,1.013-0.072,1.43c-0.106-1.297-0.235-2.594-0.308-3.891
		c-0.005-0.089-0.009-0.185-0.014-0.276c-0.007-0.087-0.029-0.163-0.027-0.256c0-0.057,0.004-0.114,0.006-0.172
		c-0.058-1.196-0.125-2.486-0.436-3.66c0.023-0.64,0.042-1.281,0.039-1.917c0.426,0.377,1.265-0.043,1.024-0.636
		c-0.234-0.468-0.389-0.96-0.475-1.474c0.028-0.039,0.06-0.072,0.078-0.118c0.073-0.182,0.126-0.373,0.177-0.563
		c0.051,0.218,0.11,0.435,0.151,0.654c0.195,1.06,1.283,0.613,1.611-0.009l0.011,0.009c0.001-0.011,0-0.023,0.002-0.033
		c0.085-0.175,0.106-0.36,0.033-0.531c0.031-0.823-0.096-1.654-0.276-2.489c0.14-0.148,0.28-0.293,0.418-0.448
		c0.023,0.127,0.047,0.254,0.07,0.385c0.051,0.292,0.537,0.292,0.588,0c0.044-0.253,0.077-0.526,0.112-0.793
		c0.306-0.046,0.517-0.234,0.542-0.639c0.011-0.175-0.27-0.177-0.273,0c-0.005,0.244-0.097,0.338-0.231,0.382
		c0.015-0.117,0.033-0.227,0.048-0.344c0.229-0.29,0.443-0.587,0.647-0.889c0.143,0.678,0.26,1.376,0.079,1.529
		c-0.124,0.104-0.026,0.335,0.134,0.323c0.619-0.049,0.871-0.743,0.971-1.533c0.029,0.268,0.056,0.538,0.095,0.804
		c-0.013,0.294,0.498,0.408,0.561,0.075c0.183-0.973,0.342-1.979,0.415-2.99c0.168,0.032,0.348,0.048,0.552,0.027
		c0.283-0.03,0.428-0.279,0.309-0.538c-0.096-0.21-0.171-0.429-0.258-0.643c0-0.026,0.009-0.052,0.003-0.077
		c-0.045-0.192-0.113-0.378-0.175-0.566c0.406,0.25,0.918,0.331,1.564,0.179c0.205-0.049,0.335-0.329,0.207-0.51
		c-0.002-0.003-0.003-0.006-0.005-0.01c0.17-0.145,0.264-0.398,0.115-0.595c-0.07-0.092,0.169-0.829,0.173-1.112
		c0-0.037-0.001-0.074-0.001-0.11c0.296-0.038,0.521-0.363,0.34-0.654c-0.106-0.171-0.223-0.334-0.348-0.494
		c-0.006-0.48-0.013-0.96-0.028-1.44c0.027,0.012,0.053,0.03,0.08,0.042c0.315,0.146,0.708-0.163,0.503-0.503
		c-0.191-0.317-0.413-0.604-0.628-0.896c-0.009-0.226-0.021-0.458-0.032-0.688c0.625,0.535,1.292,0.996,2.023,1.321
		c0.36,0.16,0.812-0.183,0.575-0.576c-0.065-0.107-0.369-0.505-0.794-1.055c-0.004-0.009-0.002-0.022-0.008-0.031
		c-0.023-0.042-0.039-0.089-0.061-0.131c0.284,0.217,0.572,0.43,0.882,0.621c0.271,0.167,0.591-0.163,0.431-0.431
		c-0.635-1.067-1.415-2.071-2.207-3.072c-0.01-0.063-0.019-0.127-0.028-0.19c0.619,0.62,1.32,1.114,2.135,1.343
		c0.375,0.106,0.587-0.347,0.357-0.615c-0.727-0.851-1.368-1.776-1.988-2.715c0.501,0.555,1.261,0.899,1.999,0.995
		c0.295,0.038,0.51-0.317,0.436-0.572c-0.175-0.603-0.466-0.901-0.901-1.361c-0.123-0.129-0.205-0.26-0.27-0.392
		c0.339,0.142,0.738-0.157,0.771-0.511c0.114,0.075,0.219,0.158,0.346,0.224c0.222,0.115,0.57-0.078,0.463-0.356
		c-0.499-1.299-0.964-2.433-1.171-3.721c0.077-0.345,0.125-0.691,0.153-1.041c0.203-0.258,0.303-0.599,0.205-0.941
		c-0.25-0.87-0.223-1.96-0.152-3.017c0.017,0.823,0.11,1.633,0.408,2.385c0.022,0.056,0.058,0.096,0.097,0.127
		c0.137,0.418,0.354,0.791,0.656,1.104c0.188,0.684,0.5,1.298,1.014,1.781c0.349,0.328,0.893,0.09,0.915-0.379
		c0.109-2.342-0.228-4.85-0.192-7.286c0.185-0.579,0.286-1.195,0.359-1.83c0.164,0.531,0.386,1.058,0.682,1.573
		c0.24,0.42,0.975,0.371,1.076-0.141c0.425-2.161,0.866-4.032,1.665-6.009c0.469-0.862,0.905-1.745,1.339-2.628
		c0.612-0.919,1.27-1.646,2.017-2.675c1.287-1.774,2.56-3.486,4.096-5.057c0.217-0.222,0.472-0.519,0.75-0.846
		c0.59-0.222,1.188-0.431,1.804-0.616c3.038-0.913,5.99-2.082,8.993-3.095c1.025-0.175,2.021-0.451,3.03-0.671
		c1.402,0.092,2.793,0.213,4.122,0.271c2.379,0.103,5.142,0.187,7.695,0.593c0.056,0.266,0.208,0.525,0.502,0.725
		c2.129,1.455,4.83,2.832,7.289,3.646c0.261,0.086,0.497,0.065,0.701-0.017c0.12,0.029,0.237,0.064,0.36,0.088
		c0.302,0.061,0.603-0.017,0.865-0.166c0.679,0.228,1.25,0.569,1.537,1.143c0.249,0.498,0.956,0.65,1.415,0.371
		c0.521-0.317,1.045-0.629,1.568-0.942c1.865-0.895,3.86-1.534,5.751-2.379c1.223,0.113,2.446-1.268,3.531-1.626
		c0.789-0.261,1.586-0.54,2.382-0.821c2.598-0.431,5.431-0.51,7.862-0.616c1.328-0.058,2.72-0.179,4.122-0.271
		c1.01,0.22,2.005,0.496,3.03,0.671c3.003,1.014,5.955,2.183,8.993,3.095c0.614,0.185,1.214,0.394,1.804,0.616
		c0.277,0.327,0.533,0.624,0.75,0.846c1.536,1.571,2.809,3.283,4.096,5.057c0.747,1.029,1.404,1.755,2.017,2.675
		c0.434,0.883,0.87,1.766,1.34,2.628c0.799,1.977,1.24,3.849,1.664,6.009c0.102,0.512,0.836,0.561,1.076,0.141
		c0.296-0.516,0.519-1.042,0.682-1.573c0.073,0.635,0.175,1.251,0.358,1.83c0.037,2.437-0.301,4.944-0.191,7.286
		c0.021,0.469,0.566,0.707,0.915,0.379c0.514-0.483,0.827-1.098,1.015-1.781c0.302-0.314,0.519-0.686,0.655-1.104
		c0.039-0.031,0.074-0.071,0.097-0.127c0.298-0.752,0.391-1.562,0.408-2.385c0.07,1.056,0.098,2.147-0.152,3.017
		c-0.099,0.342,0.002,0.683,0.205,0.941c0.027,0.349,0.075,0.696,0.152,1.041c-0.207,1.288-0.671,2.421-1.171,3.721
		c-0.106,0.278,0.241,0.471,0.463,0.356c0.127-0.065,0.233-0.148,0.347-0.224c0.033,0.354,0.432,0.653,0.771,0.511
		c-0.067,0.132-0.147,0.263-0.271,0.392c-0.436,0.459-0.727,0.758-0.902,1.361c-0.073,0.255,0.142,0.61,0.437,0.572
		c0.737-0.096,1.497-0.44,1.999-0.995c-0.621,0.939-1.262,1.864-1.988,2.715c-0.229,0.269-0.018,0.721,0.357,0.615
		c0.814-0.229,1.516-0.724,2.136-1.343c-0.011,0.063-0.019,0.127-0.028,0.19c-0.792,1.001-1.573,2.005-2.207,3.072
		c-0.16,0.269,0.161,0.599,0.431,0.431c0.31-0.191,0.598-0.404,0.882-0.621c-0.021,0.042-0.037,0.089-0.062,0.131
		c-0.005,0.009-0.002,0.022-0.008,0.031c-0.425,0.549-0.729,0.948-0.793,1.055c-0.237,0.393,0.215,0.736,0.574,0.576
		c0.731-0.325,1.4-0.786,2.023-1.321c-0.01,0.23-0.022,0.461-0.031,0.688c-0.216,0.292-0.438,0.58-0.629,0.896
		c-0.205,0.34,0.188,0.648,0.503,0.503c0.027-0.012,0.053-0.03,0.079-0.042c-0.015,0.48-0.021,0.96-0.027,1.44
		c-0.126,0.16-0.242,0.323-0.348,0.494c-0.181,0.291,0.044,0.617,0.34,0.654c0,0.036-0.001,0.073,0,0.11
		c0.003,0.284,0.243,1.021,0.173,1.112c-0.15,0.196-0.056,0.45,0.114,0.595c-0.002,0.004-0.004,0.006-0.006,0.01
		c-0.127,0.181,0.002,0.461,0.207,0.51c0.488,0.116,0.899,0.097,1.246-0.026c0.043,0.076,0.087,0.151,0.13,0.225
		c-0.004,0.075-0.004,0.149-0.009,0.224c-0.004,0.037,0,0.076-0.002,0.113c-0.075,0.191-0.144,0.386-0.229,0.572
		c-0.108,0.236,0.01,0.456,0.243,0.516c0.036,0.607,0.075,1.216,0.023,1.788c-0.229,0.247-0.187,0.667,0.19,0.785
		c0.095,0.063,0.189,0.126,0.284,0.189c0.384,0.291,1.041-0.008,1.132-0.461c0.064-0.325,0.12-0.652,0.177-0.979
		c0.054-0.014,0.106-0.034,0.157-0.059c0.198,0.243,0.396,0.487,0.595,0.732c-0.011,0.051-0.014,0.102-0.03,0.153
		c-0.088,0.272-0.003,0.511,0.154,0.696c0.008,0.308,0.016,0.616,0.024,0.924c-0.166,0.094-0.284,0.257-0.258,0.49
		c0.063,0.564,0.24,1.011,0.369,1.563c0.032,0.142,0.098,0.246,0.173,0.334c0.029,0.449,0.066,0.898,0.115,1.346
		c0.067,0.622,0.898,0.622,0.967,0c0.053-0.485,0.101-0.972,0.144-1.46c0.091-0.12,0.161-0.26,0.172-0.432
		c0.024-0.351,0.055-0.716,0.085-1.088c0.196,0.11,0.416,0.128,0.625,0.075c0.36,2.055,0.324,4.038,0.463,6.149
		c0.004-0.001,0.009-0.001,0.015-0.003c0.002,0.112,0.028,0.208,0.088,0.28c-0.018,0.268-0.037,0.536-0.052,0.805
		c-0.024,0.463,0.7,0.557,0.806,0.109c0.072-0.31,0.208-0.899,0.353-1.635c0.041,0.116,0.078,0.235,0.118,0.351
		c-0.02,0.125-0.04,0.251-0.084,0.355c-0.051,0.118-0.291,1.09-0.314,1.097c-0.26,0.079-0.26,0.449,0,0.527
		c0.019,0.008,0.038,0.016,0.056,0.024c0.165,0.16,0.408,0.149,0.574,0c0.124-0.11,0.234-0.216,0.339-0.32
		c-0.002,0.406-0.006,0.767,0.005,0.843c0.021,0.168,0.038,0.333,0.056,0.499c-0.001,0.332-0.005,0.664-0.007,0.996
		c-0.011,0.059-0.022,0.115-0.035,0.173c-0.266,0.13-0.471,0.377-0.47,0.766c-0.002,0.692,0.01,1.383,0.032,2.073
		c0.002,0.093,0.003,0.186,0.005,0.277c-0.397,0.076-0.764,0.484-0.817,0.893c-0.425,3.229,0.104,6.474-0.396,9.691
		c-0.24,1.547-0.77,2.988-1.26,4.44c-0.483,1.188-0.887,2.4-0.949,3.709c-0.074,0.592,0.576,0.859,1.055,0.709
		c-0.024,0.48-0.031,0.965-0.009,1.455c0.014,0.299,0.464,0.383,0.536,0.072c0.009-0.033,0.018-0.064,0.026-0.098
		c0.142-0.277,0.273-0.559,0.391-0.84c0.021,0.25,0.043,0.498,0.071,0.746c-0.051,0.102-0.095,0.207-0.148,0.309
		c-0.723,1.359-0.801,2.781-1.333,4.205c-0.3,0.801,1.02,1.355,1.384,0.582c0.499-1.057,0.793-2.174,1.188-3.266
		c0.123-0.105,0.244-0.211,0.366-0.314c0.062-0.055-0.027-0.141-0.089-0.09c-0.058,0.045-0.106,0.074-0.154,0.1
		c0.107-0.281,0.215-0.562,0.346-0.838c0.591-1.244,0.956-2.707,0.771-4.083c-0.021-0.159-0.134-0.288-0.267-0.347
		c0.094-0.199,0.189-0.397,0.269-0.599c0.181-0.458,0.319-0.938,0.43-1.428c0.54,0.138,1.209-0.146,1.217-0.87
		c-0.026-2.622,0.307-6.317-0.229-9.509c0.008-0.078,0.014-0.16,0.022-0.239c0.254,0.315,0.523,0.612,0.785,0.924
		c0.247,0.293,0.793,0.137,0.869-0.229c0.21-1.003,0.241-2.061,0.196-3.133c0.316,0.074,0.684-0.083,0.681-0.521
		c-0.002-0.242-0.005-0.492-0.007-0.739c0.163-0.009,0.32-0.121,0.338-0.342c0.184-2.34-0.245-4.443-0.642-6.721
		c-0.102-0.582-0.255-1.154-0.461-1.699c-0.053-0.819-0.123-1.672-0.37-2.337c-0.039-0.107-0.07-0.236-0.104-0.362
		c0.718,0.052,1.104-0.852,1.174-1.856c0.066-0.969,0.104-1.958,0.123-2.956c0.77,0.326,1.649-0.25,1.665-1.1
		c0.03-1.589-0.04-3.235-0.152-4.889c0.322-0.262,0.493-0.676,0.307-1.155c-0.163-1.195-0.365-2.367-0.59-3.525
		c0.064-0.07,0.122-0.15,0.162-0.251c0.52-1.33,0.571-2.884,0.476-4.396c0.086,0.505,0.249,0.966,0.556,1.291
		c0.221,0.235,0.651,0.245,0.872,0c0.308-0.342,0.565-0.809,0.393-1.298c-0.408-1.156-0.275-2.402-0.324-3.619
		c-0.004-0.104-0.016-0.2-0.021-0.301c1.114-0.087,0.971-2.112,0.822-2.869c-0.06-0.303-0.149-0.613-0.247-0.922
		c0.032-0.038,0.062-0.083,0.087-0.151c0.078-0.22,0.136-0.451,0.183-0.687c0.257,0.031,0.534-0.124,0.564-0.477
		C150.653,53.541,150.911,52.666,150.741,51.695z M141.419,31.041c0.049,0.001,0.093-0.011,0.137-0.021
		c0.048,0.109,0.103,0.217,0.146,0.328c0.166,0.424,0.284,0.798,0.387,1.139c-0.034-0.048-0.071-0.092-0.106-0.139
		c-0.216-0.459-0.469-0.894-0.74-1.321C141.302,31.032,141.36,31.04,141.419,31.041z M122.929,15.694
		c-0.232,0.042-0.465,0.097-0.696,0.159c-0.41-0.146-0.813-0.302-1.229-0.436C121.652,15.481,122.293,15.578,122.929,15.694z
		 M8.291,98.611c0.104-1.07,0.126-2.344-0.373-2.989c0.003-0.052,0.005-0.103,0.008-0.156c0.066-0.279,0.14-0.587,0.212-0.912
		c0.207,1.193,0.434,2.384,0.661,3.576c0.068,0.358,0.116,0.793,0.162,1.252C8.807,99.049,8.595,98.772,8.291,98.611z
		 M136.026,63.459c-0.267-0.015-0.542,0.149-0.549,0.503c-0.003,0.127-0.007,0.258-0.01,0.386c-0.243,0.348-0.516,0.675-0.789,1.002
		c-0.028-0.132-0.057-0.261-0.086-0.388c0.584-0.83,1.114-1.682,1.586-2.487c0.162-0.277,0.488-0.91,0.725-1.583
		C136.762,61.864,136.445,62.701,136.026,63.459z M136.958,69.212c-0.007,0.002-0.013,0.007-0.02,0.01
		c-0.012-0.392-0.031-0.784-0.062-1.177c0.269-0.434,0.514-0.877,0.698-1.344C137.413,67.544,137.218,68.378,136.958,69.212z
		 M143.467,98.408c-0.054-0.058-0.121-0.063-0.187-0.049c0.039-0.406,0.08-0.813,0.111-1.228c0.087,0.521,0.188,1.03,0.301,1.532
		C143.607,98.595,143.53,98.513,143.467,98.408z M143.86,80.726c-0.008-0.208-0.019-0.415-0.027-0.623
		c0.1,0.02,0.201,0.026,0.303,0.024c-0.005,0.503-0.018,1-0.039,1.433C144.031,81.271,143.956,80.989,143.86,80.726z
		 M137.063,122.941c-0.063-0.275-0.361-0.414-0.62-0.352c-0.107,0.025-0.191,0.066-0.273,0.115
		c-0.372-0.289-0.973-0.244-1.214,0.295c-0.241-0.074-0.522-0.008-0.666,0.234c-0.077,0.133-0.123,0.266-0.158,0.4
		c-1.126,0.615-2.437,1.547-3.07,2.541c-0.513,0.807-1.12,1.529-1.395,2.373c-0.83,0.92-1.996,2.125-2.242,3.408
		c-0.258,0.266-0.515,0.525-0.76,0.773c-0.671,0.682-1.283,1.338-1.666,2.223c-0.136,0.316-0.142,0.693-0.062,1.037
		c-0.233,0.412-0.471,0.824-0.688,1.248c-0.594,1.168-1.858,2.959-1.397,4.332c-0.31,0.541-0.636,1.074-0.944,1.617
		c-0.26,0.143-0.503,0.262-0.635,0.33c-0.655,0.35-1.275,0.764-1.896,1.176c-0.188,0.027-0.36,0.123-0.461,0.295
		c-1.044,0.646-2.461,1.408-2.84,2.559c-0.857,0.678-1.663,1.496-1.465,2.529c0.006,0.037,0.023,0.07,0.04,0.104
		c-0.01,0.021-0.025,0.039-0.033,0.062c-0.361,1.09-0.67,2.203-0.995,3.309c-0.411,0.643-0.818,1.291-1.158,1.986
		c-0.162,0.33-0.344,0.668-0.531,1.01c-0.271,0.154-0.533,0.301-0.78,0.438c-0.948,0.047-1.901,0.701-2.679,1.16
		c-1.224,0.715-2.467,1.588-2.801,3.059c-0.007,0.027,0.001,0.051-0.004,0.076c-1.332,0.322-2.711,0.586-3.911,1.242
		c-0.724,0.396-0.808,1.086-0.54,1.654c-0.073,0.02-0.151,0.035-0.226,0.057c-0.372,0.107-0.619,0.291-0.781,0.504
		c-0.798,0.164-1.574,0.391-2.259,0.812c-1.659-0.018-3.332,0.039-4.982,0.15c-0.3-0.162-0.593-0.34-0.869-0.557
		c-0.413-0.32-0.918-0.105-1.074,0.254c-0.229-0.064-0.459-0.129-0.687-0.197c-2.366-0.719-4.747-1.576-7.182-2.053
		c-0.903-0.59-1.798-1.184-2.815-1.574c-0.45-0.174-0.945-0.314-1.443-0.463c-0.79-0.555-1.607-1.084-2.472-1.475
		c-0.05-0.115-0.162-0.156-0.27-0.121c-0.175-0.072-0.352-0.135-0.53-0.193c-0.017-0.008-0.035-0.014-0.054-0.018
		c-0.017-0.008-0.034-0.016-0.052-0.02c0.001,0.002,0.002,0.004,0.003,0.006c-0.041-0.006-0.085,0.002-0.129,0.008
		c-0.043-0.006-0.086-0.014-0.128-0.008c0.001-0.002,0.002-0.004,0.002-0.006c-0.018,0.004-0.033,0.012-0.051,0.02
		c-0.02,0.004-0.037,0.01-0.055,0.018c-0.178,0.059-0.354,0.121-0.529,0.193c-0.106-0.035-0.219,0.006-0.27,0.121
		c-0.863,0.391-1.682,0.92-2.473,1.475c-0.497,0.148-0.993,0.289-1.443,0.463c-1.017,0.391-1.911,0.984-2.813,1.574
		c-2.436,0.477-4.816,1.334-7.183,2.053c-0.227,0.068-0.457,0.133-0.687,0.197c-0.155-0.359-0.662-0.574-1.073-0.254
		c-0.277,0.217-0.57,0.395-0.87,0.557c-1.65-0.111-3.324-0.168-4.983-0.15c-0.686-0.422-1.461-0.648-2.258-0.812
		c-0.164-0.213-0.41-0.396-0.782-0.504c-0.074-0.021-0.151-0.037-0.226-0.057c0.268-0.568,0.184-1.258-0.539-1.654
		c-1.201-0.656-2.579-0.92-3.912-1.242c-0.004-0.025,0.003-0.049-0.003-0.076c-0.334-1.471-1.578-2.344-2.8-3.059
		c-0.779-0.459-1.731-1.113-2.68-1.16c-0.246-0.137-0.51-0.283-0.78-0.438c-0.188-0.342-0.369-0.68-0.531-1.01
		c-0.341-0.695-0.746-1.344-1.159-1.986c-0.325-1.105-0.633-2.219-0.995-3.309c-0.008-0.023-0.023-0.041-0.033-0.062
		c0.017-0.033,0.033-0.066,0.04-0.104c0.197-1.033-0.607-1.852-1.465-2.529c-0.379-1.15-1.796-1.912-2.84-2.559
		c-0.1-0.172-0.272-0.268-0.461-0.295c-0.62-0.412-1.24-0.826-1.896-1.176c-0.131-0.068-0.375-0.188-0.633-0.33
		c-0.31-0.543-0.636-1.076-0.944-1.617c0.46-1.373-0.805-3.164-1.399-4.332c-0.216-0.424-0.453-0.836-0.687-1.248
		c0.08-0.344,0.074-0.721-0.062-1.037c-0.382-0.885-0.994-1.541-1.665-2.223c-0.246-0.248-0.502-0.508-0.76-0.773
		c-0.246-1.283-1.413-2.488-2.242-3.408c-0.273-0.844-0.881-1.566-1.395-2.373c-0.74-1.164-2.411-2.244-3.625-2.826
		c-0.106-0.051-0.213-0.055-0.307-0.029c-0.203-0.078-0.459,0.029-0.554,0.26c-0.011-0.012-0.02-0.023-0.03-0.033
		c0.117-0.119,0.159-0.311,0-0.441c-0.095-0.078-0.182-0.129-0.273-0.168c-0.01-0.039-0.022-0.078-0.032-0.117
		c-0.026-0.111-0.197-0.111-0.223,0c-0.005,0.021-0.007,0.043-0.011,0.064c-0.044-0.002-0.078-0.018-0.128-0.016
		c-0.381,0.018-0.378,0.564,0,0.588c0.014,0.002,0.018,0.004,0.029,0.006c0,0.002-0.001,0.006-0.002,0.008
		c-0.046-0.002-0.094,0.008-0.138,0.041c-0.024,0.018-0.038,0.041-0.061,0.059c-0.207-0.014-0.423,0.117-0.446,0.402
		c-0.004,0.053-0.003,0.102-0.006,0.154c-0.166,0.311-0.256,0.662-0.298,1.043c-0.075,0.674,0.411,1.389,0.686,2.049
		c0.142,0.525,0.301,1.068,0.451,1.678c0.319,1.297,0.354,2.496,0.417,3.822c0.027,0.561,0.266,1.145,0.692,1.506
		c0.33,0.281,0.844,0.289,1.17,0.055c0.03,0.066,0.056,0.133,0.089,0.195c0.105,0.195,0.356,0.254,0.555,0.184
		c-0.03,0.689-0.05,1.381-0.053,2.08c-0.005,1.373-0.328,3.113,0.535,4.252c0.241,0.316,0.631,0.324,0.872,0
		c0.037-0.051,0.06-0.104,0.092-0.154c0.073,0.293,0.165,0.58,0.308,0.854c0.095,0.18,0.378,0.182,0.481,0.008
		c0.136,0.305,0.289,0.602,0.482,0.871c0.034,0.049,0.079,0.08,0.123,0.109c-0.021,1.076,0.046,2.121,0.431,3.02
		c-0.03,0.984,0.016,1.963,0.509,2.83c0.162,0.285,0.6,0.285,0.762,0c0.307-0.541,0.431-1.127,0.481-1.727
		c0.334,0.68,0.693,1.355,0.972,2.045c0,0.557,0.04,1.055,0.406,1.58c0.089,1.195,0.043,3.107,1.225,3.166
		c0.13,0.006,0.262-0.031,0.385-0.088c0.403,1.146,0.922,2.234,1.89,2.723c0.008,0.004,0.018,0.002,0.026,0.006
		c-0.048,1.127-0.313,2.373,0.526,3.158c-0.05,0.676-0.128,1.34-0.267,2.027c-0.099,0.49-0.218,0.979-0.094,1.459
		c-0.185,0.756-0.236,1.508,0.182,2.293c0.209,0.395,0.672,0.445,1.012,0.254c0.068,0.285,0.24,0.486,0.454,0.611
		c-0.021,0.703-0.015,1.404,0.087,2.102c0.062,0.424,0.416,0.652,0.805,0.709c0.087,0.145,0.194,0.277,0.325,0.396
		c0.234,0.211,0.553,0.211,0.788,0c0.16-0.145,0.272-0.311,0.367-0.488c0.033,0.631,0.194,1.215,0.701,1.607
		c0.29,0.225,0.572,0.225,0.862,0c0.959-0.742,0.698-2.164,0.625-3.311c0.072,0.439,0.133,0.883,0.165,1.326
		c0.123,1.752,0.162,3.246,1.448,4.561c0.142,0.146,0.334,0.148,0.492,0.066c0.132,0.418,0.291,0.824,0.503,1.209
		c0.12,0.217,0.389,0.252,0.592,0.156c0.036,0.215,0.079,0.428,0.134,0.633c0.434,1.615,0.193,3.814,1.522,4.963
		c0.245,0.213,0.622,0.135,0.721-0.189c0.028-0.092,0.042-0.184,0.061-0.275c0.014,0.021,0.021,0.045,0.035,0.066
		c0.144,0.217,0.459,0.23,0.599,0c0.086-0.143,0.148-0.287,0.196-0.434c0.151,0.549,0.36,1.062,0.718,1.477
		c0.134,0.156,0.393,0.203,0.6,0.137c0.086,0.578,0.17,1.156,0.262,1.74c0.066,0.414,0.54,0.717,0.932,0.709
		c0.458-0.008,0.729-0.271,0.87-0.701c0.276,1.535,0.397,2.9,1.69,4.033c0.243,0.213,0.68,0.221,0.842-0.107
		c0.125-0.252,0.17-0.498,0.181-0.74c0.093,0.729,0.316,1.393,0.952,1.789c0.166,0.102,0.43,0.117,0.594,0
		c0.173-0.123,0.311-0.262,0.421-0.416c0.156,0.766,0.354,1.508,0.804,2.221c0.225,0.355,0.582,0.469,0.981,0.4
		c0.367-0.064,0.558-0.375,0.623-0.852c0.093,0.127,0.196,0.252,0.323,0.363c0.185,0.164,0.491,0.203,0.669,0
		c0.07-0.078,0.122-0.16,0.173-0.242c0.727,1.793,1.366,3.619,2.373,5.258c0.188,0.305,0.674,0.26,0.769-0.102
		c0.502-1.906,0.047-3.678-0.792-5.387c-0.003-0.02-0.006-0.039-0.009-0.061c0.156,0.322,0.33,0.637,0.516,0.949
		c0.269,0.531,0.532,1.064,0.751,1.598c0.98,2.391,0.616,5.098,1.675,7.363c0.204,0.438,0.759,0.229,0.903-0.117
		c0.159-0.379,0.249-0.783,0.292-1.197c0.15,0.732,0.319,1.453,0.697,2.125c0.169,0.301,0.696,0.346,0.854,0
		c0.219-0.482,0.353-0.957,0.415-1.426c0.49,1.65,0.858,3.332,1.465,5.07c0.134,0.383,0.655,0.395,0.788,0.004
		c0.05,0.105,0.095,0.213,0.146,0.316c0.102,0.207,0.415,0.188,0.528,0.006c0.333,1.248,0.817,2.418,1.602,3.385
		c0.265,0.324,0.659,0.051,0.719-0.273c0.321,1.084,0.694,2.141,1.17,3.121c0.167,0.346,0.644,0.146,0.666-0.18
		c0.019-0.285,0.015-0.572,0.011-0.859c0.138,1.627,0.358,3.229,0.93,4.734c0.089,0.234,0.389,0.301,0.551,0.143
		c-0.032,1.627,0.184,3.184,1.144,4.012c0.222,0.191,0.557,0.229,0.772,0c0.308-0.322,0.495-0.742,0.607-1.217
		c0.144-0.025,0.281-0.096,0.376-0.238c0.825-1.252,0.465-3.137,0.339-4.678c0.056-0.232,0.092-0.475,0.136-0.713
		c0.009,0.248,0.014,0.494,0.025,0.742c0.104,2.348-0.147,5.197,0.62,7.404c0.117,0.338,0.475,0.391,0.701,0.199
		c0.06,0.783,0.218,1.547,0.547,2.277c0.062,0.383,0.139,0.764,0.251,1.133c0.149,0.49,0.844,0.49,0.993,0
		c0.202-0.666,0.33-1.35,0.411-2.043c0.091,0.057,0.201,0.082,0.322,0.059c0.113-0.023,0.228-0.047,0.342-0.068
		c0.231-0.047,0.421-0.264,0.482-0.484c0.184-0.658,0.308-1.324,0.407-1.992c0.002,0,0.004,0,0.005,0
		c0.035,0.002,0.07,0.002,0.105-0.006c0.021-0.004,0.04-0.012,0.062-0.02c0.039-0.012,0.079-0.021,0.115-0.043
		c0.117-0.066,0.207-0.164,0.238-0.283c0.438-0.707,0.479-1.844,0.479-2.795c0.288,0.221,0.708,0.234,0.932-0.193
		c0.27-0.52,0.4-1.043,0.468-1.574c0.01-0.025,0.024-0.049,0.034-0.072c0.076,0.752,0.231,1.477,0.526,2.143
		c0.091,0.207,0.452,0.207,0.545,0c0.205-0.463,0.32-0.938,0.391-1.42c0.068-0.025,0.133-0.07,0.184-0.133
		c0.161,0.166,0.468,0.098,0.559-0.139c0.569-1.506,0.792-3.107,0.929-4.734c-0.003,0.287-0.009,0.574,0.011,0.859
		c0.022,0.326,0.499,0.525,0.667,0.18c0.476-0.98,0.849-2.037,1.171-3.121c0.059,0.324,0.453,0.598,0.717,0.273
		c0.785-0.967,1.269-2.137,1.603-3.385c0.112,0.182,0.426,0.201,0.527-0.006c0.052-0.104,0.097-0.211,0.146-0.316
		c0.134,0.391,0.654,0.379,0.788-0.004c0.607-1.738,0.976-3.42,1.466-5.07c0.063,0.469,0.195,0.943,0.416,1.426
		c0.155,0.346,0.683,0.301,0.853,0c0.378-0.672,0.547-1.393,0.697-2.125c0.043,0.414,0.134,0.818,0.291,1.197
		c0.145,0.346,0.699,0.555,0.904,0.117c1.059-2.266,0.695-4.973,1.675-7.363c0.219-0.533,0.481-1.066,0.752-1.598
		c0.186-0.312,0.359-0.627,0.515-0.949c-0.003,0.021-0.006,0.041-0.009,0.061c-0.839,1.709-1.294,3.48-0.792,5.387
		c0.095,0.361,0.582,0.406,0.77,0.102c1.007-1.639,1.646-3.465,2.372-5.258c0.052,0.082,0.104,0.164,0.174,0.242
		c0.179,0.203,0.485,0.164,0.669,0c0.128-0.111,0.23-0.236,0.323-0.363c0.064,0.477,0.257,0.787,0.623,0.852
		c0.4,0.068,0.757-0.045,0.981-0.4c0.45-0.713,0.647-1.455,0.804-2.221c0.11,0.154,0.249,0.293,0.422,0.416
		c0.163,0.117,0.428,0.102,0.594,0c0.635-0.396,0.859-1.061,0.952-1.789c0.011,0.242,0.056,0.488,0.181,0.74
		c0.162,0.328,0.599,0.32,0.842,0.107c1.293-1.133,1.413-2.498,1.689-4.033c0.142,0.43,0.413,0.693,0.871,0.701
		c0.393,0.008,0.866-0.295,0.932-0.709c0.092-0.584,0.176-1.162,0.261-1.74c0.208,0.066,0.468,0.02,0.602-0.137
		c0.357-0.414,0.567-0.928,0.718-1.477c0.048,0.146,0.109,0.291,0.195,0.434c0.141,0.23,0.457,0.217,0.6,0
		c0.015-0.021,0.021-0.045,0.035-0.066c0.019,0.092,0.032,0.184,0.061,0.275c0.1,0.324,0.476,0.402,0.721,0.189
		c1.329-1.148,1.089-3.348,1.522-4.963c0.056-0.205,0.099-0.418,0.134-0.633c0.203,0.096,0.472,0.061,0.592-0.156
		c0.213-0.385,0.371-0.791,0.504-1.209c0.157,0.082,0.35,0.08,0.492-0.066c1.286-1.314,1.324-2.809,1.448-4.561
		c0.031-0.443,0.092-0.887,0.164-1.326c-0.073,1.146-0.333,2.568,0.625,3.311c0.291,0.225,0.573,0.225,0.862,0
		c0.507-0.393,0.668-0.977,0.7-1.607c0.095,0.178,0.208,0.344,0.367,0.488c0.234,0.211,0.553,0.211,0.788,0
		c0.131-0.119,0.237-0.252,0.324-0.396c0.391-0.057,0.742-0.285,0.806-0.709c0.103-0.697,0.108-1.398,0.087-2.102
		c0.214-0.125,0.386-0.326,0.454-0.611c0.34,0.191,0.803,0.141,1.012-0.254c0.418-0.785,0.367-1.537,0.183-2.293
		c0.123-0.48,0.004-0.969-0.094-1.459c-0.14-0.688-0.218-1.352-0.268-2.027c0.84-0.785,0.575-2.031,0.526-3.158
		c0.009-0.004,0.018-0.002,0.026-0.006c0.968-0.488,1.486-1.576,1.89-2.723c0.124,0.057,0.255,0.094,0.386,0.088
		c1.181-0.059,1.135-1.971,1.224-3.166c0.367-0.525,0.406-1.023,0.406-1.58c0.279-0.689,0.638-1.365,0.973-2.045
		c0.05,0.6,0.174,1.186,0.48,1.727c0.162,0.285,0.601,0.285,0.763,0c0.493-0.867,0.539-1.846,0.509-2.83
		c0.386-0.898,0.452-1.943,0.431-3.02c0.044-0.029,0.09-0.061,0.124-0.109c0.193-0.27,0.346-0.566,0.482-0.871
		c0.104,0.174,0.386,0.172,0.481-0.008c0.144-0.273,0.235-0.561,0.308-0.854c0.033,0.051,0.056,0.104,0.093,0.154
		c0.239,0.324,0.63,0.316,0.87,0c0.863-1.139,0.541-2.879,0.535-4.252c-0.002-0.699-0.023-1.391-0.053-2.08
		c0.198,0.07,0.449,0.012,0.554-0.184c0.331-0.613,0.497-1.311,0.598-2.031c0.183,0.049,0.385-0.025,0.479-0.254
		c0.559-1.355,0.427-2.809,0.767-4.217c0.082-0.342,0.138-0.682,0.198-1.021c0.129-0.307,0.251-0.611,0.348-0.906
		c0.082-0.014,0.163-0.035,0.236-0.074C137.371,125.381,137.307,123.99,137.063,122.941z M22.824,143.006
		c-0.033-0.029-0.067-0.043-0.101-0.066c-0.064-0.486-0.136-0.961-0.166-1.395c-0.001-0.025-0.004-0.053-0.005-0.078
		c0.034,0.07,0.081,0.137,0.158,0.189c0.213,0.148,0.322,0.877,0.382,1.643C23.002,143.203,22.92,143.098,22.824,143.006z
		 M128.241,141.545c-0.03,0.434-0.102,0.908-0.166,1.395c-0.033,0.023-0.068,0.037-0.101,0.066c-0.097,0.092-0.178,0.197-0.27,0.293
		c0.061-0.766,0.17-1.494,0.383-1.643c0.077-0.053,0.125-0.119,0.159-0.189C128.245,141.492,128.242,141.52,128.241,141.545z"/>
</g>
<g id="Layer_1">
</g>
</svg>
