<?xml version="1.0" encoding="iso-8859-1"?>
<!-- Generator: Adobe Illustrator 16.0.0, SVG Export Plug-In . SVG Version: 6.00 Build 0)  -->
<!DOCTYPE svg PUBLIC "-//W3C//DTD SVG 1.1//EN" "http://www.w3.org/Graphics/SVG/1.1/DTD/svg11.dtd">
<svg version="1.1" xmlns="http://www.w3.org/2000/svg" xmlns:xlink="http://www.w3.org/1999/xlink" x="0px" y="0px"
	 width="59.387px" height="17.769px" viewBox="0 0 59.387 17.769" style="enable-background:new 0 0 59.387 17.769;"
	 xml:space="preserve">
<g id="Layer_3">
	<path style="fill-rule:evenodd;clip-rule:evenodd;" d="M29.782,3.832c0.131-0.094,0.178-0.109,0.194-0.142
		c1.965-3.868,5.342-4.581,9.635-2.672c1.802,0.801,3.346,2.277,4.847,3.626c1.451,1.305,2.653,2.881,4.041,4.263
		c1.684,1.678,3.697,2.626,6.15,2.429c1.37-0.11,2.562-0.557,3.488-1.621c0.273-0.314,0.613-0.571,0.923-0.854
		c0.108,0.04,0.218,0.081,0.326,0.121c-0.025,0.432,0.021,0.883-0.091,1.29c-0.548,2.008-1.93,3.373-3.607,4.468
		c-3.07,2.004-6.538,2.779-10.119,2.99c-1.86,0.109-3.763-0.022-5.61-0.29c-3.476-0.502-6.388-2.122-8.794-4.728
		c-1.422-1.539-1.486-1.439-2.803,0.158c-1.551,1.882-3.6,3.047-5.892,3.744c-5.331,1.62-10.646,1.511-15.883-0.427
		c-2.256-0.835-4.245-2.121-5.504-4.234C0.567,11.085,0.353,10.038,0,9.073C0.138,8.997,0.274,8.92,0.412,8.844
		c0.235,0.168,0.505,0.305,0.702,0.511c2.01,2.103,4.376,2.73,7.04,1.456c1.475-0.705,2.814-1.809,4.018-2.943
		c1.654-1.559,3.042-3.397,4.688-4.966c1.979-1.887,4.41-2.868,7.181-2.85c1.996,0.015,3.67,0.701,4.789,2.458
		C29.105,2.945,29.432,3.348,29.782,3.832z"/>
</g>
<g id="Layer_1">
</g>
</svg>
