<?xml version="1.0" encoding="iso-8859-1"?>
<!-- Generator: Adobe Illustrator 16.0.0, SVG Export Plug-In . SVG Version: 6.00 Build 0)  -->
<!DOCTYPE svg PUBLIC "-//W3C//DTD SVG 1.1//EN" "http://www.w3.org/Graphics/SVG/1.1/DTD/svg11.dtd">
<svg version="1.1" xmlns="http://www.w3.org/2000/svg" xmlns:xlink="http://www.w3.org/1999/xlink" x="0px" y="0px"
	 width="59.345px" height="25.726px" viewBox="0 0 59.345 25.726" style="enable-background:new 0 0 59.345 25.726;"
	 xml:space="preserve">
<g id="Layer_6">
	<path style="fill-rule:evenodd;clip-rule:evenodd;" d="M5.274,25.542c-3.49-1.674-5.898-6.833-5.132-10.861
		c0.746-3.92,3.042-6.837,6.188-9.091C11.483,1.9,17.268,0.044,23.618,0.046c4.759,0.001,9.529-0.158,14.273,0.113
		c7.059,0.404,13.373,2.793,18.161,8.245c2.592,2.95,3.919,6.414,3.002,10.418c-0.662,2.895-2.463,5.025-4.891,6.903
		c-0.096-1.012-0.087-1.881-0.272-2.707c-0.585-2.604-2.157-4.641-4.394-5.898c-2.485-1.397-5.163-2.501-7.849-3.48
		c-3.562-1.3-7.047-2.66-9.65-5.566c-0.844-0.943-1.591-1.973-2.361-2.936c-2.464,3.723-5.803,6.424-10.174,7.815
		c-1.863,0.593-3.749,1.163-5.528,1.961c-1.665,0.747-3.306,1.639-4.771,2.718C6.562,19.549,5.012,22.115,5.274,25.542z"/>
</g>
<g id="Layer_1">
</g>
</svg>
