<?xml version="1.0" encoding="iso-8859-1"?>
<!-- Generator: Adobe Illustrator 16.0.0, SVG Export Plug-In . SVG Version: 6.00 Build 0)  -->
<!DOCTYPE svg PUBLIC "-//W3C//DTD SVG 1.1//EN" "http://www.w3.org/Graphics/SVG/1.1/DTD/svg11.dtd">
<svg version="1.1" xmlns="http://www.w3.org/2000/svg" xmlns:xlink="http://www.w3.org/1999/xlink" x="0px" y="0px"
	 width="59.438px" height="16.755px" viewBox="0 0 59.438 16.755" style="enable-background:new 0 0 59.438 16.755;"
	 xml:space="preserve">
<g id="Layer_8">
	<path style="fill-rule:evenodd;clip-rule:evenodd;" d="M0,6.13c0.422-0.938,0.722-1.96,1.291-2.798
		C3.019,0.788,6.81,0.52,8.933,2.711c1.153,1.19,1.386,2.714,0.642,4.19C8.888,8.262,7.592,8.972,6.137,8.785
		C4.305,8.55,3.359,6.678,4.422,5.135c0.12,0.436,0.231,0.792,0.316,1.156c0.197,0.842,0.391,1.711,1.521,1.656
		c1.135-0.055,2.151-1.11,2.18-2.184C8.49,3.848,6.367,2.399,4.55,3.109C2.48,3.917,1.692,6.025,2.706,8.041
		c1.081,2.151,3.727,3.271,6.158,2.214c1.637-0.712,3.125-1.885,4.488-3.072c1.469-1.28,2.676-2.857,4.068-4.232
		c1.802-1.781,4-2.718,6.546-2.881c1.966-0.125,3.511,0.547,4.652,2.161c0.314,0.444,0.682,0.85,1.07,1.329
		c0.24-0.199,0.421-0.295,0.526-0.445c2.232-3.175,5.593-4.02,8.978-2.083c1.266,0.724,2.393,1.73,3.475,2.724
		c1.795,1.648,3.438,3.466,5.268,5.071c1.748,1.534,3.777,2.424,6.186,1.613c1.974-0.666,3.193-2.529,2.992-4.54
		c-0.152-1.53-1.324-2.74-2.859-2.954c-1.297-0.181-2.413,0.492-2.935,1.773c-0.382,0.938-0.335,1.822,0.476,2.511
		c0.646,0.549,1.398,0.81,2.213,0.349c0.954-0.54,1.158-1.358,0.801-2.36c-0.023-0.063,0.021-0.15,0.044-0.292
		c0.804,0.541,0.937,1.24,0.651,2.074c-0.428,1.256-1.569,1.971-2.895,1.819c-1.467-0.168-2.791-1.518-2.969-3.027
		c-0.35-2.977,2.408-5.156,5.577-4.406c3.294,0.78,5.207,4.493,3.695,7.52c-0.622,1.246-1.581,2.463-2.684,3.305
		C50,16.971,43.143,17.988,35.764,15.277c-1.926-0.707-3.461-1.971-4.796-3.491c-0.786-0.895-1.548-1.029-2.373-0.063
		c-2.742,3.21-6.37,4.603-10.449,4.922c-4.709,0.37-9.15-0.554-13.176-3.128C2.622,12.016,0.748,10.122,0,7.33C0,6.93,0,6.53,0,6.13
		z"/>
</g>
<g id="Layer_1">
</g>
</svg>
