<?xml version="1.0" encoding="iso-8859-1"?>
<!-- Generator: Adobe Illustrator 16.0.0, SVG Export Plug-In . SVG Version: 6.00 Build 0)  -->
<!DOCTYPE svg PUBLIC "-//W3C//DTD SVG 1.1//EN" "http://www.w3.org/Graphics/SVG/1.1/DTD/svg11.dtd">
<svg version="1.1" xmlns="http://www.w3.org/2000/svg" xmlns:xlink="http://www.w3.org/1999/xlink" x="0px" y="0px"
	 width="59.299px" height="19.103px" viewBox="0 0 59.299 19.103" style="enable-background:new 0 0 59.299 19.103;"
	 xml:space="preserve">
<g id="Layer_9">
	<path style="fill-rule:evenodd;clip-rule:evenodd;" d="M59.299,11.405c-0.124,0.326-0.271,0.646-0.37,0.979
		c-1.269,4.23-4.197,6.517-8.6,6.695c-4.615,0.188-9.054-0.802-13.449-2.051c-1.152-0.327-2.312-0.65-3.425-1.09
		c-1.313-0.519-2.58-1.16-3.979-1.8c-3.212,2.221-7.221,3.058-11.179,3.875c-2.917,0.603-5.927,0.93-8.906,1.018
		c-6.18,0.183-8.748-3.942-9.312-8.477C-0.697,4.329,4.388-0.832,10.246,0.112c2.191,0.353,3.699,1.98,3.739,4.032
		c0.04,2.122-1.394,3.912-3.656,4.394c0.153-0.264,0.235-0.454,0.358-0.612c0.644-0.834,0.867-1.736,0.292-2.67
		C10.375,4.276,9.403,3.892,8.3,4.032c-0.57,0.072-1.2,0.29-1.642,0.643C5.056,5.958,4.813,7.77,4.983,9.666
		c0.155,1.743,1.422,2.499,2.885,2.999c2.351,0.803,5.272-0.101,6.258-2.238c2.299-4.982,6.339-5.935,11.267-5.384
		c0.277,0.031,0.566,0.039,0.829,0.122c2.395,0.761,4.733,0.441,7.167-0.009c4.903-0.907,8.954,0.385,11.672,4.986
		c1.817,3.077,5.074,3.66,7.824,1.752c1.403-0.975,1.721-2.327,1.461-3.898c-0.286-1.731-0.939-3.254-2.7-3.958
		c-1.044-0.417-2.416,0.121-3.189,1.118c-0.749,0.967-0.413,1.874,0.155,2.765c0.105,0.167,0.228,0.322,0.359,0.505
		c-1.48-0.054-2.975-1.422-3.47-3.139c-0.47-1.625,0.022-3.388,1.504-4.187c1.082-0.583,2.401-1.051,3.604-1.027
		c4.171,0.083,7.252,2.622,8.422,6.623c0.063,0.218,0.179,0.42,0.27,0.63C59.299,8.685,59.299,10.045,59.299,11.405z"/>
</g>
<g id="Layer_1">
</g>
</svg>
