<?xml version="1.0" encoding="iso-8859-1"?>
<!-- Generator: Adobe Illustrator 16.0.0, SVG Export Plug-In . SVG Version: 6.00 Build 0)  -->
<!DOCTYPE svg PUBLIC "-//W3C//DTD SVG 1.1//EN" "http://www.w3.org/Graphics/SVG/1.1/DTD/svg11.dtd">
<svg version="1.1" xmlns="http://www.w3.org/2000/svg" xmlns:xlink="http://www.w3.org/1999/xlink" x="0px" y="0px"
	 width="59.159px" height="20.764px" viewBox="0 0 59.159 20.764" style="enable-background:new 0 0 59.159 20.764;"
	 xml:space="preserve">
<g id="Layer_10">
	<path style="fill-rule:evenodd;clip-rule:evenodd;" d="M0,8.309c0.912-0.512,1.344,0.133,1.773,0.75
		c0.41,0.589,0.799,1.193,1.198,1.79c0.151-0.059,0.302-0.117,0.453-0.176C3.33,9.945,3.235,9.217,3.158,8.629
		c0.931,0.918,1.939,1.913,2.948,2.908c0.065-0.076,0.13-0.152,0.196-0.228c-0.104-0.487-0.208-0.973-0.343-1.601
		c1.25,0,2.37,0,3.673,0c-0.939-0.717-1.697-1.294-2.728-2.08c1.413,0.249,2.439,0.429,3.565,0.627
		c0.036-0.478,0.058-0.761,0.08-1.053c0.791-0.076,1.528-0.148,2.314-0.224c-0.311-0.592-0.563-1.073-0.855-1.628
		c0.802,0.067,1.45,0.122,2.31,0.193c-0.276-0.47-0.424-0.722-0.571-0.974c0.562-0.33,1.815,0.269,1.584-1.003
		c1.444-0.771,2.883-1.458,4.239-2.282c2.078-1.263,4.254-1.779,6.494-0.696c1.075,0.52,1.946,1.471,2.885,2.256
		c0.256,0.214,0.426,0.532,0.573,0.723c0.788-0.693,1.625-1.212,2.164-1.948c1.291-1.768,3.019-1.659,4.839-1.378
		c0.354,0.055,0.724,0.229,1.058,0.175c1.611-0.261,2.56,0.929,3.738,1.624c0.85,0.501,1.721,0.966,2.688,1.506
		c-0.285,0.543,0.275,0.696,0.769,1.149c0.624,0.574,1.104,0.948,1.933,0.774c0.062,0.417,0.123,0.833,0.184,1.249
		c-0.112,0.078-0.225,0.155-0.336,0.232c0.357,0.047,0.716,0.095,1.074,0.142c0.505,0.066,1.188-0.185,1.177,0.767
		c-0.001,0.117,0.655,0.387,0.965,0.335c0.736-0.123,1.448-0.396,2.347-0.391c-0.705,0.593-1.41,1.187-2.115,1.78
		c0.029,0.086,0.057,0.173,0.086,0.259c0.69-0.152,1.381-0.303,2.08-0.457c0.457,1.24,2.096,1.155,3.933-0.355
		c-0.046,0.548-0.083,1.011-0.122,1.474c0.076,0.053,0.152,0.107,0.229,0.161c0.336-0.335,0.695-0.65,1-1.012
		c0.176-0.208,0.199-0.592,0.402-0.716c0.441-0.271,0.954-0.427,1.438-0.63c0.028,0.477,0.188,0.992,0.059,1.421
		c-0.347,1.158-0.709,2.337-1.281,3.391c-0.314,0.579-1.043,0.95-1.626,1.359c-0.376,0.264-0.824,0.424-1.538,0.779
		c0.918,0,1.494,0,2.07,0c0.035,0.135,0.07,0.269,0.105,0.403c-1.227,0.307-2.453,0.614-3.68,0.922
		c-0.008,0.069-0.016,0.138-0.023,0.207c0.781,0.154,1.562,0.31,2.344,0.465c-0.004,0.104-0.007,0.208-0.01,0.312
		c-1.511,0-3.021,0-4.53,0c-0.028,0.125-0.058,0.25-0.087,0.375c0.43,0.173,0.861,0.346,1.435,0.575
		c-0.411,0.051-0.701,0.086-1.115,0.137c0.268,0.17,0.413,0.262,0.62,0.394c-0.175,0.044-0.279,0.091-0.384,0.092
		c-0.879,0.011-1.806-0.162-2.626,0.06c-1.148,0.31-2.25,0.743-3.537,0.672c0.25,0.274,0.5,0.549,0.787,0.864
		c-1.162,0.27-1.756-1.56-3.115-0.845c-1.578-1.242-1.578-1.242-2.258-0.073c-0.978-0.729-1.946-1.45-2.915-2.172
		c-0.058,0.052-0.116,0.104-0.175,0.157c0.229,0.38,0.458,0.761,0.917,1.521c-0.816-0.256-1.512-0.259-1.798-0.603
		c-1.049-1.261-2.508-1.706-4.082-2.317c0.109,0.562,0.204,1.042,0.298,1.521c-0.125,0.038-0.25,0.077-0.375,0.115
		c-0.338-1.123-0.583-2.285-1.041-3.357c-0.425-0.995-1.077-1.893-1.582-2.753c-2.545,1.346-1.983,4.205-3.458,6.012
		c0.07-0.364,0.141-0.729,0.212-1.101c-2.235-0.009-3.604,1.545-5.341,2.973c0.19-0.856,0.318-1.435,0.506-2.285
		c-1.021,0.74-1.913,1.387-2.842,2.061c-0.486-1.012-0.986-0.872-1.828-0.337c-0.871,0.553-1.979,0.732-3.044,1.096
		c0.028-0.192,0.062-0.428,0.116-0.81c-0.877,0.111-1.672,0.213-2.807,0.357c0.583-0.4,0.879-0.604,1.175-0.808
		c-0.047-0.1-0.094-0.2-0.142-0.3c-1.07,0.423-2.141,0.847-3.4,1.345c0.29-0.414,0.458-0.655,0.66-0.943
		c-0.947-0.216-1.824-0.415-2.947-0.671c0.978-0.248,1.719-0.437,2.46-0.624c0-0.068-0.001-0.136-0.001-0.204
		c-1.775,0-3.549,0-5.324,0c-0.016-0.116-0.033-0.233-0.049-0.35c0.767-0.168,1.534-0.335,2.301-0.503
		c0.035-0.104,0.069-0.209,0.104-0.312c-1.223-0.328-2.447-0.657-3.67-0.985c0.03-0.107,0.059-0.215,0.088-0.322
		c0.594,0.107,1.188,0.216,1.781,0.323c0.035-0.088,0.07-0.177,0.105-0.265c-0.541-0.293-1.154-0.503-1.606-0.897
		c-0.664-0.58-1.575-0.866-1.527-2.195C1.461,11.312,0.51,10.402,0,9.508C0,9.108,0,8.708,0,8.309z"/>
</g>
<g id="Layer_1">
</g>
</svg>
