<?xml version="1.0" encoding="iso-8859-1"?>
<!-- Generator: Adobe Illustrator 16.0.0, SVG Export Plug-In . SVG Version: 6.00 Build 0)  -->
<!DOCTYPE svg PUBLIC "-//W3C//DTD SVG 1.1//EN" "http://www.w3.org/Graphics/SVG/1.1/DTD/svg11.dtd">
<svg version="1.1" xmlns="http://www.w3.org/2000/svg" xmlns:xlink="http://www.w3.org/1999/xlink" x="0px" y="0px"
	 width="180.285px" height="213.335px" viewBox="0 0 180.285 213.335" style="enable-background:new 0 0 180.285 213.335;"
	 xml:space="preserve">
<g id="Layer_6">
	<linearGradient id="SVGID_1_" gradientUnits="userSpaceOnUse" x1="90.1431" y1="213.335" x2="90.1431" y2="4.882812e-04">
		<stop  offset="0" style="stop-color:#000000"/>
		<stop  offset="1" style="stop-color:#4D4D4D"/>
	</linearGradient>
	<path style="fill:url(#SVGID_1_);" d="M116.292,170.402c-2.63-7.271-12.704-8.746-19.73-6.699c-0.46-0.172-0.905-0.326-1.475-0.393
		c-0.614-0.072-1.239,0.076-1.847,0.231c-1.235-0.065-2.437,0.036-3.611,0.266c-0.872-0.069-1.649,0.296-2.66,0.417
		c-1.294,0.154-2.29,0.576-3.303,1.256c-0.59,0.309-1.124,0.73-1.729,1.085c-1.255,0.737-2.347,1.591-3.392,2.603
		c-0.601,0.582-1.278,1.492-1.691,2.463c-0.096,0.132-0.198,0.261-0.286,0.396c-0.873,1.354-1.23,3.641-0.58,5.263
		c-0.177,1.125-0.252,2.38,0.209,3.336c0.09,1.066,0.405,1.985,1.075,2.542c0.316,1.019,0.688,2.062,1.249,2.898
		c0.613,1.244,1.424,2.646,2.615,3.325c0.035,0.062,0.082,0.104,0.125,0.152c0.119,0.76,1.531,1.193,1.787,0.125
		c0.083-0.342,0.557-0.743,0.761-1.037c0.235-0.338,0.418-0.717,0.601-1.096c0.067,0.743,0.241,1.511,0.582,2.141
		c-0.097,0.782-0.152,1.572-0.098,2.396c0.041,0.625,0.118,1.291,0.187,1.959c-0.006,0.364-0.019,0.727-0.006,1.098
		c0.02,0.58,0.06,1.33,0.183,2.077c0.03,0.739,0.238,1.528,0.359,2.069c0.196,0.873,0.576,2.846,1.485,3.668
		c0.036,0.146,0.101,0.262,0.183,0.362c0.11,0.305,1.292,1.939,1.346,1.933c0.006-0.002,0.01-0.004,0.016-0.006
		c0.034,0.039,1.433-1.684,1.674-2.055c-0.056,0.977-0.038,1.941,0.238,3c0.246,0.941,0.676,2.252,1.401,3.083
		c0.181,1.017,0.193,0.956,0.713,1.896c0.062,0.112,0.141,0.193,0.226,0.258c0.251,0.506,1.208,1.921,1.208,1.921
		s1.603-0.724,2.018-1.628c0.302-0.146,0.613-0.284,0.867-0.443c0.293-0.183,0.566-0.383,0.832-0.592
		c0.028-0.014,0.058-0.025,0.086-0.037c0.28,0.148,0.661,0.142,0.891-0.097c0.282-0.291,0.535-0.624,0.775-0.976
		c0.275-0.273,0.53-0.6,0.756-1.012c0.904-1.655,1.398-3.255,1.519-4.923c0.081-0.188,0.152-0.393,0.229-0.587
		c0.359,0.604,1.925,1.578,2.062,1.373c0.517-0.773,0.705-1.593,0.768-2.437c0.05-0.071,0.096-0.147,0.12-0.238
		c0.46-1.7,0.703-3.514,0.933-5.263c0.109-0.83,0.324-1.771,0.51-2.736c0.257-0.584,0.496-1.15,0.673-1.68
		c0.198-0.594,0.568-2.314,0.748-4.138c0.327,0.618,0.309,5.795,1.25,8.318c0.153,0.41,0.735,0.451,0.872,0
		c0.493-1.623,1.14-3.18,1.844-4.7c0.392-0.074,0.731-0.371,0.71-0.855c-0.011-0.252,0.015-0.512,0.066-0.773
		c0.562-1.152,1.139-2.293,1.687-3.432c0.194-0.332,0.359-0.672,0.479-1.016c0.521-1.129,0.999-2.264,1.396-3.416
		c0.158-0.356,0.282-0.755,0.376-1.188C117.493,177.654,117.688,174.266,116.292,170.402z M87.585,151.319
		c-0.601-0.237-4.532,0.456-5.646,0.624c-2.519,0.376-4.941,0.891-7.407,1.473c-2.076,0.49-4.103,1.056-6.159,1.603
		c-0.939,0.251-8.958,2.136-8.401-0.099c1.1-4.409,7.744-8.017,12.121-9.416c5.914-1.891,11.824-2.689,18.062-2.662
		C98.075,142.876,95.605,154.481,87.585,151.319z M102.804,142.842c6.237-0.027,12.147,0.771,18.062,2.662
		c4.377,1.399,11.02,5.007,12.12,9.416c0.558,2.234-7.462,0.35-8.401,0.099c-2.056-0.547-4.082-1.112-6.159-1.603
		c-2.466-0.582-4.888-1.097-7.407-1.473c-1.114-0.168-5.046-0.861-5.646-0.624C97.352,154.481,94.881,142.876,102.804,142.842z
		 M178.479,47.562c-0.871-2.768-1.314-5.773-2.944-8.229c-1.818-2.738-2.486-5.941-4.128-8.762
		c-2.098-3.605-5.452-7.071-9.185-9.279c0.548,0.187,1.099,0.353,1.646,0.488c2.493,0.617,4.588,0.243,7.063-0.083
		c0.377-0.05,0.405-0.615,0-0.609c-2.83,0.036-5.434,0.263-8.168-0.767c-2.879-1.084-5.065-2.971-7.786-4.278
		c-2.382-1.144-5.197-2.033-7.817-2.334c-3.023-0.348-5.952-1.096-9.002-0.974c-6.009,0.24-11.825-0.605-17.763,0.779
		c-0.781,0.182-1.624,0.381-2.491,0.61c0.112-1.31,0.356-2.62,0.641-3.848c0.441-1.911,1.186-3.742,2.036-5.501
		c0.404-0.834,0.858-1.644,1.287-2.464c0.228-0.434,0.323-1.009,0.484-1.493c0.165-0.039,0.328-0.088,0.493-0.123
		c0.396-0.083,0.301-0.702-0.094-0.695c-3.096,0.051-6.247,1.812-8.975,3.143c-3.404,1.663-6.632,3.462-9.512,5.95
		c-0.307,0.266-0.604,0.541-0.895,0.822c0.078-1.243,0.194-2.482,0.395-3.716c0.113-0.697,0.264-1.389,0.411-2.079
		c-0.041,0.188,0.336-1.652,0.092-1.47c0.002-0.001,0.002-0.003,0.004-0.003c0.075-0.027,0.149-0.062,0.225-0.085
		c0.458-0.146,0.267-0.794-0.195-0.71c-0.008,0.002-0.017,0.004-0.025,0.006c-0.129-0.086-0.286-0.1-0.445-0.02
		c-0.09,0.044-0.163,0.109-0.229,0.182c-2.131,0.583-4.104,1.962-5.978,3.057c-2.093,1.223-4.287,2.875-5.757,4.816
		c-1.024,1.354-1.897,3.048-2.414,4.835c-0.619-1.366-1.426-2.581-2.385-3.751c-2.386-2.908-6.015-4.434-9.207-6.234
		c-3.32-1.872-7.153-3.124-10.83-4.075c-2.511-0.651-5.475-1.008-7.888,0.204c-0.267,0.014-0.532,0.026-0.801,0.059
		c-0.402,0.048-0.577,0.681-0.104,0.771c1.332,0.252,2.679,0.362,4.021,0.556c1.314,0.189,2.537,1.065,3.71,1.647
		c2.47,1.227,3.846,3.319,5.85,5.102c1.965,1.75,2.535,4.43,3.318,6.82c0.531,1.623,0.863,3.142,1.132,4.728
		c-0.455-0.512-0.875-1.063-1.327-1.624c-1.673-2.072-4.296-3.257-6.742-4.092c-5.687-1.941-11.932-2.751-17.926-2.238
		c-5.178,0.444-10.375,1.089-15.433,2.276c-3.324,0.781-6.887,0.485-10.282,0.536c-2.751,0.042-5.486-0.113-8.218-0.422
		c-0.47-0.054-0.58,0.761-0.112,0.826c3.672,0.505,7.336,0.749,11.02,0.832c-0.842,0.315-1.657,0.662-2.421,1.028
		c-3.346,1.598-6.976,3.567-9.516,6.319c-2.478,2.686-5.073,6.221-6.801,9.455c-0.831,1.554-1.946,3.012-2.853,4.558
		c-0.771,1.315-1.798,2.404-2.798,3.541c-0.446,0.507-0.909,1.23-1.461,1.784c-0.333,0.152-0.669,0.292-1.006,0.416
		c-0.205,0.075-0.278,0.236-0.264,0.389c-0.273,0.196-0.079,0.674,0.309,0.616c0.417-0.063,0.792-0.234,1.14-0.468
		c4.473-1.156,7.701-5.592,12.156-6.604c0.749-0.17,1.48-0.265,2.205-0.324c-0.51,1.067-1.292,2.064-1.852,3.113
		c-2.22,4.157-4.334,8.195-5.711,12.733c-0.623,2.055-1.511,3.952-1.499,6.162c0.011,2.085-0.438,4.031-0.149,6.143
		c0.297,2.177,0.194,4.695,1.09,6.741c0.528,1.205,0.859,2.564,1.143,3.851c0.209,0.953,0.842,1.78,1.196,2.679
		c0.004,0.058-0.002,0.114,0.003,0.172c0.015,0.155,0.079,0.271,0.166,0.352c0.002,0.013,0.008,0.024,0.01,0.036
		c0.05,0.224,0.31,0.292,0.495,0.202c0.116-0.058,0.232-0.116,0.347-0.173c0.089-0.044,0.089-0.192,0-0.236
		c-0.018-0.009-0.032-0.037-0.046-0.071c0.011-0.037,0.026-0.068,0.03-0.11c0.166-1.708,0.921-3.042,1.216-4.691
		c0.378-2.114-0.072-3.879,0.923-5.572c-0.262,1.696-0.354,3.272-0.026,5.07c0.217,1.188,0.569,2.348,0.932,3.497
		c0.289,0.916,0.249,1.899,0.666,2.778c0.373,0.783,1.067,1.773,1.338,2.579c0.369,1.099,0.541,2.405,0.83,3.543
		c0.429,1.692,0.909,3.439,1.773,4.996c0.16,0.289,0.315,0.571,0.473,0.857c0.078,1.204,0.077,2.415,0.088,3.624
		c0.008,0.925-0.159,1.878-0.253,2.819c-0.118,0.542-0.167,1.109-0.027,1.795c0.003,0.015,0.017,0.021,0.023,0.034
		c0.125,0.331,0.656,0.429,0.742,0.005c0.21-1.036,0.411-2.137,0.57-3.258c0.011-0.026,0.018-0.054,0.029-0.08
		c0.262-0.639,0.393-1.284,0.545-1.926c0.506,0.846,1.035,1.685,1.635,2.509c1.338,1.838,2.442,4.077,2.451,6.394
		c0.018,4.37-0.729,8.894-1.718,13.136c-0.431,1.852-0.049,4.289,0.073,6.176c0.133,2.066,1.042,4.184,1.752,6.105
		c1.37,3.707,2.262,7.957,5.014,10.949c1.352,1.47,3.004,3.811,4.97,4.073c0.194,0.025,0.263-0.208,0.176-0.35
		c0.042-0.069,0.055-0.162,0.019-0.271c-0.361-1.085-0.997-1.747-1.558-2.7c-1.101-1.868-1.892-3.725-2.27-5.879
		c-0.331-1.889-0.819-3.605-1.006-5.53c-0.089-0.921-0.489-1.767-0.589-2.69c-0.111-1.041,0.006-2.164,0.013-3.212
		c0.013-1.929,0.518-3.964,0.881-5.853c0.37-1.922,0.125-3.896,0.448-5.832c0.629-3.767,0.699-7.662,1.264-11.447
		c0.546-3.664,0.41-7.342,1.112-11.001c0.719-3.744-0.797-7.613,1.452-11.052c2.381-3.642,5.531-6.464,8.919-9.031
		c-0.412,1.617-0.712,3.229-0.858,4.916c-0.205,2.368-0.319,4.716-0.929,7.024c-0.318,1.199-0.461,2.944-1.193,3.957
		c-0.098,0.136-0.12,0.325-0.119,0.522c-0.054,0.214-0.09,0.43-0.082,0.641c0.006,0.146,0.106,0.233,0.22,0.267
		c0.092,0.196,0.445,0.188,0.483-0.046c0.087-0.528,0.355-1.014,0.607-1.508c0.867-1.141,2.222-2.118,3.126-2.994
		c1.23-1.192,2.08-2.642,3.287-3.841c1.109-1.101,1.774-2.915,2.649-4.214c1.161-1.724,1.84-3.814,3.196-5.428
		c2.002-2.38,4.556-4.225,7.004-6.136c2.547,2.117,5.235,4.04,8.161,5.741c2.781,1.616,4.844,4.409,7.534,6.218
		c2.508,1.688,5.096,3.122,7.819,4.452c5.793,2.832,11.664,4.898,18.018,6.083c6.021,1.124,12.393,2.469,18.559,2.208
		c0.479,0.116,0.941,0.157,1.332,0.037c0.237-0.073,0.237-0.407,0-0.48c-0.035-0.011-0.07-0.025-0.105-0.037
		c-0.045-0.096-0.119-0.178-0.26-0.192c-0.148-0.014-0.295-0.037-0.443-0.051c-6.531-2.172-12.759-6.152-18.22-10.221
		c-1.694-1.262-3.495-2.631-5.089-4.18c0.491,0.077,0.979,0.156,1.458,0.238c4.658,0.804,9.578,0.84,14.296,0.851
		c2.502,0.005,5.011,0.06,7.513,0.017c2.368-0.042,4.573-0.746,6.914-0.955c0.23-0.021,0.238-0.359,0-0.364h-0.011
		c-0.011-0.051-0.04-0.098-0.099-0.112c-2.635-0.612-5.231-1.298-7.717-2.31c4.583,0.006,9.137-0.439,13.504-1.956
		c4.866-1.691,9.596-3.968,13.95-6.813c0.019,0.062,0.04,0.126,0.057,0.188c0.487,1.786,1.46,3.295,2.368,4.899
		c0.823,1.454,0.976,3.233,2.022,4.555c1.315,1.661,2.574,3.757,3.632,5.604c1.078,1.881,1.602,4.123,2.095,6.223
		c0.511,2.179,0.956,3.896,0.956,6.158c0.001,1.747-0.656,3.603-1.556,5.104c-0.328,0.545-0.146,1.337-0.449,1.944
		c-0.466,0.933-0.79,1.823-1.057,2.832c-1.047,3.969-0.673,8.12-0.672,12.204c0.002,3.771-0.732,7.51-0.704,11.299
		c0.012,1.609,0.241,3.322,0.354,4.935c0.162,2.325,0.229,4.599,0.229,6.94v6.795c0,1.479,0.277,2.922,0.397,4.393
		c-0.315,0.52-0.272,1.159-0.266,1.756c0.003,0.257,0.214,0.478,0.475,0.475c0.05,0,0.1,0,0.149-0.002
		c0.325-0.003,0.472-0.27,0.449-0.52c0.239-0.054,0.444-0.232,0.445-0.551c0.002-0.451-0.003-0.889-0.013-1.322
		c0.197-0.504,0.393-0.994,0.475-1.382c0.277-1.298,0.327-2.558,0.852-3.798c0.445-1.047,0.6-2.113,1.143-3.139
		c0.717-1.354,2.052-2.547,2.885-3.858c2.654-4.182,3.274-8.562,3.295-13.47c0.017-3.818-0.14-7.634-0.218-11.452
		c0.122,0.287,0.26,0.574,0.424,0.866c1.023,1.818,1.387,4.588,3.46,5.598c0.222,0.107,0.434-0.154,0.264-0.341
		c-0.761-0.834-1.226-1.914-1.688-2.926c-0.567-1.239-1.142-2.715-1.631-3.989c-1.056-2.751-0.462-5.901-0.459-8.779
		c0.004-3.062,1.62-5.603,2.887-8.294c0.563-1.196,1.443-2.243,1.845-3.515c0.407-1.292,0.831-2.568,1.255-3.855
		c0.382-1.156,0.291-2.436,0.594-3.617c0.293-1.145,0.608-2.386,0.988-3.508c0.835-2.467,0.423-5.389,0.438-7.965
		c0.012-2.229-0.006-4.401-0.124-6.55c1.068,1.025,2.095,2.02,2.967,3.229c0.351,0.486,0.369,0.915,0.629,1.399
		c0.214,0.399,0.532,0.735,0.803,1.098c-0.123,0.371,0.212,0.477,0.479,0.945c0.199,0.352,0.65,0.093,0.603-0.254
		c-0.003-0.026-0.012-0.053-0.016-0.079c0.081-0.004,0.159-0.07,0.136-0.171c-0.74-3.207,0.108-6.814,0.465-10.016
		C180.593,53.462,179.488,50.774,178.479,47.562z"/>
</g>
<g id="Layer_1">
</g>
</svg>
