<?xml version="1.0" encoding="iso-8859-1"?>
<!-- Generator: Adobe Illustrator 16.0.0, SVG Export Plug-In . SVG Version: 6.00 Build 0)  -->
<!DOCTYPE svg PUBLIC "-//W3C//DTD SVG 1.1//EN" "http://www.w3.org/Graphics/SVG/1.1/DTD/svg11.dtd">
<svg version="1.1" xmlns="http://www.w3.org/2000/svg" xmlns:xlink="http://www.w3.org/1999/xlink" x="0px" y="0px"
	 width="161.861px" height="179.106px" viewBox="0 0 161.861 179.106" style="enable-background:new 0 0 161.861 179.106;"
	 xml:space="preserve">
<g id="Layer_7">
	<linearGradient id="SVGID_1_" gradientUnits="userSpaceOnUse" x1="80.9312" y1="179.1064" x2="80.9311" y2="4.882812e-04">
		<stop  offset="0" style="stop-color:#000000"/>
		<stop  offset="1" style="stop-color:#4D4D4D"/>
	</linearGradient>
	<path style="fill:url(#SVGID_1_);" d="M159.276,101.722c0,1.799-3.339,5.394-3.339,5.394l-1.284,17.981l-5.908,2.826
		c0,0-1.027-37.761-4.757-42.641c-3.729-4.881-1.665-13.872-0.124-21.577c1.541-7.707-11.816-23.376-11.816-23.376
		c-7.706,5.138-36.219,9.505-51.117,9.505s-43.411-4.367-51.117-9.505c0,0-13.357,15.669-11.816,23.376
		c1.541,7.706,3.605,16.696-0.124,21.577c-3.729,4.88-4.757,42.641-4.757,42.641l-5.908-2.826l-1.284-17.981
		c0,0-3.34-3.595-3.34-5.394S-22.074,0,80.931,0S159.276,99.923,159.276,101.722z M134.04,161.394
		c0.147-0.839,0.12-1.728-0.139-2.645c-0.073-0.262-0.453-0.262-0.527,0c-1.48,5.269-6.239,6.322-10.827,5.553
		c0.95-0.05,1.892-0.241,2.518-0.905c0.283-0.301-0.1-0.857-0.459-0.595c-0.976,0.716-4.287-0.021-5.431-0.127
		c-0.73-0.067-1.454-0.132-2.177-0.19c-4.718-2.356-8.36-6.35-13.395-8.265c-4.404-1.676-11.082-2.863-15.429-0.383
		c-2.842,1.621-5.337,4.85-6.264,8.01c-0.096,0.11-0.186,0.227-0.247,0.366c-0.336,0.771-0.569,1.503-0.733,2.211
		c-0.164-0.708-0.396-1.44-0.733-2.211c-0.061-0.14-0.151-0.256-0.247-0.366c-0.927-3.16-3.422-6.389-6.264-8.01
		c-4.346-2.48-11.024-1.293-15.429,0.383c-5.034,1.915-8.676,5.908-13.394,8.265c-0.723,0.059-1.446,0.123-2.177,0.19
		c-1.144,0.105-4.454,0.843-5.431,0.127c-0.359-0.263-0.742,0.294-0.458,0.595c0.626,0.664,1.567,0.855,2.517,0.905
		c-4.587,0.77-9.346-0.284-10.827-5.553c-0.074-0.262-0.454-0.262-0.527,0c-0.258,0.917-0.286,1.806-0.138,2.645
		c-1.007,4.396,3.709,9.749,6.754,11.947c5.701,4.113,12.578,5.139,19.377,5.681c7.336,0.586,24.685-1.75,26.977-10.498
		c2.293,8.748,19.642,11.084,26.978,10.498c6.799-0.542,13.676-1.567,19.377-5.681C130.331,171.143,135.047,165.79,134.04,161.394z"
		/>
</g>
<g id="Layer_1">
</g>
</svg>
