<?xml version="1.0" encoding="iso-8859-1"?>
<!-- Generator: Adobe Illustrator 16.0.0, SVG Export Plug-In . SVG Version: 6.00 Build 0)  -->
<!DOCTYPE svg PUBLIC "-//W3C//DTD SVG 1.1//EN" "http://www.w3.org/Graphics/SVG/1.1/DTD/svg11.dtd">
<svg version="1.1" xmlns="http://www.w3.org/2000/svg" xmlns:xlink="http://www.w3.org/1999/xlink" x="0px" y="0px"
	 width="177.187px" height="126.637px" viewBox="0 0 177.187 126.637" style="enable-background:new 0 0 177.187 126.637;"
	 xml:space="preserve">
<g id="Layer_8">
	<linearGradient id="SVGID_1_" gradientUnits="userSpaceOnUse" x1="88.5933" y1="126.6367" x2="88.5933" y2="4.882812e-04">
		<stop  offset="0" style="stop-color:#000000"/>
		<stop  offset="1" style="stop-color:#4D4D4D"/>
	</linearGradient>
	<path style="fill:url(#SVGID_1_);" d="M177.126,88.41c-1.598-0.909-1.933-2.22-2.308-2.987c-0.737-1.507-0.055-4.609-0.233-5.319
		c-0.663-2.614-1.513-5.132-2.293-7.713c-1.511-4.995-2.626-10.094-3.944-15.141c-1.455-5.572-3.881-9.864-7.326-14.495
		c-3.317-4.459-6.201-9.44-9.786-13.66c-7.475-8.798-15.999-14.188-27.487-16.172c-4.9-0.846-9.627-2.215-14.549-2.218
		c0.267-0.125,0.541-0.236,0.805-0.364c2.816-1.369,6.849-2.515,8.853-5.038c0.039-0.05,1.121-1.751,1.121-1.751
		c-0.176-0.221-11.5,1.97-14.787,2.284C99.68,6.361,94.083,6.82,88.549,6.921c-4.88,0.089-9.774-0.024-14.637-0.451
		c0.446-0.271,0.912-0.535,1.424-0.804c2.837-1.48,6.081-1.704,8.857-3.102c0.225-0.111,0.242-0.51,0-0.616
		c-0.408-0.181-0.949-0.277-1.569-0.313c-5.101-2.253-10.987-1.522-16.438-1.52c-5.64,0.004-10.279,2.989-14.897,5.819
		c-4.477,2.743-7.335,6.918-10.233,11.156c-1.604,2.344-4.046,6.519-3.997,9.992c-2.619-3.024-2.915-7.464-3.625-11.211
		c-0.063-0.333-0.606-0.333-0.669,0c-0.823,4.348-0.565,8.612,1.796,12.479c0.053,0.087,0.119,0.19,0.177,0.284
		c-1.833-0.833-3.672-1.617-5.451-2.371c-3.313-1.405-9.629-3.033-12.75-0.401c-0.436,0.366,0.029,1.212,0.572,0.984
		c3.479-1.46,9.046,1.869,12.172,3.1c0.565,0.223,1.122,0.47,1.669,0.734c-2.844,0.652-5.556,1.604-8.24,2.837
		c-1.552,0.711-3.023,1.585-4.467,2.494c-1.618,1.843-3.956,3.205-5.818,4.728c-1.663,1.359-3.308,2.778-4.779,4.352
		c-0.599,0.934-1.452,1.539-1.969,2.476c-0.783,1.421-1.402,3.501-2.644,4.613c-0.044,0.039-0.09,0.092-0.135,0.139
		C1.222,56.015,0.427,59.761,0,63.768c0.625,0.228,4.598-4.62,6.39-5.833c0.083-0.056,0.176-0.115,0.265-0.174
		c-0.961,2.48-1.494,5.161-1.786,7.587C4.03,72.312,4.152,78.774,5.353,85.694c1.111,6.397,3.984,13.443,7.639,18.802
		c1.023,1.499,1.799,3.242,2.568,4.999c0.95,1.577,1.899,3.151,2.865,4.729c0.587,0.957,1.175,1.911,1.767,2.86
		c0.323,0.287,0.66,0.562,1.027,0.804c0.203,0.472,0.422,0.938,0.664,1.394c0.315,0.593,0.604,1.192,0.875,1.798
		c1.265,1.906,2.58,3.768,3.979,5.558c-0.01-0.079-0.017-0.158-0.028-0.236c0.296-3.73,0.072-7.578-0.814-11.125
		c-0.205-0.815-0.348-1.64-0.47-2.467c0.201-3.969,0.165-7.996,0.066-11.971c0.145-1.515,0.264-2.646,0.301-3.064
		c0.326-3.666,0.752-7.246,1.702-10.808c0.213-0.796,0.45-1.498,0.652-2.171c0.16-0.374,0.314-0.749,0.459-1.128
		C30.65,78.3,33.42,72.795,37.41,68.578c0.115-0.122,0.146-0.307,0.112-0.473c1.229-1.594,2.516-3.146,3.917-4.533
		c0.387-0.341,0.774-0.681,1.162-1.021c0.097,0.099,0.193,0.197,0.289,0.294c4.191,4.214,9.05,7.818,13.81,11.342
		c4.22,3.122,9.504,4.637,14.405,6.292c4.139,1.396,7.363,2.586,11.38,1.665c0.014,0,0.027,0.002,0.042,0.002
		c0.146,0,0.268-0.046,0.378-0.109c0.396-0.103-9.275-2.166-10.23-7.543c2.402,1.004,4.849,1.764,7.271,2.211
		c5.419,1.001,11.222,0.354,16.698,0.277c5.25-0.071,11.062-0.651,15.943-2.647c0.159-0.065,0.161-0.353-0.045-0.33
		c-1.746,0.188-22.107,1.686-29.688-0.47c-1.067-0.304-4.75-1.556-5.831-1.79c2.646-0.026,7.849,1.03,10.476,0.562
		c2.913-0.52,6.624-1.347,9.591-1.347c2.873,0,5.412-1.596,8.217-2.134c7.218-1.384,14.711-3.281,22.095-3.484
		c6.961-0.192,12.286,4.577,17.135,8.934c4.865,4.371,8.22,9.371,9.575,15.888c1.356,6.528,1.118,13.006,1.124,19.671
		c0.001,0.682-0.077,1.371-0.184,2.064c0.674,4.59,1.533,9.428,0.688,13.742c0.815-0.891,2.241-1.41,2.781-2.383
		c1.167-2.106,2.987-4.192,4.504-6.032c1.243-1.507,2.521-3.724,3.282-5.522c0.89-2.102,1.229-5.096,2.298-7.023
		c1.964-3.546,1.829-8.287,2.569-12.243c0.338-1.811,0.594-3.736,0.747-5.693c1.211,0.9,2.552,1.558,3.919,1.657
		C176.288,88.432,177.466,88.604,177.126,88.41z M31.304,72.231c-0.561,0.641-1.157,1.315-1.765,2.011
		c0.475-0.907,1.253-1.762,2.146-2.56C31.556,71.863,31.427,72.044,31.304,72.231z"/>
</g>
<g id="Layer_1">
</g>
</svg>
