<?xml version="1.0" encoding="iso-8859-1"?>
<!-- Generator: Adobe Illustrator 16.0.0, SVG Export Plug-In . SVG Version: 6.00 Build 0)  -->
<!DOCTYPE svg PUBLIC "-//W3C//DTD SVG 1.1//EN" "http://www.w3.org/Graphics/SVG/1.1/DTD/svg11.dtd">
<svg version="1.1" xmlns="http://www.w3.org/2000/svg" xmlns:xlink="http://www.w3.org/1999/xlink" x="0px" y="0px"
	 width="163.634px" height="208.99px" viewBox="0 0 163.634 208.99" style="enable-background:new 0 0 163.634 208.99;"
	 xml:space="preserve">
<g id="Layer_11">
	<linearGradient id="SVGID_1_" gradientUnits="userSpaceOnUse" x1="81.8174" y1="208.9902" x2="81.8174" y2="4.882812e-04">
		<stop  offset="0" style="stop-color:#000000"/>
		<stop  offset="1" style="stop-color:#4D4D4D"/>
	</linearGradient>
	<path style="fill:url(#SVGID_1_);" d="M137.933,31.259c0.495,0.383,0.98,0.776,1.453,1.165c0.457,0.265,0.906,0.516,1.367,0.79
		c0.012-0.016,0.028-0.027,0.042-0.042c4.444,2.93,9.283,7.315,12.805,11.244c2.369,2.646,4.575,5.71,6.493,8.925
		c-2.57,1.467-7.227-0.383-9.753-0.772c-0.132-0.019-0.263-0.035-0.395-0.054c0.144,0.174,0.291,0.354,0.428,0.515
		c2.048,2.413,3.849,5.144,5.013,8.091c0.508,2.784,0.858,6.644,1.149,7.698c1.391,5.048,1.136,9.562-0.02,14.082
		c-1.937-1.31-3.845-4.442-4.886-5.567c-0.731-0.791-1.427-1.608-2.137-2.408c0.389,1.75,0.606,3.566,0.909,5.081
		c0.388,1.94,0.423,4.005,0.377,6.067c-1.034,2.651-0.664,6.436-1.05,9.092c-0.759,5.245-1.104,10.088-2.99,15.107
		c-1.834,4.883-4.248,10.593-6.859,15.086c-0.66,1.138-1.489,2.184-2.345,3.212c-0.021-2.624-0.113-5.352-0.515-7.859
		c-0.029-1.16-0.072-2.314-0.171-3.453c-0.149-1.728-0.22-3.467-0.25-5.209c-0.431-2.44-0.706-4.888-1.489-7.281
		c-0.059-0.179-0.125-0.352-0.192-0.523c-0.26,1.962-0.682,3.811-1.161,5.327c-0.51,1.615-2.744,10.92-5.512,11.871
		c-0.054,0.037-0.101,0.087-0.156,0.117c-0.108,0.062-0.233,0.092-0.36,0.108c0.262-2.366,0.308-4.775,0.197-7.197
		c-0.157-3.472-0.298-7.799-1.214-11.671c-0.099-1.767-0.423-3.52-1.174-5.267c-1.972-4.58-5.302-9.474-8.447-13.349
		c-1.375-1.694-2.589-3.364-4.092-4.884c-1.323,2.571-2.446,4.727-3.014,7.71c-0.09,0.471-0.158,0.934-0.219,1.395
		c-0.836,2.202-1.488,4.473-1.843,6.793c-0.308,2.006-0.255,4.039-0.076,6.077c-0.044-0.031-0.09-0.057-0.13-0.1
		c-1.141-1.211-1.798-2.812-2.443-4.406c-1.713-2.559-2.82-5.394-3.448-8.36c-0.246-0.882-0.467-1.776-0.673-2.689
		c-0.741-3.275-1.637-6.517-2.217-9.84c-0.072-0.417-0.175-0.911-0.283-1.429c-1.927-0.207-3.882-0.808-5.605-1.28
		c-3.529-0.967-6.975-1.992-10.451-3.131c-1.916-0.627-3.975-1.302-5.955-2.141c0.13,0.399,0.213,0.804,0.271,1.211
		c0.602,0.808,1.208,1.61,1.843,2.39c2.721,3.341,6.764,5.062,9.463,8.362c0.266,0.325,0.361,0.691,0.338,1.035
		c-2.915,0.501-6.021,0.365-8.848,0.221c-3.993-0.205-8.373-0.546-12.387-1.601c-3.208-1.446-6.295-3.185-9.2-4.987
		c-2.414-1.498-4.762-3.404-6.901-5.479c1.458,1.776,2.863,3.531,4.086,5.54c1.936,3.182,3.758,6.246,6.198,9.093
		c1.913,2.229,4.037,5.671,7.215,5.946c0.321,0.028,0.326,0.53,0,0.505c-3.167-0.249-5.34-3.073-7.347-5.246
		c-2.799-3.034-4.713-6.349-6.908-9.806c-1.821-2.868-4.118-5.326-6.085-8.06c-0.446,0.468-0.879,0.904-1.242,1.252
		c-3.759,3.606-3.615,10.571-4.346,15.324c-0.467,3.033-0.482,6.149-0.668,9.235c-0.936,4.444-2.273,8.886-2.876,13.322
		c-0.495,3.646-0.683,7.224-0.542,10.787c-0.24-0.019-0.463-0.146-0.507-0.422c-0.205-1.284-0.702-2.575-1.326-3.851
		c-0.054-0.016-0.104-0.037-0.15-0.074c-1.284-1.057-1.87-2.48-2.129-4.021c-0.403-0.701-0.795-1.394-1.132-2.065
		c-1.326-2.649-2.383-5.372-3.14-8.238c-0.047-0.181-0.079-0.365-0.121-0.548c-0.111-0.396-0.224-0.794-0.35-1.213
		c-0.615-2.026-1.615-3.898-2.357-5.884c-0.096-0.01-0.188-0.038-0.274-0.079c-0.214,0.866-0.514,1.741-0.696,2.523
		c-0.287,1.237-0.321,2.54-0.325,3.828c-0.053,0.129-0.097,0.268-0.121,0.428c-0.49,3.074-1.174,6.556-1.072,9.858
		c-1.378-0.929-3.022-2.361-3.795-3.744c-0.175-0.312-0.428-0.469-0.695-0.513c-1.211-1.72-2.41-3.447-3.583-5.188
		c0.547,2.236,1.104,4.471,1.633,6.717c0.789,3.354,2.26,7.064,3.648,10.226c0.732,1.668,1.808,3.288,2.056,5.057
		c-1.114-0.552-2.204-1.155-3.253-1.846c-3.175-2.09-5.668-5.139-8.419-7.719c-0.146-0.138-0.281-0.286-0.423-0.429
		c-0.169-0.279-0.344-0.556-0.502-0.841c-1.421-1.924-2.849-3.847-3.909-6.1c-0.944-2.008-1.724-4.015-2.374-6.067
		c-0.417,0.636-0.875,1.261-1.373,1.896c-0.002,0.078-0.002,0.152-0.005,0.23c-0.008,0.259-0.157,0.448-0.35,0.551
		c-1.321-3.782-2.323-7.664-2.743-11.599c0.021-0.142,0.033-0.296,0.062-0.431c0.895-4.414,0.562-9.078,1.474-13.544
		c0.095-0.468,0.207-0.99,0.331-1.541c-0.044-0.113-0.081-0.229-0.123-0.342c-0.114-0.131-0.214-0.277-0.266-0.471
		c-0.087-0.324-0.158-0.675-0.222-1.04c-0.387-1.385-0.652-2.851-0.818-4.562c-0.443-4.543-0.137-8.647,1.626-12.846
		c0.794-1.89,1.628-3.503,2.625-5.002c-0.232-1.721,1.194-3.483,2.158-4.78c0.331-0.445,0.724-0.837,1.087-1.235
		c0.021-0.085,0.031-0.17,0.048-0.256c-0.967-0.388-1.997-0.841-2.943-1.353c-1.145-0.382-2.253-0.856-3.258-1.405
		c-0.472-0.257-1.934-1.438-2.14-2.365c-0.214-0.18-0.401-0.382-0.543-0.616c-0.024-0.04-0.017-0.099,0.018-0.134
		c3.643-0.734,7.031-2.272,10.26-4.096c6.041-3.411,11.5-7.884,17.489-11.424c5.627-3.324,11.495-5.957,17.716-7.948
		c3.951-1.266,7.818-2.797,11.718-4.219c3.24-0.714,6.737-1.304,9.872-1.359c2.825-0.05,5.945-0.6,8.973-0.824
		c-0.394-0.225-0.773-0.477-1.12-0.805c-0.435-0.145-0.526-0.826-0.142-1.042c0.098-0.146,0.237-0.262,0.425-0.309
		c0.167-0.041,0.338-0.06,0.507-0.089c0.49-0.478,1.119-0.805,1.823-1.029c2.427-0.113,4.88-0.087,7.301-0.133
		c0.355,0.041,0.692,0.079,0.994,0.108c5.18,0.505,9.936,1.535,14.818,3.338c3.521,1.301,6.959,2.52,10.291,4.154
		c-0.434-0.992-0.889-1.975-1.405-2.928c-1.323-2.441-2.062-4.308-1.849-7.101c0.02-0.258,0.379-0.258,0.399,0
		c0.153,2.011,0.478,3.661,1.515,5.428c0.604,1.03,1.235,2.043,1.752,3.122c0.348,0.727,0.676,1.46,0.998,2.197
		c0.444,0.238,0.889,0.479,1.33,0.737c0.099,0.057,0.187,0.121,0.282,0.181c-0.042-1.203-0.096-2.405-0.11-3.604
		c-0.016-1.244,0.106-2.411,0.033-3.653c-0.279-0.136-0.21-0.519,0.024-0.704c0.1-0.621,0.456-1.106,1.021-1.45
		c0.266-0.162,0.603-0.149,0.868,0c0.146,0.08,0.275,0.176,0.398,0.278c4.376,0.127,7.153,3.564,9.612,6.948
		c0.449,0.616,1.006,1.481,1.565,2.481c0.007-1.23-0.033-2.452-0.225-3.664c-0.035-0.026-0.06-0.065-0.097-0.088
		c-0.136-0.081-0.08-0.237,0.032-0.277c-0.144-0.788-0.351-1.573-0.664-2.354c-0.284-0.707,0.73-1.177,1.212-0.706
		c1.353,1.326,2.321,2.746,2.907,4.393c0.155-0.328,0.343-0.655,0.547-0.981c0.145-1.062,0.312-2.12,0.438-3.185
		c0.072-0.596,0.582-0.908,1.139-0.654c2.467,1.13,2.339,4.973,2.449,7.249c0.017,0.341-0.029,0.706-0.103,1.077
		c2.935-1.01,5.928-1.987,9.028-1.452c1.176,0.203,0.877,1.739,0,2.088c-2.131,0.849-4.163,1.895-6.241,2.847
		c5.091-0.187,10.366,0.008,14.593,2.563c1.375,0.165,2.472,0.931,3.533,1.763c0.256,0.108,0.514,0.218,0.766,0.328
		c2.057,0.902,5.046,2.01,6.567,3.94c0.104,0.049,0.212,0.09,0.315,0.142c0.018,0.009,0.027,0.022,0.045,0.032
		c-1.726-0.081-3.455-0.039-5.123,0.04c-6.188,0.297-13.263,0.748-18.672,4.037c-0.19,0.114-0.334,0.253-0.449,0.4
		c-0.026,0.012-0.051,0.02-0.077,0.029c-0.307,0.293-0.6,0.64-0.876,1.09C138.297,31.04,138.121,31.177,137.933,31.259z
		 M117.331,158.367c0.156,1.787,0.249,4.2-0.735,5.654c-0.041,0.142-0.085,0.279-0.128,0.418c-0.076,0.534-0.226,1.041-0.412,1.538
		c0.001,0.007,0.005,0.013,0.005,0.02c0.011,0.633-0.164,0.844-0.528,1.392c0,0.002-0.001,0.002-0.002,0.003
		c-0.135,0.427-0.275,0.852-0.411,1.279c0,0.007,0.006,0.009,0.005,0.018c-0.073,0.853-0.067,0.638-0.467,1.594
		c-0.518,1.236-0.662,2.618-0.905,3.926c-0.353,1.891-0.139,4.153-1.112,5.86c-0.053,0.091-0.154,0.132-0.259,0.144
		c0.006,0.334,0.058,0.633,0.202,0.808c0.135,0.161,0.123,0.501-0.142,0.538c-0.093,0.014-0.186,0.026-0.278,0.039
		c-0.213,0.03-0.443-0.014-0.554-0.225c-0.185-0.352-0.273-0.749-0.305-1.164c-0.101,0.363-0.205,0.728-0.31,1.103
		c-0.19,0.674-0.381,1.351-0.568,2.026c0.06,0.091,0.072,0.205-0.018,0.326c-0.039,0.051-0.072,0.105-0.11,0.158
		c-0.11,0.411-0.225,0.823-0.328,1.238c-0.177,0.718-0.22,1.442-0.249,2.167c0.256,0.187,0.393,0.522,0.176,0.853
		c-0.126,0.211-0.203,0.444-0.266,0.685c-0.021,0.223-0.049,0.444-0.089,0.665c0.033,0.252,0.066,0.503,0.113,0.75
		c0.022,0.112-0.101,0.249-0.216,0.165c-0.064-0.046-0.102-0.105-0.152-0.158c-0.15,0.524-0.359,1.039-0.61,1.535
		c-0.2,0.398-0.534,0.543-0.869,0.525c-1.128,3.053-1.574,7.076-1.904,9.977c-0.046,0.397-0.295,0.716-0.724,0.724
		c-0.029,0.001-0.058,0.002-0.087,0.002c-0.257,0.005-0.495-0.143-0.626-0.359c-0.014-0.022-0.026-0.044-0.039-0.065
		c-0.563,1.209-1.228,2.436-1.982,3.333c-0.098,0.114-0.281,0.147-0.419,0.11c-1.599-0.426-2.201-5.044-3.084-1.886
		c-0.329,1.174-2.886,4.343-3.924,4.695c-1.546,0.524-3.243-1.964-3.587-3.21c0.198,0.718-2.068,3.149-3.238,3.416
		c-0.154,0.034-0.341-0.045-0.376-0.213c-0.321-1.545-1.188-2.902-1.317-4.458c-0.903,1.748-2.59,5.053-4.018,3.659
		c-1.053-1.024-2.127-2.967-2.508-4.351c-0.366-1.333-1.088,2.944-1.091,3.073c-0.133,0.714-0.275,1.416-0.449,2.122
		c-0.012,0.049-0.058,0.1-0.108,0.109c-1.445,0.288-3.021-2.368-3.842-3.247c-0.295-0.315-0.951-2.061-1.085-0.696
		c-0.095,0.959-0.378,2.031-0.917,2.844c-0.055,0.081-0.145,0.102-0.23,0.06c-1.46-0.698-3.138-3.137-4.075-4.37
		c-0.198-0.26-0.354-0.542-0.477-0.807c0.021,0.089,0.039,0.173,0.062,0.275c0.057,0.375,0.073,0.754,0.049,1.136
		c0.001,1.356,0.132,2.699,0.231,4.052c0.036,0.499-0.642,0.925-1.062,0.608c-1.692-1.274-3.641-3.003-4.729-4.825
		c-0.942-1.577-1.229-3.688-1.545-0.438c-0.022,0.225-0.275,0.357-0.453,0.188c-1.136-1.086-1.266-2.556-1.715-3.918h-0.381
		c0.004-0.203,0.012-0.406,0.022-0.609c-0.813-2.185-0.687-4.922-1.202-7.122c-0.119-0.513-0.258-1.017-0.404-1.518
		c-0.022-0.029-0.051-0.05-0.062-0.087c-0.033-0.122-0.049-0.249-0.077-0.372c-0.397-1.264-0.89-2.484-1.494-3.654
		c-0.028,0.037-0.062,0.071-0.102,0.1c0.103,0.986,0.091,1.992-0.114,3.032c-0.011,0.053-0.047,0.084-0.078,0.118
		c-0.076,0.261-0.209,0.495-0.454,0.671c-0.114,0.084-0.237-0.053-0.216-0.165c0.047-0.247,0.08-0.498,0.113-0.75
		c-0.259-1.449-0.071-2.924-0.429-4.369c-0.102-0.415-0.216-0.827-0.328-1.238c-0.037-0.053-0.071-0.107-0.11-0.158
		c-0.089-0.121-0.076-0.235-0.018-0.326c-0.186-0.676-0.378-1.353-0.567-2.026c-0.104-0.375-0.208-0.739-0.31-1.103
		c-0.031,0.415-0.119,0.812-0.304,1.164c-0.111,0.211-0.342,0.255-0.556,0.225c-0.093-0.013-0.185-0.025-0.277-0.039
		c-0.264-0.037-0.277-0.377-0.142-0.538c0.145-0.175,0.196-0.474,0.202-0.808c-0.104-0.012-0.207-0.053-0.259-0.144
		c-0.974-1.707-0.76-3.97-1.112-5.86c-0.242-1.308-0.388-2.689-0.904-3.926c-0.4-0.956-0.395-0.741-0.469-1.594
		c0-0.009,0.006-0.011,0.006-0.018c-0.135-0.428-0.275-0.853-0.411-1.279c-0.001-0.001-0.001-0.001-0.002-0.003
		c-0.365-0.548-0.54-0.759-0.528-1.392c0-0.007,0.004-0.013,0.004-0.02c-0.186-0.497-0.336-1.004-0.412-1.538
		c-0.042-0.139-0.087-0.276-0.127-0.418c-0.984-1.454-0.892-3.867-0.734-5.654c-0.384-1.244-0.075-2.931,0.601-3.979
		c0.193-0.301,0.413-0.581,0.632-0.859c0.41-1.405,1.515-2.663,2.596-3.776c0.735-1.119,1.735-2.153,2.704-3.02
		c0.72-0.708,1.536-1.356,2.34-1.923c0.75-0.567,1.543-1.106,2.378-1.528c0.117-0.07,0.231-0.144,0.35-0.213
		c0.724-0.508,1.535-0.928,2.365-1.289c2.096-1.345,4.805-1.915,7.173-2.452c1.688-0.383,3.259-0.644,4.867-0.716
		c0.571-0.091,1.138-0.174,1.684-0.258c1.92-0.294,3.379,0.074,5.127,0.535c0.441,0.1,0.876,0.212,1.297,0.342
		c0.276-0.015,0.55,0.094,0.797,0.263c0.03,0.012,0.063,0.021,0.094,0.031c0.09,0.034,0.149,0.105,0.185,0.188
		c0.125,0.113,0.228,0.235,0.326,0.354c0.098-0.119,0.2-0.241,0.326-0.354c0.035-0.082,0.094-0.153,0.184-0.188
		c0.029-0.011,0.063-0.02,0.094-0.031c0.248-0.169,0.521-0.277,0.797-0.263c0.421-0.13,0.855-0.242,1.297-0.342
		c1.748-0.461,3.207-0.829,5.127-0.535c0.547,0.084,1.112,0.167,1.684,0.258c1.607,0.072,3.179,0.333,4.867,0.716
		c2.368,0.537,5.077,1.107,7.173,2.452c0.829,0.361,1.641,0.781,2.365,1.289c0.118,0.069,0.233,0.143,0.35,0.213
		c0.835,0.422,1.628,0.961,2.377,1.528c0.805,0.566,1.622,1.215,2.341,1.923c0.969,0.866,1.969,1.9,2.704,3.02
		c1.081,1.113,2.186,2.371,2.596,3.776c0.219,0.278,0.438,0.559,0.632,0.859C117.405,155.437,117.714,157.123,117.331,158.367z
		 M101.333,154.294c1.141,1.225,2.362,2.373,3.53,3.572c0.002-0.03,0.007-0.062,0.008-0.093l0.001-0.002
		c-0.501-0.499-1.04-0.96-1.397-1.331c-0.544-0.564-1.072-1.143-1.59-1.729C101.697,154.574,101.518,154.433,101.333,154.294z
		 M60.771,157.445c-0.43,0.414-1.637,1.152-1.871,1.812c0.146,1.2,0.343,2.404,0.356,3.601c0.017,1.543,0.213,2.696,0.919,4.055
		c0.047,0.091,0.036,0.183-0.008,0.258c0.065,0.127,0.134,0.252,0.195,0.38c0.206,0.43,0.429,0.85,0.65,1.271
		c0.239,0.207,0.473,0.405,0.7,0.6c0.089,0.053,0.173,0.108,0.259,0.163c0.09-0.044,0.206-0.026,0.247,0.102
		c0.008,0.026,0.028,0.053,0.04,0.079c0.682,0.463,1.378,0.925,2.01,1.457c0.904,0.116,1.824,0.328,2.718,0.62
		c0.017,0,0.033,0,0.051-0.001c1.818-0.305,3.9-0.254,5.311-0.077c1.084,0.137,2.062,0.439,3.01,0.821
		c0.514,0.044,1.002,0.143,1.495,0.331c0.106,0.027,0.208,0.068,0.313,0.101c0.055,0.001,0.11,0.016,0.16,0.052
		c0.367,0.126,0.725,0.277,1.067,0.459c0.016,0.003,0.036,0.005,0.052,0.008c0.296,0.067,0.637,0.341,0.888,0.506
		c0.325,0.214,0.607,0.448,0.885,0.69c0.573,0.407,1.146,0.83,1.6,1.361c0.452-0.531,1.026-0.954,1.6-1.361
		c0.276-0.242,0.559-0.477,0.885-0.69c0.25-0.165,0.591-0.438,0.887-0.506c0.016-0.003,0.035-0.005,0.052-0.008
		c0.344-0.182,0.701-0.333,1.067-0.459c0.05-0.036,0.105-0.051,0.161-0.052c0.104-0.032,0.207-0.073,0.312-0.101
		c0.493-0.188,0.98-0.287,1.496-0.331c0.946-0.382,1.925-0.685,3.009-0.821c1.411-0.177,3.492-0.228,5.312,0.077
		c0.017,0.001,0.033,0.001,0.051,0.001c0.892-0.292,1.812-0.504,2.716-0.62c0.632-0.532,1.329-0.994,2.011-1.457
		c0.011-0.026,0.032-0.053,0.041-0.079c0.04-0.128,0.155-0.146,0.245-0.102c0.088-0.055,0.172-0.11,0.261-0.163
		c0.227-0.194,0.46-0.393,0.699-0.6c0.223-0.422,0.443-0.842,0.65-1.271c0.062-0.128,0.131-0.253,0.196-0.38
		c-0.045-0.075-0.055-0.167-0.008-0.258c0.706-1.358,0.902-2.512,0.918-4.055c0.013-1.196,0.211-2.4,0.356-3.601
		c-0.233-0.659-1.44-1.397-1.871-1.812c-0.919-0.881-1.912-1.724-2.744-2.685c-0.338-0.389-0.648-0.744-0.934-1.089
		c-0.063,0.094-0.222,0.102-0.275-0.003c-0.002,0.001-0.003,0.003-0.005,0.003c-0.044-0.088-0.102-0.17-0.16-0.253
		c-1.074-0.158-2.22-0.588-3.31-1.135c-0.021,0.014-0.038,0.036-0.063,0.044c0.462,0.168,0.826,0.362,1.201,0.745
		c-0.001,0.001-0.002,0.001-0.003,0.002c0.212,0.209-0.017,0.635-0.366,0.476c-0.294-0.135-0.602-0.266-0.91-0.396
		c-0.084-0.005-0.17,0.001-0.254-0.008c-0.073,0.091-0.193,0.142-0.303,0.061c-0.158-0.067-0.315-0.135-0.473-0.203
		c-0.015-0.001-0.022-0.011-0.036-0.016c-0.269-0.076-0.533-0.175-0.795-0.285c-0.004-0.001-0.007,0.002-0.011,0
		c-0.27-0.137-0.55-0.244-0.841-0.322c-0.07-0.021-0.091-0.078-0.092-0.135c-0.648-0.348-1.28-0.731-1.904-1.073
		c-0.073,0.041-0.172,0.021-0.207-0.085c-0.005-0.013-0.018-0.026-0.023-0.039c-0.089-0.046-0.178-0.097-0.267-0.141
		c-0.298-0.148-0.593-0.305-0.885-0.467c-0.09,0.159-0.302,0.261-0.506,0.171c-0.057-0.024-0.105-0.054-0.162-0.079
		c0.041,0.119,0.07,0.24,0.069,0.363c-0.001,0.169-0.233,0.236-0.319,0.087c-0.346-0.607-1.17-0.945-1.684-1.375
		c-0.354-0.294-0.697-0.604-1.022-0.929c-0.282-0.226-0.562-0.458-0.843-0.704c-1.051-0.914-2.261-2.271-2.92-3.625
		c-0.66,1.354-1.871,2.711-2.921,3.625c-0.281,0.246-0.561,0.479-0.843,0.704c-0.325,0.325-0.667,0.635-1.021,0.929
		c-0.515,0.43-1.339,0.768-1.685,1.375c-0.085,0.149-0.317,0.082-0.319-0.087c-0.001-0.123,0.028-0.244,0.068-0.363
		c-0.056,0.025-0.105,0.055-0.161,0.079c-0.205,0.09-0.416-0.012-0.506-0.171c-0.292,0.162-0.586,0.318-0.886,0.467
		c-0.087,0.044-0.177,0.095-0.266,0.141c-0.006,0.013-0.02,0.026-0.023,0.039c-0.035,0.106-0.134,0.126-0.208,0.085
		c-0.623,0.342-1.255,0.726-1.903,1.073c0,0.057-0.021,0.113-0.093,0.135c-0.291,0.078-0.571,0.186-0.841,0.322
		c-0.004,0.002-0.007-0.001-0.011,0c-0.261,0.11-0.525,0.209-0.795,0.285c-0.013,0.005-0.02,0.015-0.035,0.016
		c-0.157,0.068-0.314,0.136-0.472,0.203c-0.11,0.081-0.23,0.03-0.304-0.061c-0.083,0.009-0.17,0.003-0.255,0.008
		c-0.308,0.131-0.615,0.262-0.909,0.396c-0.349,0.159-0.578-0.267-0.366-0.476c-0.001-0.001-0.002-0.001-0.003-0.002
		c0.375-0.383,0.74-0.577,1.201-0.745c-0.025-0.008-0.042-0.03-0.063-0.044c-1.09,0.547-2.235,0.977-3.31,1.135
		c-0.058,0.083-0.115,0.165-0.159,0.253c-0.002,0-0.003-0.002-0.005-0.003c-0.055,0.104-0.212,0.097-0.275,0.003
		c-0.287,0.345-0.598,0.7-0.934,1.089C62.683,155.722,61.688,156.564,60.771,157.445z M58.762,157.771l0.001,0.002
		c0.001,0.031,0.006,0.062,0.008,0.093c1.169-1.199,2.391-2.348,3.531-3.572c-0.186,0.139-0.366,0.28-0.553,0.417
		c-0.518,0.587-1.046,1.165-1.589,1.729C59.802,156.812,59.264,157.272,58.762,157.771z M58.75,194.2
		c0.093,0.589,0.171,1.181,0.236,1.772c0.111,0.293,0.234,0.584,0.37,0.872c-0.205-0.886-0.428-1.766-0.6-2.653
		C58.754,194.194,58.752,194.196,58.75,194.2z"/>
</g>
<g id="Layer_1">
</g>
</svg>
