<?xml version="1.0" encoding="iso-8859-1"?>
<!-- Generator: Adobe Illustrator 16.0.0, SVG Export Plug-In . SVG Version: 6.00 Build 0)  -->
<!DOCTYPE svg PUBLIC "-//W3C//DTD SVG 1.1//EN" "http://www.w3.org/Graphics/SVG/1.1/DTD/svg11.dtd">
<svg version="1.1" xmlns="http://www.w3.org/2000/svg" xmlns:xlink="http://www.w3.org/1999/xlink" x="0px" y="0px"
	 width="59.462px" height="14.454px" viewBox="0 0 59.462 14.454" style="enable-background:new 0 0 59.462 14.454;"
	 xml:space="preserve">
<g id="Layer_4">
	<path style="fill-rule:evenodd;clip-rule:evenodd;" d="M58.706,2.674c1.68,3.323,0.475,7.452-2.781,9.532
		c-2.113,1.35-4.486,1.909-6.932,2.097c-5.062,0.388-10.008-0.17-14.575-2.531c-1.383-0.716-2.55-1.866-3.766-2.877
		c-0.564-0.469-1.114-0.793-1.647-0.146c-2.527,3.064-6.059,4.209-9.712,5.014c-4.52,0.995-9.066,0.992-13.497-0.496
		C0.99,11.649-0.99,7.758,0.472,3.06c0.042-0.137,0.119-0.263,0.183-0.401c0.115,0.069,0.221,0.097,0.23,0.144
		C1.349,5.03,2.217,5.725,4.417,5.117c2.338-0.646,4.617-1.535,6.876-2.43c3.169-1.255,6.346-2.557,9.798-2.555
		c2.375,0.002,4.748,0.436,7.126,0.626c0.966,0.077,1.993,0.224,2.906-0.007c4.514-1.139,8.955-1.012,13.327,0.567
		c2.555,0.922,5.064,1.966,7.601,2.936c0.708,0.271,1.434,0.505,2.165,0.703C56.955,5.701,57.781,5.273,58.706,2.674z"/>
</g>
<g id="Layer_1">
</g>
</svg>
