<?xml version="1.0" encoding="iso-8859-1"?>
<!-- Generator: Adobe Illustrator 16.0.0, SVG Export Plug-In . SVG Version: 6.00 Build 0)  -->
<!DOCTYPE svg PUBLIC "-//W3C//DTD SVG 1.1//EN" "http://www.w3.org/Graphics/SVG/1.1/DTD/svg11.dtd">
<svg version="1.1" xmlns="http://www.w3.org/2000/svg" xmlns:xlink="http://www.w3.org/1999/xlink" x="0px" y="0px"
	 width="59.371px" height="18.048px" viewBox="0 0 59.371 18.048" style="enable-background:new 0 0 59.371 18.048;"
	 xml:space="preserve">
<g id="Layer_5">
	<path style="fill-rule:evenodd;clip-rule:evenodd;" d="M5.273,7.196C5.151,7.259,5.022,7.376,4.881,7.394
		C3.878,7.516,3.199,7.937,3.318,9.078c0.107,1.027,0.936,1.911,2.016,1.85c0.966-0.054,2.039-0.236,2.84-0.729
		c1.451-0.891,2.78-2.003,4.076-3.121c1.392-1.2,2.651-2.551,4.03-3.766c1.861-1.641,3.998-2.805,6.475-3.189
		c2.697-0.419,4.89,0.393,6.316,2.85c0.116,0.199,0.284,0.367,0.664,0.851c0.173-0.337,0.26-0.614,0.432-0.822
		c2.562-3.109,5.974-3.897,9.513-1.921c1.793,1.001,3.393,2.382,4.979,3.711c1.745,1.462,3.323,3.121,5.074,4.575
		c0.841,0.698,1.867,1.225,2.888,1.636c1.008,0.407,2.001,0.057,2.72-0.751c1.078-1.21,1.166-2.175-0.463-2.727
		c-1-0.339-1.016-0.978-0.181-1.676c0.837-0.699,1.7-0.56,2.545-0.015c2.009,1.296,2.782,4.08,1.509,6.109
		c-0.638,1.018-1.535,2.006-2.548,2.631c-7.038,4.347-14.305,4.622-21.632,0.777c-1.273-0.669-2.323-1.812-3.377-2.838
		c-0.863-0.841-1.572-1.029-2.532-0.153c-0.793,0.724-1.714,1.311-2.597,1.932c-6.657,4.684-13.722,4.719-20.917,1.568
		c-1.577-0.69-3.009-2.003-4.146-3.337C-0.806,10.407-0.046,7.14,2.313,5.77C3.781,4.917,4.919,5.448,5.273,7.196z"/>
</g>
<g id="Layer_1">
</g>
</svg>
