<?xml version="1.0" encoding="iso-8859-1"?>
<!-- Generator: Adobe Illustrator 16.0.0, SVG Export Plug-In . SVG Version: 6.00 Build 0)  -->
<!DOCTYPE svg PUBLIC "-//W3C//DTD SVG 1.1//EN" "http://www.w3.org/Graphics/SVG/1.1/DTD/svg11.dtd">
<svg version="1.1" xmlns="http://www.w3.org/2000/svg" xmlns:xlink="http://www.w3.org/1999/xlink" x="0px" y="0px"
	 width="59.361px" height="14.861px" viewBox="0 0 59.361 14.861" style="enable-background:new 0 0 59.361 14.861;"
	 xml:space="preserve">
<g id="Layer_7">
	<path style="fill-rule:evenodd;clip-rule:evenodd;" d="M59.361,10.244c-1.065,3.284-3.671,4.331-6.766,4.557
		c-4.543,0.331-8.902-0.741-13.19-2.037c-2.516-0.76-5.162-1.468-7.338-2.848c-1.9-1.206-2.966-0.802-4.793,0.062
		c-6.248,2.952-12.843,4.894-19.849,4.811c-1.473-0.018-3.04-0.386-4.385-0.99c-2.813-1.264-3.838-4.884-2.38-7.625
		c0.518,0.663,1.04,1.332,1.633,2.09C2.646,7.767,2.869,7.45,3.187,7C3.539,8.324,4.36,9.028,5.58,9.276
		C7,9.565,8.347,9.331,9.392,8.342c1.093-1.034,2.211-2.122,3-3.384c2.487-3.986,6.202-5.205,10.591-4.917
		c1.863,0.122,3.702,0.588,5.563,0.795c0.886,0.099,1.829,0.095,2.693-0.1c3.035-0.688,6.06-0.982,9.144-0.339
		c2.275,0.475,4.201,1.493,5.666,3.321c0.775,0.967,1.528,1.95,2.313,2.909c0.404,0.494,0.819,0.99,1.292,1.414
		c2.383,2.141,5.065,1.768,6.699-0.91c0.239,0.31,0.478,0.618,0.854,1.104c0.587-0.749,1.105-1.412,1.664-2.125
		c0.157,0.326,0.323,0.67,0.489,1.014C59.361,8.164,59.361,9.204,59.361,10.244z"/>
</g>
<g id="Layer_1">
</g>
</svg>
